<?xml version="1.0" encoding="UTF-8"?>
<svg width="118px" height="136px" viewBox="0 0 118 136" version="1.1" xmlns="http://www.w3.org/2000/svg" xmlns:xlink="http://www.w3.org/1999/xlink" style="background: bg-grey-lighter;">
    <title>etv icon / anschluss</title>
    <g id="etv-icon-/-anschluss" stroke="none" stroke-width="1" fill="none" fill-rule="evenodd">
        <rect fill="bg-grey-lighter" x="0" y="0" width="118" height="136"></rect>
        <g id="schuko" transform="translate(0.000000, 17.000000)" fill-rule="nonzero">
            <path d="M65.7337691,97.990621 C65.2578551,94.6506926 62.3978698,92.1693444 59.0242048,92.1693444 C55.6505397,92.1693444 52.7905545,94.6506926 52.3146405,97.990621 L52.1790937,99.5687725 L50.6203061,99.3073609 C30.5020607,95.8143546 14.6090573,80.2984734 10.6340137,60.2698958 C5.68616419,59.7732465 1.91908285,55.6091075 1.91908285,50.6363944 C1.91908285,45.6636813 5.68616419,41.4995423 10.6340137,41.002893 C14.5983635,20.9630266 30.4936265,5.43339311 50.6203061,1.9363822 L52.1790937,1.66528869 L52.3146405,3.24344018 C52.7905545,6.58336856 55.6505397,9.06471673 59.0242048,9.06471673 C62.3978698,9.06471673 65.2578551,6.58336856 65.7337691,3.24344018 L65.8693158,1.66528869 L67.4281035,1.9363822 C87.5697637,5.41889485 103.483512,20.951545 107.453123,41.002893 C112.400973,41.4995423 116.168054,45.6636813 116.168054,50.6363944 C116.168054,55.6091075 112.400973,59.7732465 107.453123,60.2698958 C103.471499,80.3128255 87.5553908,95.8324742 67.4184216,99.3073609 L65.8596339,99.5687725 L65.7337691,97.990621 Z" id="Path" fill="#FFFFFF"></path>
            <path d="M67.1763738,3.39835075 C87.1519857,6.85476739 102.79615,22.4989316 106.252567,42.4745434 C106.484932,42.4745434 106.717298,42.4745434 106.959346,42.4745434 C111.483053,42.4745434 115.150243,46.1417328 115.150243,50.6654401 C115.150243,55.1891475 111.483053,58.8563368 106.959346,58.8563368 C106.717298,58.8563368 106.484932,58.8563368 106.252567,58.8563368 C102.768639,78.8066148 87.1318129,94.420195 67.1763738,97.874438 C66.791517,93.6566521 63.2546718,90.4278373 59.0193638,90.4278373 C54.7840559,90.4278373 51.2472106,93.6566521 50.8623538,97.874438 C30.8895276,94.4126502 15.247949,78.7710716 11.7861611,58.7982454 C11.5537953,58.7982454 11.3214294,58.7982454 11.0793816,58.7982454 C6.5556743,58.7982454 2.88848494,55.131056 2.88848494,50.6073487 C2.88848494,46.0836413 6.5556743,42.416452 11.0793816,42.416452 C11.3214294,42.416452 11.5537953,42.416452 11.7861611,42.416452 C15.2647315,22.4633888 30.9041376,6.84723256 50.8623538,3.39835075 C51.2472106,7.61613674 54.7840559,10.8449515 59.0193638,10.8449515 C63.2546718,10.8449515 66.791517,7.61613674 67.1763738,3.39835075 M53.4861517,0 L50.3298487,0.532505104 C29.9967354,4.06825791 13.8162856,19.5410521 9.3753653,39.695835 C3.97667873,40.5471487 0,45.2000443 0,50.6654401 C0,56.130836 3.97667873,60.7837315 9.3753653,61.6350453 C13.8417803,81.7645317 30.0156069,97.2080508 50.3298487,100.740284 L53.4474241,101.272789 L53.7185176,98.1164858 C53.9233297,95.3616525 56.2181998,93.2310642 58.9806362,93.2310642 C61.7430725,93.2310642 64.0379427,95.3616525 64.2427548,98.1164858 L64.5138483,101.272789 L67.6314236,100.740284 C87.9712693,97.2229839 104.167874,81.7608501 108.624635,61.6059995 C114.023321,60.7546858 118,56.1017902 118,50.6363944 C118,45.1709986 114.023321,40.518103 108.624635,39.6667893 C104.175756,19.5219542 87.9963037,4.06158891 67.6701513,0.532505104 L64.5525759,0 L64.2814824,3.15630298 C64.0766703,5.91113628 61.7818002,8.04172457 59.0193638,8.04172457 C56.2569275,8.04172457 53.9620573,5.91113628 53.7572452,3.15630298 L53.4861517,0 Z" id="Shape" fill="bg-blue-darker"></path>
            <circle id="Oval" fill="bg-blue-darker" cx="77.4972909" cy="50.6363944" r="10.5145553"></circle>
            <circle id="Oval" fill="bg-blue-darker" cx="40.5511186" cy="50.6363944" r="10.5145553"></circle>
        </g>
    </g>
</svg>