<svg id="Ebene_1" data-name="Ebene 1" xmlns="http://www.w3.org/2000/svg" viewBox="0 0 200 124"><defs><style>.cls-1{fill:#1f1e80;}.cls-2,.cls-3{fill:none;stroke:#1f1e80;stroke-miterlimit:10;stroke-width:3px;}.cls-3{stroke-dasharray:10.38 10.38;}.cls-4{fill:#fff;}</style></defs><path class="cls-1" d="M18,55.18a6.21,6.21,0,0,1-1.77-4.8A6.87,6.87,0,0,1,18,45.24a7.23,7.23,0,0,1,5.25-1.76h5.59l.3,2.51H23.29a4.12,4.12,0,0,0-3.11,1.11,4.55,4.55,0,0,0-1.08,3.28,3.6,3.6,0,0,0,1.17,2.91,5.13,5.13,0,0,0,3.4,1,7,7,0,0,0,3.71-.82A2.71,2.71,0,0,0,28.68,51l.44,2.33A4.31,4.31,0,0,1,28,55.27a5,5,0,0,1-2,1.16,9.44,9.44,0,0,1-2.85.39A7.26,7.26,0,0,1,18,55.18ZM28.68,41.57a4.62,4.62,0,0,0-1.2-3.4A4.58,4.58,0,0,0,24.07,37a5.17,5.17,0,0,0-2.77.74,4.32,4.32,0,0,0-1.75,2.08L17,39a6,6,0,0,1,2.47-3.45,8,8,0,0,1,4.6-1.24,9,9,0,0,1,4.07.85,5.94,5.94,0,0,1,2.58,2.45,8,8,0,0,1,.88,3.87v15h-2.9Z"/><path class="cls-1" d="M37.15,25.92h3V56.51h-3Zm5,29.95a5,5,0,0,1-2.21-2.79l.29-3.94a6,6,0,0,0,.54,2.59,4.18,4.18,0,0,0,1.58,1.82,4.42,4.42,0,0,0,2.43.66,4.33,4.33,0,0,0,3.45-1.41,5.87,5.87,0,0,0,1.22-3.95V42.28a5.87,5.87,0,0,0-1.22-4,4.33,4.33,0,0,0-3.45-1.41,4.5,4.5,0,0,0-2.43.65,4.16,4.16,0,0,0-1.58,1.79,5.81,5.81,0,0,0-.54,2.52l-.44-3.57a6.54,6.54,0,0,1,2.57-3,7.18,7.18,0,0,1,3.79-1,6,6,0,0,1,3.39.94A5.78,5.78,0,0,1,51.65,38a11.34,11.34,0,0,1,.74,4.32v6.57a10.94,10.94,0,0,1-.77,4.3,5.92,5.92,0,0,1-2.23,2.73,6.35,6.35,0,0,1-3.51.94A7.12,7.12,0,0,1,42.1,55.87Z"/><path class="cls-1" d="M67.09,54,76.72,40a18.22,18.22,0,0,0,1.89-3.61,9,9,0,0,0,.66-3.1v0a5,5,0,0,0-1.16-3.55,4.22,4.22,0,0,0-3.26-1.25,4.28,4.28,0,0,0-3.42,1.49A7.05,7.05,0,0,0,70,34.12v0H66.82v0A11.92,11.92,0,0,1,68,29.52,7,7,0,0,1,70.7,26.6a7.78,7.78,0,0,1,4-1,9,9,0,0,1,4.19.91,6.12,6.12,0,0,1,2.67,2.61,8.73,8.73,0,0,1,.92,4.14,11.16,11.16,0,0,1-.79,3.86,19.88,19.88,0,0,1-2.24,4.26L70.88,53.69H82.55v2.82H67.09Z"/><path class="cls-1" d="M90.81,56a5.8,5.8,0,0,1-2.51-2.58A11.54,11.54,0,0,1,87.2,49v0h3v0a5.78,5.78,0,0,0,1.29,3.71A4.26,4.26,0,0,0,94.8,54a4.6,4.6,0,0,0,3.41-1.23,4.78,4.78,0,0,0,1.22-3.5V43a4.93,4.93,0,0,0-1.08-3.41,3.84,3.84,0,0,0-3-1.2,4.69,4.69,0,0,0-3,1A5.54,5.54,0,0,0,90.53,42H87.88V25.92h14v2.82h-11v8.87A5.94,5.94,0,0,1,93,36.07a6.12,6.12,0,0,1,2.59-.56,7.47,7.47,0,0,1,3.72.87,5.7,5.7,0,0,1,2.36,2.56,9.1,9.1,0,0,1,.82,4v6.25a8.69,8.69,0,0,1-.89,4.09,6,6,0,0,1-2.63,2.61,9,9,0,0,1-4.13.89A8.53,8.53,0,0,1,90.81,56Z"/><path class="cls-1" d="M109.71,54.76a8,8,0,0,1-2-5.79V33.41a7.91,7.91,0,0,1,2-5.78,9.18,9.18,0,0,1,11.55,0,7.9,7.9,0,0,1,2,5.79V49a7.94,7.94,0,0,1-2,5.8,9.16,9.16,0,0,1-11.56,0Zm9.34-2.06a5.31,5.31,0,0,0,1.2-3.73V33.41a5.33,5.33,0,0,0-1.2-3.72,5.49,5.49,0,0,0-7.12,0,5.38,5.38,0,0,0-1.19,3.72V49a5.31,5.31,0,0,0,1.2,3.73,5.51,5.51,0,0,0,7.11,0Z"/><path class="cls-1" d="M138.87,25.92h3V56.51h-3Zm2,23.47,11-14.72h3.49L140.66,53.41Zm5.51-4.58L148.13,42l8.16,14.56h-3.56Z"/><path class="cls-1" d="M158.92,34.67h3V56.51h-3Zm11.65,7.49a5.83,5.83,0,0,0-1-3.74,3.75,3.75,0,0,0-3.09-1.29,4.23,4.23,0,0,0-3.33,1.27A5.32,5.32,0,0,0,162,42.09l-.44-3.68A6.77,6.77,0,0,1,164,35.3a6.49,6.49,0,0,1,3.63-1,5.75,5.75,0,0,1,3.29.91,5.49,5.49,0,0,1,2.05,2.65,11.69,11.69,0,0,1,.69,4.29V56.51h-3.05Zm11.7,0a5.45,5.45,0,0,0-1.15-3.74,4.21,4.21,0,0,0-3.33-1.29,3.72,3.72,0,0,0-3.09,1.34,6,6,0,0,0-1.08,3.84l-1.07-3A7.76,7.76,0,0,1,175,35.6a5.86,5.86,0,0,1,3.79-1.29,6.88,6.88,0,0,1,3.61.89,5.53,5.53,0,0,1,2.2,2.67,11,11,0,0,1,.75,4.31V56.51h-3Z"/><line class="cls-2" x1="17.08" y1="87.99" x2="22.08" y2="87.99"/><line class="cls-3" x1="32.45" y1="87.97" x2="172.53" y2="87.73"/><line class="cls-2" x1="177.72" y1="87.72" x2="182.72" y2="87.71"/><circle class="cls-4" cx="17.08" cy="87.99" r="15"/><path class="cls-1" d="M17.08,74.49A13.5,13.5,0,1,1,3.58,88a13.51,13.51,0,0,1,13.5-13.5m0-3A16.5,16.5,0,1,0,33.58,88a16.52,16.52,0,0,0-16.5-16.5Z"/><circle class="cls-4" cx="182.72" cy="87.71" r="15"/><path class="cls-1" d="M182.72,74.21a13.5,13.5,0,1,1-13.5,13.5,13.51,13.51,0,0,1,13.5-13.5m0-3a16.5,16.5,0,1,0,16.5,16.5,16.52,16.52,0,0,0-16.5-16.5Z"/><circle class="cls-1" cx="17.18" cy="88.34" r="8.46"/><circle class="cls-1" cx="182.66" cy="87.34" r="8.46"/></svg>