<?xml version="1.0" encoding="utf-8"?>
<!-- Generator: Adobe Illustrator 19.1.0, SVG Export Plug-In . SVG Version: 6.00 Build 0)  -->
<svg version="1.1" xmlns="http://www.w3.org/2000/svg" xmlns:xlink="http://www.w3.org/1999/xlink" x="0px" y="0px"
	 viewBox="0 0 102.1 27.6" style="enable-background:new 0 0 102.1 27.6;" xml:space="preserve">
<style type="text/css">
	.st0{fill:#00594F;}
	.st1{fill:#414042;}
</style>
<g id="Layer_1">
	<path class="st0" d="M41.2,12.8c1-0.3,4.2-2,6.8-4.5c0.1,0.8,0.3,1.4,0.6,1.9c1.1,1.9,3,2.7,5.2,2.7c2.7,0,4.9-1.5,5.8-4
		c0.3-1,0.4-1.9,0-2.6C59.1,5.3,58.2,5,56.8,5h-1.7c-0.9,0-2.2-0.1-2,0.5c0.3,0.6,1.1,1.1,2.3,1.1c0.5,0,0.9,0,1.1,0
		c1,0,1.1,1.1,0.9,1.6C56.9,10,55.7,11,53.8,11c-1.2,0-2.4-0.4-3-1.8c-0.7-1.5-0.5-2.9,0.7-4.8c1.7-3,4.6-2.6,7-2.6
		c0.5,0,1.5,0,1.8,0C61,1.8,64.2,1,65.1,0h-4.8h-1c-2.8,0-7.6-0.5-9.8,3.4c0,0,0,0,0,0c0,0,0,0,0,0C47.1,7.8,44.1,9.3,43,10
		c-0.5,0.3-2.1,1.2-3.5,1.7c-1.1,0.4-1.9,0.6-2.6,1.2H40C40.7,12.9,41.2,12.8,41.2,12.8"/>
	<path class="st1" d="M7.6,27c-0.8,0.7-2.2,0.7-3.5,0.7C0,27.7,0,26,0,23.7c0-2.4,0-4.1,4.5-4.1c2.5,0,4.1,0.5,4.1,2.2H7.2
		c0-1-0.7-1.2-2.8-1.2c-2.9,0-2.9,0.9-2.9,3.1c0,2.2,0,3.1,2.8,3.1c2.9,0,3.1-0.9,3.1-2.7l-3.2,0l0-0.9c1,0,4.5,0,4.5,0
		S9,26.2,7.6,27z"/>
	<path class="st1" d="M55.4,27.6v-2c0-0.7,0-1-0.4-1.2c-0.4-0.2-1.2-0.2-2.5-0.2h-2.2v3.4h-1.5v-7.9h3.8c2.6,0,4.3,0,4.3,2.3
		c0,0.9-0.3,1.5-1.2,1.7c1.3,0.3,1.2,1.3,1.2,2v2H55.4z M55,21c-0.4-0.4-1-0.4-2.6-0.4h-2.2v2.6h2.3c0.8,0,1.7,0,2.2-0.1
		c0.3-0.1,0.6-0.4,0.6-1.1C55.4,21.5,55.2,21.2,55,21z"/>
	<path class="st1" d="M74.8,27.6v-7.9h1.5v7.9H74.8z"/>
	<path class="st1" d="M100.5,27.6l-1.1-2.2h-4.6l-1.1,2.2h-1.5l4.3-7.9h1.5l4.3,7.9H100.5z M97.1,21l-1.8,3.6h3.7L97.1,21z"/>
	<path class="st1" d="M31.7,27.6l-1.1-2.2h-4.6l-1.1,2.2h-1.5l4.3-7.9H29l4.3,7.9H31.7z M28.2,21l-1.8,3.6h3.7L28.2,21z"/>
</g>
<g id="Layer_2">
</g>
</svg>
