<?xml version="1.0" encoding="UTF-8"?>
<svg width="136px" height="91px" viewBox="0 0 136 91" version="1.1" xmlns="http://www.w3.org/2000/svg" xmlns:xlink="http://www.w3.org/1999/xlink">
    <title>export / gdpr</title>
    <g id="export-/-gdpr" stroke="none" stroke-width="1" fill="none" fill-rule="evenodd">
        <g id="Group" fill-rule="nonzero">
            <path d="M75.7244227,18.0337589 L39.4285304,3.11150154 L3.15411809,18.0337589 C2.16330524,63.3185314 25.0578386,81.2190958 34.9718253,86.8313486 C37.6412009,88.3423771 41.0000838,88.2589604 43.5507336,86.5746818 C52.9644321,80.3584843 75.3100543,61.3826415 75.7300856,21.1122049 C75.7316477,21.0565938 75.7406303,18.9832316 75.7244227,18.0337589 Z" id="Path" fill="#FFFFFF"></path>
            <path d="M48.63524,73.217703 C39.3242548,67.9468948 18.5654173,51.8352201 16.895056,12.3810617 L3.15411809,18.0337589 C2.16330524,63.3185314 25.0576433,81.2190958 34.9718253,86.8313486 C37.6412009,88.3423771 41.0000838,88.2589604 43.5507336,86.5746818 C47.5489388,83.9345138 53.8794792,78.9909558 59.8725886,71.0937852 C58.9079423,71.8108967 58.0135941,72.4333137 57.2141483,72.9612306 C54.6634984,74.6453148 51.3046155,74.7289259 48.63524,73.217703 Z" id="Path" fill="#E6E7E8"></path>
            <path d="M1.96217453,15.1577297 L38.2365868,0.235472339 C39.0001024,-0.0785555945 39.8567631,-0.07836115 40.6196929,0.235277894 L76.9157804,15.1575353 C78.0671073,15.6308133 78.8261316,16.7403139 78.8472211,17.98087 C79.3106028,45.3139391 68.8371603,73.6102865 45.2761618,89.1683775 C41.7700434,91.4836287 37.0754963,91.6010732 33.4293675,89.5370444 C23.0455551,83.658597 -0.995228045,64.9174488 0.0319054995,17.9660922 C0.0588531096,16.731175 0.816315281,15.6290633 1.96217453,15.1577297 Z M6.24821144,20.1275378 C6.00041059,62.2354753 27.2523113,78.8824558 36.5148689,84.1260417 C38.1801531,85.0687088 40.2648827,85.011931 41.825696,83.9809861 C62.9754693,70.0152014 72.5815112,44.6592444 72.6108021,20.1199544 L39.4289209,6.47791988 L6.24821144,20.1275378 Z" id="Shape" fill="blue-extra"></path>
        </g>
        <g id="Group" transform="translate(25.947696, 22.048893)" fill-rule="nonzero">
            <g>
                <g id="XMLID_40_">
                    <path d="M25.2344841,16.3623137 L18.9883015,16.3623137 L18.9883015,11.7788669 C18.9883015,8.71539321 16.5177134,6.22319753 13.4808349,6.22319753 C10.4439564,6.22319753 7.97336823,8.71539321 7.97336823,11.7788669 L7.97336823,16.3623137 L1.72718559,16.3623137 L1.72718559,11.7788669 C1.72718559,5.2840304 6.99973936,0 13.4808349,0 C19.9619304,0 25.2344841,5.2840304 25.2344841,11.7788669 L25.2344841,16.3623137 Z" id="Path" fill="blue-extra"></path>
                    <path d="M23.0560237,37.7638521 L3.90545074,37.7638521 C1.7484703,37.7638521 0,36.0227956 0,33.8749612 L0,18.3151202 C0,16.1672858 1.7484703,14.4262294 3.90545074,14.4262294 L23.0560237,14.4262294 C25.2130042,14.4262294 26.9614745,16.1672858 26.9614745,18.3151202 L26.9614745,33.8749612 C26.9614745,36.0226012 25.2130042,37.7638521 23.0560237,37.7638521 Z" id="XMLID_42_" fill="bg-green-light"></path>
                </g>
                <path d="M16.9180221,23.7115395 C16.9180221,21.7544552 15.3790792,20.1679822 13.4806396,20.1679822 C11.5822,20.1679822 10.0434524,21.7544552 10.0434524,23.7115395 C10.0434524,24.8698457 10.5849431,25.8949573 11.4183663,26.5416798 L11.4183663,31.8365991 L15.5431081,31.8365991 L15.5431081,26.5416798 C16.3767266,25.8949573 16.9180221,24.8696512 16.9180221,23.7115395 L16.9180221,23.7115395 Z" id="Path" fill="#FFFFFF"></path>
            </g>
        </g>
        <text id="DSGVO-KONFORM" font-family="Inter-Black, Inter" font-size="12.1278628" font-weight="800" letter-spacing="0.0891754646" fill="blue-extra">
            <tspan x="72.3175807" y="67.6847865">DSGVO</tspan>
            <tspan x="72.3175807" y="82.6847865">KONFORM</tspan>
        </text>
    </g>
</svg>