<svg xmlns:dc="http://purl.org/dc/elements/1.1/" xmlns:cc="http://creativecommons.org/ns#" xmlns:rdf="http://www.w3.org/1999/02/22-rdf-syntax-ns#" xmlns:svg="http://www.w3.org/2000/svg" xmlns="http://www.w3.org/2000/svg" xml:space="preserve" style="enable-background:new 0 0 1103 354;" viewBox="0 0 1103 354" y="0px" x="0px" id="Calque_1"><metadata id="metadata552"></metadata><defs id="defs550"></defs>
<style id="style2" type="text/css">
	.st0{fill:#FFFFFF;}
	.st1{fill:url(#SVGID_1_);stroke:#000000;stroke-width:4;stroke-miterlimit:10;}
	.st2{fill:url(#SVGID_2_);}
	.st3{fill:url(#SVGID_3_);}
	.st4{fill:#231F20;}
	.st5{fill:url(#SVGID_4_);}
	.st6{fill:url(#SVGID_5_);}
	.st7{fill:url(#SVGID_6_);}
	.st8{fill:url(#SVGID_7_);}
	.st9{fill:url(#SVGID_8_);}
	.st10{fill:url(#SVGID_9_);}
	.st11{fill:url(#SVGID_10_);}
	.st12{fill:url(#SVGID_11_);}
	.st13{fill:url(#SVGID_12_);}
	.st14{fill:url(#SVGID_13_);}
	.st15{fill:#121212;}
	.st16{opacity:0.43;fill:url(#SVGID_14_);}
	.st17{fill:url(#SVGID_15_);}
	.st18{fill:url(#SVGID_16_);}
	.st19{fill:url(#SVGID_17_);}
	.st20{fill:url(#SVGID_18_);}
	.st21{fill:url(#SVGID_19_);}
	.st22{fill:url(#SVGID_20_);}
	.st23{fill:url(#SVGID_21_);}
	.st24{fill:url(#SVGID_22_);}
	.st25{fill:url(#SVGID_23_);}
	.st26{fill:url(#SVGID_24_);}
	.st27{fill:url(#SVGID_25_);}
	.st28{fill:url(#SVGID_26_);}
	.st29{fill:url(#SVGID_27_);}
	.st30{fill:#B2B2B2;}
	.st31{fill:url(#SVGID_28_);}
	.st32{fill:url(#SVGID_29_);}
	.st33{stroke:#000000;stroke-width:0.75;stroke-miterlimit:10;}
</style>
<g id="g20">
	<g id="g12">
		<path id="path4" d="M475.8,233.68c-15.59,0-28.07-5.34-37.54-15.99c-8.55-9.72-12.8-21.39-12.8-35.05c0-13.45,4.08-24.69,12.26-33.63    c9.24-10.2,21.95-15.33,38.08-15.33h56.25v17.38h-56.2c-9.99,0-18.1,3.28-24.28,9.87c-5.48,5.83-8.38,13.07-8.75,21.71    c-0.3,9.12,2.3,16.81,7.77,23.08c6.11,7.08,14.55,10.61,25.29,10.61h46.01v-21.77h-47.53v-15.98h64.85v55.09H475.8z"></path>
		<path id="path6" d="M603.2,151.06c-10.02,0-18.11,3.28-24.33,9.87c-5.47,5.83-8.39,13.07-8.74,21.71c-0.31,9.12,2.3,16.81,7.77,23.08    c6.1,7.08,14.53,10.61,25.29,10.61h27.92c10.73,0,19.17-3.53,25.29-10.61c5.43-6.28,8-13.96,7.63-23.08    c-0.31-8.64-3.21-15.88-8.74-21.71c-6.15-6.59-14.19-9.87-24.19-9.87H603.2z M603.11,233.68c-15.57,0-28.08-5.34-37.56-15.99    c-8.49-9.72-12.78-21.39-12.78-35.05c0-13.45,4.06-24.69,12.22-33.63c9.26-10.2,21.97-15.33,38.11-15.33h27.94    c16.13,0,28.78,5.13,37.98,15.33c8.23,8.94,12.37,20.18,12.37,33.63c0,13.66-4.27,25.32-12.8,35.05    c-9.47,10.65-21.97,15.99-37.55,15.99H603.11z"></path>
		<path id="path8" d="M755.88,233.68h-5.97c-16.86,0-29.56-3.29-38.04-9.86c-9.47-7.36-14.21-19.03-14.21-35.19v-54.95h17.36v54.98    c0,10.6,3.25,18.01,9.74,22.4c5.36,3.53,13.74,5.28,25.15,5.28h5.97c11.36,0,19.79-1.76,25.15-5.28c6.49-4.38,9.73-11.8,9.73-22.4    v-54.98h17.36v54.95c0,16.15-4.77,27.83-14.29,35.19C785.37,230.39,772.76,233.68,755.88,233.68"></path>
		<path id="path10" d="M844.75,233.68h-17.34v-100h71.64c12.48,0,22.45,3.78,29.88,11.27c6.64,6.75,10,15.02,10,24.74    c0,9.77-3.36,18.02-10,24.79c-7.43,7.4-17.44,11.12-30.01,11.12h-43.89v-17.33h46.66c6.41,0,11.49-1.97,15.29-5.89    c3.44-3.51,5.12-7.81,5.12-12.77c0-5.05-1.68-9.31-5.12-12.82c-3.72-3.82-8.78-5.72-15.29-5.72h-56.95V233.68z"></path>
	</g>
	<rect id="rect14" height="66.56" width="17.36" y="167.12" x="954.34"></rect>
	<polygon id="polygon16" points="990.57,233.68 990.57,133.68 1007.92,133.68 1007.92,216.34 1054.65,216.34 1054.65,233.68  "></polygon>
	<rect id="rect18" height="24.49" width="17.52" y="133.68" x="954.34"></rect>
</g>
<path id="path22" d="M202,36.08c-79.53,0-144,64.47-144,144s64.47,144,144,144s144-64.47,144-144S281.53,36.08,202,36.08z   M109.81,282.88C82,257.58,64.52,220.97,64.52,180.24c0-76.36,61.43-138.26,137.21-138.26c36.51,0,69.68,14.37,94.27,37.8  c-2.31,0.04-7.16-0.11-11.91-1.78C260.93,59.02,232.25,48.7,202,48.7c-34.83,0-67.57,13.67-92.19,38.48  c-24.63,24.81-38.19,57.81-38.19,92.9c0,34.87,13.4,67.67,37.73,92.43C110.11,276.21,109.98,280.5,109.81,282.88z M176.88,166.13  c-0.9-2.32-2.84-4.08-5.23-4.73l-14.37-3.95c-2.45-0.67-4.26-2.73-4.64-5.24l-3.97-26.84c-0.39-2.67,2.84-4.3,4.75-2.38l24.53,24.6  c2.06,2.07,4.86,3.23,7.78,3.23h15.99h15.99c2.92,0,5.72-1.16,7.78-3.23l24.53-24.6c1.91-1.91,5.14-0.28,4.75,2.38l-3.97,26.84  c-0.37,2.51-2.19,4.56-4.64,5.24l-14.37,3.95c-2.4,0.66-4.34,2.42-5.23,4.73l-23.61,61.17c-0.44,1.13-2.04,1.13-2.48,0  L176.88,166.13z M175.38,192.56c-2.71-1.42-5.62-4.33-7.43-9.57c-1.77-5.12-0.24-9.61,0.9-10.66c1.49-1.36,2.97-1.16,3.62,0.32  c0.65,1.49,7.56,20.23,7.56,20.23C180.75,194.69,178.1,193.98,175.38,192.56z M146.38,98.62c-1.72-1.41-1.56-4.09,0.31-5.28  c16.3-10.39,35.24-15.95,55.04-15.95c19.74,0,38.62,5.53,54.89,15.86c1.88,1.19,2.03,3.87,0.31,5.28l-33.89,27.76  c-1.5,1.23-3.37,1.9-5.3,1.9H201.6h-16.14c-1.93,0-3.81-0.67-5.3-1.9L146.38,98.62z M236.07,182.99c-1.81,5.24-4.72,8.14-7.43,9.57  c-2.71,1.42-5.36,2.13-4.65,0.32c0,0,6.92-18.74,7.56-20.23c0.65-1.49,2.13-1.68,3.62-0.32  C236.32,173.38,237.84,177.87,236.07,182.99z M247.99,231c1.51-2.05,3.51-3.69,5.82-4.78l22.94-10.84c1.27-0.6,2.37-1.5,3.21-2.62  c1.33-1.79,3.61-5,6.7-9.89c3.11-4.93,5.16-8.52,6.29-10.59c0.66-1.2,0.44-2.69-0.53-3.65l-19.62-19.52  c-2.27-2.25-3.39-5.42-3.04-8.6l5.06-46.96c0.22-2.01,2.72-2.79,4.05-1.27c16.53,18.75,25.57,42.58,25.57,67.81  c0,27.43-10.68,53.22-30.08,72.62c-16.35,16.35-37.24,26.5-59.83,29.29c-1.74,0.21-2.88-1.77-1.84-3.17L247.99,231z M99.03,180.08  c0-25.22,9.04-49.05,25.57-67.81c1.34-1.52,3.84-0.74,4.05,1.27l5.06,46.96c0.34,3.18-0.78,6.34-3.04,8.6l-19.62,19.52  c-0.97,0.96-1.19,2.45-0.53,3.65c1.13,2.07,3.17,5.66,6.29,10.59c3.09,4.89,5.37,8.11,6.7,9.89c0.84,1.12,1.94,2.02,3.21,2.62  l22.94,10.84c2.3,1.09,4.3,2.73,5.82,4.78l35.31,47.82c1.04,1.41-0.1,3.39-1.84,3.17c-22.59-2.79-43.48-12.94-59.83-29.29  C109.71,233.31,99.03,207.52,99.03,180.08z M191.22,295.13c-0.05,0-0.09,0.01-0.13,0.01c-19.76-1.87-39.06-8.79-55.79-20.61  c0,0,7.91-1.81,15.81,1.09c0.45,0.17,0.92,0.33,1.39,0.49c11.76,6.04,24.44,9.82,37.37,11.28c0.89,1.63,2.47,4.52,3.03,5.57  C193.7,294.44,192.9,295.23,191.22,295.13z M201.66,278.45c-1.35,0-1.68-0.12-3.24-1.8c-0.59-0.64-2.88-4.31-7.4-12.54  c-0.27-0.49-0.03-1.1,0.49-1.27c2.25-0.75,5.52-1.45,9.84-1.45h0.6c4.32,0,7.6,0.71,9.84,1.45c0.53,0.17,0.76,0.79,0.49,1.27  c-4.52,8.22-6.81,11.9-7.4,12.54C203.35,278.33,203.02,278.45,201.66,278.45z M212.18,295.2c-0.1,0-0.2,0-0.3,0  c-1.17-0.02-1.63-0.58-1.08-1.86c0.48-1.12,3.05-4.72,4-6.04c53.7-6.33,95.36-51.99,95.36-107.39c0-30.36-12.51-57.79-32.66-77.43  c0.01-0.07,0.02-0.14,0.03-0.2c0.86-7.43,1.23-8.8,3.02-7.35c0.35,0.32,0.7,0.65,1.05,0.98c0.49,0.49,1.07,1.09,1.73,1.76  c0.15,0.15,0.3,0.27,0.47,0.38c20.97,20.95,33.94,49.9,33.94,81.87C317.73,240.41,271.33,290.05,212.18,295.2z" class="st0"></path>
<g id="g545">
	
		<radialGradient gradientUnits="userSpaceOnUse" gradientTransform="matrix(1.127 0 0 1.1095 -68.8556 -33.1481)" r="229.8612" cy="117.8873" cx="185.7139" id="SVGID_1_">
		<stop id="stop24" style="stop-color:#EDF6FB" offset="0"></stop>
		<stop id="stop26" style="stop-color:#BBDBF0" offset="0.0696"></stop>
		<stop id="stop28" style="stop-color:#83BDE4" offset="0.1574"></stop>
		<stop id="stop30" style="stop-color:#54A4DA" offset="0.2428"></stop>
		<stop id="stop32" style="stop-color:#3090D2" offset="0.3236"></stop>
		<stop id="stop34" style="stop-color:#1582CD" offset="0.3987"></stop>
		<stop id="stop36" style="stop-color:#067AC9" offset="0.4659"></stop>
		<stop id="stop38" style="stop-color:#0077C8" offset="0.5187"></stop>
	</radialGradient>
	<ellipse id="ellipse41" ry="138.43" rx="140.61" cy="180.5" cx="199.82" class="st1"></ellipse>
	<linearGradient y2="311.5285" x2="240.5906" y1="46.7786" x1="162.6163" gradientUnits="userSpaceOnUse" id="SVGID_2_">
		<stop id="stop43" style="stop-color:#FFFFFF" offset="0.0189"></stop>
		<stop id="stop45" style="stop-color:#000000" offset="0.6378"></stop>
		<stop id="stop47" style="stop-color:#0A0A0A" offset="0.7338"></stop>
		<stop id="stop49" style="stop-color:#262626" offset="0.899"></stop>
		<stop id="stop51" style="stop-color:#3B3B3B" offset="1"></stop>
	</linearGradient>
	<path id="path54" d="M202,37.71c-78.86,0-142.79,63.93-142.79,142.79S123.14,323.29,202,323.29s142.79-63.93,142.79-142.79   S280.86,37.71,202,37.71z M144.81,90.35c16.94-10.79,36.62-16.58,57.19-16.58c20.51,0,40.13,5.75,57.04,16.48   c1.95,1.24,2.11,4.03,0.33,5.49l-35.21,28.85c-1.55,1.27-3.5,1.97-5.51,1.97h-16.77h-16.77c-2.01,0-3.96-0.7-5.51-1.97l-35.1-28.76   C142.7,94.38,142.86,91.59,144.81,90.35z M233.26,161.07c-2.49,0.69-4.51,2.51-5.44,4.92l-24.54,63.56c-0.45,1.18-2.12,1.18-2.57,0   l-24.54-63.56c-0.93-2.41-2.95-4.23-5.44-4.92l-14.93-4.11c-2.54-0.7-4.43-2.83-4.82-5.44l-4.12-27.89   c-0.41-2.77,2.96-4.46,4.94-2.48l25.49,25.56c2.14,2.15,5.05,3.35,8.08,3.35H202h16.62c3.03,0,5.94-1.21,8.08-3.35l25.49-25.56   c1.98-1.99,5.35-0.3,4.94,2.48l-4.12,27.89c-0.39,2.61-2.27,4.74-4.82,5.44L233.26,161.07z M237.4,183.52   c-1.88,5.44-4.9,8.46-7.72,9.94c-2.82,1.48-5.57,2.22-4.84,0.34c0,0,7.19-19.48,7.86-21.02c0.67-1.54,2.22-1.75,3.76-0.34   C237.65,173.53,239.24,178.2,237.4,183.52z M174.33,193.46c-2.82-1.48-5.84-4.5-7.72-9.94c-1.84-5.32-0.25-9.99,0.94-11.08   c1.54-1.41,3.09-1.21,3.76,0.34c0.67,1.54,7.86,21.02,7.86,21.02C179.9,195.68,177.15,194.94,174.33,193.46z M188.71,286.4   c-23.47-2.9-45.18-13.45-62.17-30.44c-20.16-20.16-31.26-46.96-31.26-75.47c0-26.21,9.39-50.98,26.57-70.47   c1.39-1.58,3.99-0.77,4.21,1.32l5.26,48.8c0.36,3.3-0.81,6.59-3.16,8.93l-20.39,20.28c-1.01,1-1.23,2.55-0.55,3.8   c1.17,2.15,3.3,5.88,6.53,11c3.21,5.08,5.58,8.42,6.96,10.28c0.87,1.17,2.01,2.1,3.33,2.72l23.84,11.27   c2.39,1.13,4.47,2.84,6.04,4.97l36.69,49.69C191.7,284.57,190.51,286.63,188.71,286.4z M201.93,282.72c-1.41,0-1.75-0.13-3.37-1.87   c-0.62-0.66-2.99-4.48-7.69-13.03c-0.28-0.51-0.03-1.14,0.51-1.32c2.34-0.78,5.73-1.51,10.23-1.51h0.63   c4.49,0,7.89,0.74,10.23,1.51c0.55,0.18,0.79,0.82,0.51,1.32c-4.7,8.55-7.08,12.37-7.69,13.03   C203.68,282.6,203.34,282.72,201.93,282.72z M277.47,255.96c-16.99,16.99-38.7,27.54-62.17,30.44c-1.8,0.22-2.99-1.84-1.91-3.3   l36.69-49.69c1.57-2.13,3.65-3.84,6.04-4.97l23.84-11.27c1.32-0.62,2.46-1.56,3.33-2.72c1.38-1.86,3.75-5.19,6.96-10.28   c3.23-5.12,5.36-8.86,6.53-11c0.68-1.25,0.45-2.79-0.55-3.8l-20.39-20.28c-2.36-2.34-3.52-5.63-3.16-8.93l5.26-48.8   c0.23-2.09,2.82-2.9,4.21-1.32c17.18,19.49,26.57,44.25,26.57,70.47C308.73,209.01,297.62,235.81,277.47,255.96z" class="st2"></path>
	<linearGradient y2="298.6427" x2="307.8515" y1="298.6427" x1="218.476" gradientUnits="userSpaceOnUse" id="SVGID_3_">
		<stop id="stop56" style="stop-color:#808080" offset="0"></stop>
		<stop id="stop58" style="stop-color:#000000" offset="0.7973"></stop>
	</linearGradient>
	<path id="path61" d="M220,322.82c0,0-2.15-3.76-1.34-3.76c0.81,0,34.85-6.17,52.66-17.46c19.07-12.09,33.85-27.13,33.85-27.13   l2.69,3.22c0,0-16.52,16.66-32.1,25.79C261.91,311.59,241.49,319.87,220,322.82z" class="st3"></path>
	<path id="path63" d="M338.62,158c0.73,3.91,1.3,7.86,1.7,11.82c0.19,1.98,0.34,3.97,0.45,5.97c0.05,1,0.1,1.99,0.13,2.99   c0.03,1,0.06,2,0.04,2.99c0.13,7.99-0.5,16-1.78,23.91c-0.17,0.99-0.28,1.99-0.53,2.96l-0.67,2.93l-0.67,2.93l-0.8,2.9   c-0.54,1.93-1.03,3.87-1.7,5.76l-0.94,2.85l-0.47,1.43c-0.17,0.47-0.36,0.94-0.53,1.4l-1.08,2.8l-0.54,1.4   c-0.18,0.47-0.36,0.94-0.57,1.39l-2.44,5.49l-2.7,5.37c-0.43,0.91-0.95,1.76-1.44,2.64l-1.48,2.61   c-4.05,6.92-8.69,13.48-13.84,19.62l-1.96,2.27c-0.66,0.75-1.29,1.54-2,2.25l-4.14,4.35l-4.35,4.15c-0.71,0.71-1.49,1.34-2.24,2   l-2.27,1.96c-6.13,5.16-12.69,9.81-19.6,13.86l-2.61,1.48l-1.31,0.74l-0.65,0.37l-0.67,0.34l-5.37,2.7l-5.49,2.44l-0.69,0.3   l-0.7,0.27l-1.4,0.54l-2.8,1.08c-7.52,2.77-15.28,4.89-23.16,6.33c-7.88,1.45-15.89,2.24-23.9,2.28   c-8.01,0.06-16.03-0.53-23.94-1.8l-2.96-0.51c-0.99-0.17-1.98-0.32-2.95-0.56c-1.95-0.44-3.91-0.86-5.86-1.33l-5.79-1.6   c-0.49-0.12-0.96-0.29-1.43-0.45l-1.43-0.47l-2.85-0.94c-7.57-2.64-14.9-5.93-21.91-9.83c-3.52-1.92-6.9-4.08-10.24-6.28   l-4.92-3.46c-1.59-1.22-3.17-2.45-4.73-3.71c-3.03-2.62-6.03-5.28-8.82-8.15c-0.71-0.71-1.43-1.4-2.12-2.12   c-0.69-0.73-1.38-1.45-2.05-2.19c-1.35-1.47-2.67-2.97-3.96-4.5c-2.58-3.05-5.02-6.21-7.32-9.47c-2.29-3.27-4.43-6.63-6.43-10.07   c2.16,3.34,4.45,6.59,6.89,9.73c2.42,3.15,4.97,6.19,7.65,9.11c1.34,1.46,2.7,2.9,4.1,4.3c0.69,0.71,1.41,1.39,2.12,2.08   c0.72,0.68,1.46,1.34,2.19,2.01c2.88,2.72,5.94,5.22,9.03,7.69c6.12,5,12.71,9.41,19.6,13.25c6.9,3.84,14.13,7.08,21.59,9.68   l2.81,0.93l1.41,0.46c0.47,0.15,0.93,0.32,1.41,0.44l5.71,1.58c1.92,0.45,3.85,0.87,5.78,1.31c0.96,0.24,1.94,0.38,2.91,0.55   l2.92,0.5c7.8,1.25,15.7,1.83,23.6,1.77c7.9-0.03,15.79-0.82,23.56-2.25c7.77-1.43,15.41-3.51,22.82-6.24l2.76-1.07l1.38-0.53   l0.69-0.27l0.68-0.3l5.41-2.4l5.29-2.66l0.66-0.33l0.65-0.36l1.29-0.73l2.58-1.46c6.81-4,13.28-8.58,19.32-13.66l2.24-1.94   c0.74-0.65,1.51-1.27,2.21-1.97l4.29-4.09l4.09-4.29c0.7-0.7,1.31-1.47,1.97-2.21l1.94-2.24c5.08-6.05,9.65-12.52,13.64-19.33   l1.46-2.58c0.48-0.86,1-1.71,1.42-2.6l2.66-5.29l2.4-5.41c0.21-0.45,0.38-0.91,0.56-1.37l0.53-1.38l1.07-2.76   c0.18-0.46,0.36-0.92,0.53-1.38l0.46-1.41l0.93-2.81c0.66-1.86,1.15-3.78,1.68-5.68l0.79-2.86l0.64-2.89l0.63-2.89l0.16-0.72   l0.13-0.73l0.27-1.46c1.56-7.74,2.52-15.63,2.71-23.55c0.16-3.96,0.08-7.93-0.13-11.9C339.53,165.91,339.16,161.94,338.62,158z" class="st0"></path>
	<path id="path65" d="M63.6,183.12l-0.1-2.72l-0.01-2.72l-0.01-2.72l0-1.36l0.06-1.36l0.27-5.44l0.53-5.42   c0.85-7.22,2.27-14.38,4.2-21.42c2.04-7.01,4.62-13.86,7.69-20.49c0.8-1.64,1.58-3.3,2.41-4.93l2.66-4.8   c0.23-0.4,0.43-0.81,0.67-1.2l0.72-1.17l1.44-2.33c0.49-0.78,0.96-1.56,1.45-2.33l1.56-2.26l1.56-2.26   c0.26-0.37,0.51-0.76,0.79-1.12l0.83-1.09c1.11-1.45,2.22-2.92,3.34-4.36l3.56-4.19c0.3-0.35,0.59-0.7,0.9-1.04l0.94-1l1.88-2   l1.88-2l1.98-1.91l1.98-1.91l0.99-0.95c0.34-0.31,0.69-0.61,1.03-0.91l4.14-3.62c1.42-1.16,2.87-2.28,4.31-3.43l1.08-0.85   c0.36-0.29,0.74-0.54,1.11-0.81l2.24-1.6l2.25-1.59c0.76-0.51,1.54-0.99,2.32-1.49l2.32-1.48l1.16-0.74   c0.39-0.25,0.79-0.46,1.19-0.69l4.79-2.73c6.48-3.45,13.23-6.42,20.15-8.86l5.24-1.72l5.31-1.46l1.33-0.36l1.34-0.3l2.69-0.6   l2.69-0.59l2.71-0.46l2.71-0.46c0.45-0.08,0.9-0.16,1.36-0.23l1.37-0.17l5.47-0.66l5.49-0.39l1.37-0.1l1.38-0.03l2.75-0.05   c14.67-0.25,29.38,1.86,43.37,6.19c6.98,2.23,13.79,4.95,20.34,8.21l4.86,2.54l4.73,2.77l1.18,0.69l1.15,0.75l2.29,1.5l2.29,1.5   l2.21,1.61l2.2,1.62l1.1,0.81l1.06,0.86l4.24,3.45l4.07,3.64l1.02,0.91c0.33,0.31,0.65,0.64,0.97,0.96l1.93,1.93   c5.2,5.09,9.87,10.68,14.11,16.55c-2.28-2.81-4.66-5.54-7.15-8.17c-2.48-2.63-5.02-5.2-7.73-7.58l-2-1.82   c-0.34-0.3-0.66-0.61-1-0.91l-1.04-0.86l-4.16-3.45l-4.32-3.24l-1.08-0.81l-1.12-0.76l-2.23-1.51l-2.23-1.52l-2.3-1.41l-2.3-1.41   l-1.15-0.7l-1.18-0.65l-4.72-2.58l-4.84-2.35c-6.51-3-13.22-5.56-20.09-7.57l-5.19-1.37c-0.86-0.25-1.74-0.42-2.61-0.61l-2.62-0.56   c-0.88-0.18-1.74-0.39-2.62-0.55l-2.65-0.44c-1.77-0.28-3.52-0.63-5.3-0.8c-7.08-0.98-14.25-1.23-21.39-1.06l-2.68,0.08l-1.34,0.04   l-1.34,0.1l-5.34,0.4l-5.31,0.66l-1.33,0.17c-0.44,0.07-0.88,0.15-1.32,0.23l-2.64,0.46l-2.64,0.46l-2.61,0.59l-2.61,0.59   l-1.31,0.29l-1.29,0.36l-5.16,1.44l-5.08,1.68c-6.74,2.35-13.3,5.2-19.61,8.52c-6.29,3.38-12.29,7.28-18.02,11.54   c-1.41,1.09-2.84,2.17-4.24,3.28l-4.08,3.48c-0.34,0.29-0.68,0.57-1.02,0.87l-0.98,0.92l-1.95,1.84l-1.95,1.84l-1.86,1.93   l-1.86,1.93l-0.93,0.96c-0.3,0.33-0.59,0.67-0.89,1.01l-3.54,4.03l-3.36,4.19l-0.84,1.05c-0.28,0.35-0.53,0.72-0.79,1.08   l-1.57,2.18c-8.38,11.62-14.83,24.61-19.29,38.28c-2.18,6.85-3.82,13.88-4.99,21l-0.78,5.36l-0.52,5.39l-0.14,1.35l-0.07,1.35   l-0.14,2.71l-0.14,2.71L63.6,183.12z" class="st0"></path>
	<path id="path67" d="M192.86,318.05l-2.71-0.13l-2.71-0.22l-2.71-0.22l-1.36-0.11l-1.35-0.17l-5.4-0.73l-5.36-0.99   c-7.13-1.45-14.14-3.46-20.99-5.98c-6.81-2.62-13.42-5.76-19.77-9.38c-1.57-0.94-3.15-1.86-4.71-2.81l-4.56-3.05   c-0.38-0.26-0.77-0.5-1.14-0.77l-1.1-0.82l-2.2-1.64c-0.73-0.55-1.48-1.08-2.2-1.64l-2.12-1.74l-2.12-1.74   c-0.35-0.29-0.71-0.57-1.05-0.88l-1.02-0.92c-1.35-1.23-2.72-2.45-4.07-3.7l-3.88-3.9c-0.32-0.33-0.65-0.65-0.96-0.98l-0.92-1.02   l-1.84-2.04l-1.84-2.04l-1.74-2.13l-1.74-2.13l-0.87-1.07c-0.28-0.36-0.55-0.74-0.82-1.1l-3.26-4.43   c-1.03-1.52-2.03-3.05-3.05-4.58l-0.76-1.15c-0.26-0.38-0.48-0.78-0.71-1.18l-1.4-2.37l-1.4-2.37c-0.45-0.8-0.86-1.62-1.29-2.43   l-1.28-2.44l-0.64-1.22c-0.21-0.41-0.39-0.83-0.59-1.24l-2.32-5c-2.9-6.75-5.29-13.72-7.15-20.82l-1.27-5.36l-1.01-5.42l-0.25-1.35   l-0.19-1.36l-0.37-2.73l-0.36-2.73l-0.24-2.74l-0.23-2.74c-0.04-0.46-0.08-0.91-0.11-1.37l-0.05-1.38l-0.2-5.5l0.07-5.51l0.02-1.38   l0.09-1.37l0.18-2.75c0.98-14.64,4.31-29.12,9.79-42.7c2.8-6.77,6.08-13.33,9.88-19.58l2.94-4.63l3.16-4.48l0.79-1.12l0.84-1.08   l1.69-2.16l1.69-2.16l1.79-2.07l1.8-2.06l0.9-1.03l0.95-0.99l3.79-3.94l3.97-3.75l0.99-0.94c0.34-0.31,0.69-0.59,1.03-0.89   l2.08-1.76c5.5-4.75,11.47-8.94,17.68-12.67c-3,2.04-5.91,4.18-8.73,6.44c-2.82,2.25-5.6,4.57-8.2,7.07l-1.98,1.84   c-0.33,0.31-0.66,0.61-0.99,0.92l-0.95,0.96l-3.79,3.86l-3.59,4.03l-0.9,1.01l-0.85,1.05l-1.69,2.1l-1.7,2.09l-1.6,2.17l-1.6,2.17   l-0.8,1.09l-0.74,1.12l-2.97,4.49l-2.74,4.63c-3.54,6.24-6.64,12.71-9.23,19.39l-1.8,5.06c-0.32,0.84-0.56,1.7-0.82,2.55   l-0.77,2.57c-0.25,0.86-0.54,1.71-0.77,2.57l-0.66,2.6c-0.43,1.74-0.92,3.46-1.24,5.22c-1.56,6.98-2.42,14.1-2.85,21.23l-0.14,2.68   l-0.07,1.34l-0.01,1.34l-0.05,5.36l0.22,5.35l0.05,1.34c0.03,0.44,0.08,0.89,0.12,1.33l0.24,2.67l0.24,2.67l0.37,2.65l0.37,2.65   l0.18,1.33l0.25,1.32l1,5.26l1.25,5.2c1.77,6.91,4.07,13.68,6.85,20.26c2.84,6.55,6.23,12.85,10,18.92c0.97,1.5,1.93,3.01,2.91,4.5   l3.12,4.36c0.26,0.36,0.52,0.73,0.79,1.09l0.83,1.05l1.67,2.1l1.67,2.1l1.77,2.02l1.77,2.02l0.88,1.01   c0.3,0.33,0.62,0.64,0.93,0.97l3.72,3.86l3.89,3.69l0.97,0.92c0.33,0.31,0.68,0.59,1.01,0.88l2.04,1.75   c10.88,9.32,23.29,16.84,36.53,22.43c6.65,2.75,13.51,4.97,20.51,6.73l5.27,1.22l5.33,0.97l1.33,0.25l1.34,0.18l2.69,0.37   l2.69,0.37L192.86,318.05z" class="st0"></path>
	<g id="g81">
		<path id="path69" d="M202,242.59c-1.06,0-1.95-0.61-2.34-1.59l-28.23-71.78c-0.64-1.62-2.02-2.85-3.7-3.3l-13.42-3.57    c-2.8-0.75-4.88-3.08-5.3-5.95c-0.04-0.24-3.75-24.35-4.45-30.36c-0.45-3.88,0.62-6.83,2.85-7.9c2.2-1.06,5.1-0.08,7.76,2.6    c5.49,5.53,23.24,23.56,23.41,23.74c1.7,1.72,4.06,2.71,6.49,2.71h33.85c2.42,0,4.79-0.99,6.49-2.71    c0.18-0.18,17.93-18.2,23.41-23.74c2.66-2.69,5.57-3.66,7.76-2.6c2.23,1.07,3.29,4.03,2.85,7.9c-0.69,6.01-4.41,30.12-4.45,30.36    c-0.42,2.87-2.5,5.2-5.3,5.95l-13.42,3.57c-1.68,0.45-3.06,1.68-3.7,3.3l-28.23,71.78C203.95,241.98,203.06,242.59,202,242.59z     M149.3,118.12c-0.61,0-1.18,0.12-1.71,0.38c-2.07,0.99-3.05,3.79-2.62,7.49c0.69,6,4.41,30.1,4.44,30.35    c0.4,2.71,2.36,4.92,5.01,5.62l13.42,3.57c1.8,0.48,3.29,1.8,3.97,3.54l28.23,71.78c0.32,0.82,1.08,1.34,1.96,1.34    s1.64-0.51,1.96-1.34l28.23-71.78c0.68-1.74,2.17-3.06,3.97-3.54l13.42-3.57c2.65-0.7,4.61-2.91,5.01-5.62    c0.04-0.24,3.75-24.34,4.44-30.35c0.43-3.7-0.55-6.5-2.62-7.49c-2.03-0.98-4.76-0.03-7.3,2.52c-5.49,5.53-23.23,23.55-23.41,23.74    c-1.78,1.8-4.25,2.83-6.77,2.83h-33.85c-2.53,0-5-1.03-6.77-2.83c-0.18-0.18-17.93-18.2-23.41-23.74    C153.01,119.13,151.02,118.12,149.3,118.12z" class="st4"></path>
		<path id="path71" d="M178.49,196.27L178.49,196.27c-1.48,0-3.63-1.01-4.78-1.61c-2.6-1.36-6.17-4.33-8.37-10.69    c-1.92-5.54-0.44-10.92,1.3-12.51c0.93-0.85,1.95-1.3,2.93-1.3c1.31,0,2.39,0.76,2.97,2.09c0.7,1.6,7.81,20.9,7.89,21.09    c0.39,1,0.15,1.68-0.12,2.08C180.04,195.8,179.51,196.27,178.49,196.27z M169.57,170.55c-0.88,0-1.8,0.41-2.66,1.2    c-1.67,1.52-3.06,6.7-1.2,12.08c2.16,6.24,5.64,9.14,8.18,10.47c1.12,0.58,3.2,1.57,4.59,1.57c0.85,0,1.28-0.37,1.49-0.67    c0.22-0.32,0.4-0.87,0.07-1.71c-0.07-0.2-7.2-19.51-7.88-21.08C171.66,171.22,170.71,170.55,169.57,170.55z" class="st4"></path>
		<path id="path73" d="M225.52,196.27c-1.03,0-1.56-0.46-1.82-0.85c-0.27-0.4-0.51-1.08-0.11-2.11c0.75-2.02,7.22-19.57,7.88-21.07    c0.58-1.33,1.66-2.09,2.97-2.09c0.99,0,2,0.45,2.93,1.3c1.75,1.6,3.22,6.97,1.3,12.51c-2.2,6.37-5.77,9.33-8.37,10.69    C229.15,195.26,227,196.27,225.52,196.27z M234.43,170.55c-1.14,0-2.09,0.67-2.6,1.85c-0.65,1.49-7.12,19.02-7.86,21.02    c-0.35,0.9-0.16,1.45,0.05,1.77c0.21,0.31,0.64,0.67,1.49,0.67c1.4,0,3.48-0.98,4.59-1.57c2.54-1.33,6.02-4.23,8.18-10.47    c1.86-5.38,0.47-10.56-1.19-12.08C236.23,170.96,235.31,170.55,234.43,170.55z" class="st4"></path>
		<path id="path75" d="M218.5,129.26h-33.26c-2.59,0-5.13-0.89-7.15-2.52L138.14,94.6c-1.19-0.96-1.84-2.39-1.78-3.91    c0.06-1.54,0.82-2.91,2.1-3.78c18.71-12.76,40.69-19.51,63.55-19.51c22.8,0,44.72,6.71,63.4,19.41c1.27,0.87,2.04,2.24,2.1,3.78    c0.06,1.53-0.59,2.96-1.78,3.92l-40.08,32.24C223.62,128.36,221.09,129.26,218.5,129.26z M202,67.93    c-22.75,0-44.62,6.71-63.25,19.42c-1.13,0.77-1.81,1.99-1.86,3.35c-0.05,1.36,0.52,2.62,1.58,3.47l39.95,32.14    c1.92,1.55,4.34,2.4,6.81,2.4h33.26c2.47,0,4.89-0.85,6.81-2.4l40.08-32.24c1.06-0.85,1.63-2.12,1.58-3.48    c-0.05-1.36-0.73-2.58-1.86-3.35C246.51,74.61,224.69,67.93,202,67.93z"></path>
		<path id="path77" d="M191.31,293.08c-0.17,0-0.34-0.01-0.51-0.02c-12.95-1.26-25.44-4.71-37.12-10.23c-11.72-5.54-22.37-13.06-31.66-22.35    c-21.36-21.36-33.13-49.77-33.13-79.98c0-29.17,11.06-56.84,31.13-77.93c1.32-1.37,3.22-1.83,4.99-1.23c1.77,0.6,3,2.13,3.21,4    l5.98,54.42c0.5,4.53-0.61,8.48-2.95,10.55l-19.84,18.67c-0.66,0.65-0.83,1.64-0.4,2.46c0.97,1.87,3.31,5.91,6.18,10.36    c2.91,4.51,6.09,9.16,7.73,11.53c0.71,1.02,1.67,1.84,2.8,2.37l20.94,9.85c3.11,1.46,5.81,3.7,7.83,6.48L195.38,285    c1.2,1.64,1.32,3.75,0.32,5.51C194.78,292.13,193.13,293.08,191.31,293.08z M123.47,101.62c-1.12,0-2.21,0.45-3.03,1.3    c-20,21.01-31,48.56-31,77.58c0,30.07,11.71,58.33,32.97,79.6c18.66,18.66,42.33,29.87,68.45,32.42c1.8,0.18,3.47-0.69,4.37-2.27    c0.9-1.58,0.79-3.46-0.28-4.93l-38.88-52.99c-1.96-2.71-4.6-4.89-7.62-6.31l-20.94-9.85c-1.21-0.57-2.25-1.45-3.01-2.55    c-1.64-2.38-4.83-7.03-7.74-11.55c-2.88-4.46-5.24-8.52-6.21-10.41c-0.54-1.04-0.33-2.28,0.51-3.1l19.85-18.67    c2.22-1.96,3.26-5.73,2.78-10.09l-5.98-54.42c-0.18-1.65-1.27-3.01-2.84-3.54C124.39,101.69,123.92,101.62,123.47,101.62z"></path>
		<path id="path79" d="M212.69,293.08c-1.82,0-3.46-0.95-4.38-2.56c-1-1.77-0.88-3.88,0.32-5.51l38.88-52.99c2.01-2.78,4.72-5.02,7.83-6.48    l20.94-9.85c1.13-0.53,2.09-1.35,2.8-2.37c1.64-2.37,4.82-7.03,7.73-11.53c2.87-4.45,5.22-8.49,6.18-10.36    c0.43-0.83,0.26-1.82-0.4-2.46l-19.84-18.67c-2.34-2.06-3.44-6.01-2.95-10.54l5.98-54.42c0.2-1.86,1.43-3.39,3.2-3.99    c1.76-0.61,3.66-0.15,4.96,1.18l0.08,0.09c20.05,21.09,31.1,48.75,31.1,77.9c0,30.21-11.77,58.62-33.13,79.98    c-9.29,9.29-19.94,16.81-31.66,22.35c-11.68,5.52-24.17,8.96-37.12,10.23C213.03,293.07,212.86,293.08,212.69,293.08z     M280.53,101.61c-0.46,0-0.93,0.08-1.39,0.23c-1.57,0.54-2.65,1.89-2.83,3.54l-5.98,54.42c-0.48,4.36,0.56,8.13,2.77,10.08    l19.85,18.68c0.84,0.82,1.05,2.07,0.51,3.1c-0.97,1.88-3.33,5.94-6.21,10.41c-2.91,4.51-6.1,9.17-7.74,11.55    c-0.76,1.1-1.8,1.98-3.01,2.55l-20.94,9.85c-3.02,1.42-5.66,3.6-7.62,6.31l-38.88,52.99c-1.07,1.46-1.18,3.35-0.28,4.93    c0.9,1.57,2.57,2.44,4.37,2.27c26.12-2.55,49.79-13.76,68.45-32.42c21.26-21.26,32.97-49.53,32.97-79.6    c0-29.01-10.99-56.54-30.95-77.52l-0.07-0.07C282.73,102.06,281.65,101.61,280.53,101.61z"></path>
	</g>
	<path id="path83" d="M201.93,284.74c-2.28,0-3.21-0.61-5.03-2.57c-1.38-1.49-6.25-10.29-8.28-14.01c-0.3-0.55-0.35-1.2-0.14-1.79   c0.21-0.58,0.66-1.06,1.23-1.29c2.4-0.99,6.48-2.15,12.23-2.11c5.76-0.04,9.82,1.13,12.23,2.11c0.57,0.24,1.02,0.71,1.23,1.29   c0.21,0.59,0.16,1.24-0.14,1.79c-2.03,3.71-6.9,12.51-8.28,14.01C205.15,284.13,204.21,284.74,201.93,284.74z M201.64,263.52   c-5.51,0-9.41,1.12-11.73,2.07c-0.43,0.18-0.77,0.53-0.92,0.97c-0.16,0.44-0.12,0.93,0.11,1.35c2.02,3.7,6.86,12.45,8.2,13.9   c1.73,1.86,2.54,2.4,4.64,2.4c2.09,0,2.91-0.54,4.64-2.4c1.34-1.45,6.18-10.2,8.2-13.9c0.23-0.41,0.27-0.9,0.11-1.35   c-0.16-0.44-0.49-0.79-0.92-0.97c-2.36-0.97-6.34-2.12-12.02-2.07C201.84,263.52,201.74,263.52,201.64,263.52z"></path>
	<radialGradient gradientUnits="userSpaceOnUse" r="395.0105" cy="0.1629" cx="60.1482" id="SVGID_4_">
		<stop id="stop85" style="stop-color:#A8A8A8" offset="0"></stop>
		<stop id="stop87" style="stop-color:#FFFFFF" offset="0.2034"></stop>
		<stop id="stop89" style="stop-color:#EEEEEE" offset="0.3049"></stop>
		<stop id="stop91" style="stop-color:#C0C1C2" offset="0.5074"></stop>
		<stop id="stop93" style="stop-color:#808285" offset="0.7568"></stop>
		<stop id="stop95" style="stop-color:#8D8E91" offset="0.8178"></stop>
		<stop id="stop97" style="stop-color:#AFAFB0" offset="0.9299"></stop>
		<stop id="stop99" style="stop-color:#C7C7C7" offset="1"></stop>
	</radialGradient>
	<path id="path102" d="M299.88,82.62C273.74,56.47,238.98,42.07,202,42.07s-71.74,14.4-97.88,40.54   c-26.15,26.15-40.54,60.91-40.54,97.88s14.4,71.74,40.54,97.88c26.15,26.15,60.91,40.54,97.88,40.54s71.74-14.4,97.88-40.54   c26.15-26.15,40.54-60.91,40.54-97.88S326.03,108.76,299.88,82.62z M138.6,87.13c18.55-12.65,40.45-19.47,63.4-19.47   c22.89,0,44.73,6.77,63.25,19.36c2.51,1.71,2.67,5.36,0.3,7.26l-40.08,32.24c-1.98,1.59-4.44,2.46-6.98,2.46H202h-16.77   c-2.54,0-5-0.87-6.98-2.46L138.3,94.39C135.94,92.48,136.09,88.84,138.6,87.13z M236.21,165.72c-1.75,0.47-3.17,1.73-3.83,3.42   l-28.23,71.78c-0.77,1.95-3.53,1.95-4.3,0l-28.23-71.78c-0.66-1.68-2.09-2.95-3.83-3.42l-13.42-3.57c-2.72-0.72-4.75-3-5.16-5.78   c0,0-3.75-24.28-4.45-30.35c-0.93-8.04,4.71-10.73,10.27-5.13c5.55,5.6,23.41,23.74,23.41,23.74c1.75,1.77,4.14,2.77,6.63,2.77H202   h16.93c2.49,0,4.88-1,6.63-2.77c0,0,17.86-18.14,23.41-23.74c5.55-5.6,11.19-2.91,10.27,5.13c-0.7,6.08-4.45,30.35-4.45,30.35   c-0.41,2.79-2.44,5.06-5.16,5.78L236.21,165.72z M238.48,183.9c-2.18,6.3-5.7,9.23-8.27,10.58c-1.13,0.59-3.25,1.59-4.69,1.59   c-0.94,0-1.42-0.41-1.66-0.76c-0.24-0.36-0.46-0.98-0.09-1.92c0.29-0.77,7.2-19.5,7.87-21.06c0.54-1.25,1.56-1.97,2.78-1.97   c0.93,0,1.9,0.43,2.8,1.25C238.93,173.16,240.36,178.43,238.48,183.9z M180.14,195.3c-0.24,0.35-0.72,0.76-1.66,0.76c0,0,0,0,0,0   c-1.44,0-3.55-1-4.69-1.59c-2.57-1.35-6.09-4.28-8.27-10.58c-1.89-5.46-0.46-10.74,1.25-12.3c0.89-0.82,1.86-1.25,2.8-1.25   c1.22,0,2.24,0.72,2.78,1.97c0.68,1.56,7.59,20.29,7.88,21.08C180.6,194.32,180.38,194.94,180.14,195.3z M190.83,292.79   c-25.92-2.53-49.96-13.84-68.61-32.5c-21.31-21.31-33.05-49.65-33.05-79.79c0-29.19,11.01-56.68,31.06-77.75   c0.01-0.01,0.01-0.01,0.02-0.02c2.64-2.75,7.3-1.16,7.71,2.63l5.98,54.42c0.48,4.39-0.58,8.3-2.86,10.32l-19.85,18.67   c-0.75,0.73-0.93,1.86-0.46,2.78c1.03,2,3.44,6.11,6.2,10.38c2.92,4.51,6.09,9.16,7.74,11.54c0.73,1.06,1.74,1.91,2.9,2.46   l20.94,9.85c3.07,1.45,5.73,3.65,7.73,6.4l38.88,52.99C197.61,288.51,194.95,293.19,190.83,292.79z M201.93,284.47   c-2.22,0-3.09-0.6-4.84-2.49c-1.36-1.46-6.17-10.16-8.24-13.95c-0.55-1-0.11-2.26,0.95-2.7c2.2-0.9,6.28-2.13,12.13-2.09   c5.84-0.04,9.93,1.19,12.13,2.09c1.06,0.43,1.5,1.69,0.95,2.7c-2.07,3.79-6.88,12.49-8.24,13.95   C205.02,283.87,204.15,284.47,201.93,284.47z M281.79,260.29c-18.66,18.66-42.69,29.97-68.61,32.5c-4.13,0.4-6.79-4.28-4.33-7.62   l38.88-52.99c1.99-2.75,4.65-4.95,7.73-6.4l20.94-9.85c1.17-0.55,2.17-1.4,2.9-2.46c1.64-2.38,4.82-7.03,7.74-11.54   c2.76-4.27,5.17-8.38,6.2-10.38c0.48-0.93,0.29-2.06-0.46-2.78l-19.85-18.67c-2.28-2.01-3.34-5.93-2.86-10.32l5.98-54.42   c0.41-3.78,5.04-5.38,7.69-2.65c0.03,0.03,0.06,0.06,0.08,0.08c20.03,21.06,31.02,48.54,31.02,77.71   C314.84,210.64,303.1,238.98,281.79,260.29z" class="st5"></path>
	<linearGradient y2="72.2677" x2="140.7276" y1="100.0739" x1="246.7135" gradientUnits="userSpaceOnUse" id="SVGID_5_">
		<stop id="stop104" style="stop-color:#595959" offset="0"></stop>
		<stop id="stop106" style="stop-color:#474747" offset="0.0191"></stop>
		<stop id="stop108" style="stop-color:#2D2D2D" offset="0.052"></stop>
		<stop id="stop110" style="stop-color:#191919" offset="0.0886"></stop>
		<stop id="stop112" style="stop-color:#0B0B0B" offset="0.1301"></stop>
		<stop id="stop114" style="stop-color:#020202" offset="0.1809"></stop>
		<stop id="stop116" style="stop-color:#000000" offset="0.2676"></stop>
		<stop id="stop118" style="stop-color:#000000" offset="1"></stop>
	</linearGradient>
	<path id="path121" d="M144.48,95.74c-1.78-1.46-1.55-4.22,0.39-5.46c16.94-10.79,36.55-16.51,57.12-16.51   c20.51,0,40.13,5.65,57.04,16.38c0.43,0.27,0.77,0.62,1.02,1.02l6.07-3.28c-0.22-0.22-0.45-0.44-0.73-0.62   c-18.52-12.59-39.85-19.54-62.73-19.54c-22.95,0-45.66,6.65-64.21,19.3c-2.51,1.71-2.66,5.36-0.3,7.26l3.38,2.72l4.16-0.26   L144.48,95.74z" class="st6"></path>
	<radialGradient gradientUnits="userSpaceOnUse" r="200.5861" cy="82.3806" cx="151.4347" id="SVGID_6_">
		<stop id="stop123" style="stop-color:#FFFFFF" offset="0"></stop>
		<stop id="stop125" style="stop-color:#FCFCFC" offset="0.2222"></stop>
		<stop id="stop127" style="stop-color:#F4F4F4" offset="0.3582"></stop>
		<stop id="stop129" style="stop-color:#E6E6E6" offset="0.471"></stop>
		<stop id="stop131" style="stop-color:#D1D1D1" offset="0.5711"></stop>
		<stop id="stop133" style="stop-color:#B7B7B7" offset="0.6628"></stop>
		<stop id="stop135" style="stop-color:#969696" offset="0.7485"></stop>
		<stop id="stop137" style="stop-color:#6F6F6F" offset="0.8294"></stop>
		<stop id="stop139" style="stop-color:#424242" offset="0.9066"></stop>
		<stop id="stop141" style="stop-color:#111111" offset="0.9782"></stop>
		<stop id="stop143" style="stop-color:#000000" offset="1"></stop>
	</radialGradient>
	<path id="path146" d="M185.28,128.89h16.77h16.5c2.54,0,5-0.87,6.98-2.46l40.08-32.24c2.11-1.7,2.14-4.77,0.63-6.33l-6.1,3.27   c0.9,1.39,0.65,3.63-1.31,5.14l-34.67,28.32c-1.55,1.27-4.26,1.87-6.27,1.87h-16.77h-16.77c-2.01,0-3.43-0.7-4.98-1.97   l-33.87-27.75l-3.75,0.26l36.57,29.42C180.28,128.02,182.74,128.89,185.28,128.89z" class="st7"></path>
	<linearGradient y2="95.1197" x2="122.4611" y1="157.1799" x1="242.8202" gradientUnits="userSpaceOnUse" id="SVGID_7_">
		<stop id="stop148" style="stop-color:#808080" offset="0"></stop>
		<stop id="stop150" style="stop-color:#000000" offset="0.7973"></stop>
	</linearGradient>
	<path id="path153" d="M151.13,151.53L147,123.63c-0.41-2.77,2.96-4.46,4.94-2.48l25.49,25.56c2.14,2.15,5.05,3.35,8.08,3.35h16.62   h16.62c3.03,0,5.94-1.21,8.08-3.35l25.49-25.56c1.98-1.99,5.35-0.3,4.94,2.48l-0.5,3.4l2.71-2.62c0.04-6.77-5.2-8.74-10.36-3.53   c-5.55,5.6-23.41,23.74-23.41,23.74c-1.75,1.77-4.14,2.77-6.63,2.77h-16.93h-16.93c-2.49,0-4.88-1-6.63-2.77   c0,0-17.86-18.14-23.41-23.74c-5.55-5.6-11.19-2.91-10.27,5.13c0.59,5.16,3.38,23.43,4.21,28.84l3.14-0.5   C151.67,153.52,151.28,152.56,151.13,151.53z" class="st8"></path>
	<radialGradient gradientUnits="userSpaceOnUse" r="171.6368" cy="99.077" cx="143.1085" id="SVGID_8_">
		<stop id="stop155" style="stop-color:#FFFFFF" offset="0"></stop>
		<stop id="stop157" style="stop-color:#FCFCFC" offset="0.2222"></stop>
		<stop id="stop159" style="stop-color:#F4F4F4" offset="0.3582"></stop>
		<stop id="stop161" style="stop-color:#E6E6E6" offset="0.471"></stop>
		<stop id="stop163" style="stop-color:#D1D1D1" offset="0.5711"></stop>
		<stop id="stop165" style="stop-color:#B7B7B7" offset="0.6628"></stop>
		<stop id="stop167" style="stop-color:#969696" offset="0.7485"></stop>
		<stop id="stop169" style="stop-color:#6F6F6F" offset="0.8294"></stop>
		<stop id="stop171" style="stop-color:#424242" offset="0.9066"></stop>
		<stop id="stop173" style="stop-color:#111111" offset="0.9782"></stop>
		<stop id="stop175" style="stop-color:#000000" offset="1"></stop>
	</radialGradient>
	<path id="path178" d="M256.49,127.03l-3.62,24.49c-0.39,2.61-2.27,4.74-4.82,5.44l-14.93,4.11c-2.49,0.69-4.51,2.51-5.44,4.92   l5.12,2.08c0.76-1.15,1.92-2,3.27-2.36l13.42-3.57c2.72-0.72,4.75-3,5.16-5.78c0,0,3.75-24.28,4.45-30.35   c0.06-0.56,0.09-1.09,0.1-1.6L256.49,127.03z" class="st9"></path>
	<radialGradient gradientUnits="userSpaceOnUse" r="192.2486" cy="91.0982" cx="143.2093" id="SVGID_9_">
		<stop id="stop180" style="stop-color:#FFFFFF" offset="0"></stop>
		<stop id="stop182" style="stop-color:#FCFCFC" offset="0.2222"></stop>
		<stop id="stop184" style="stop-color:#F4F4F4" offset="0.3582"></stop>
		<stop id="stop186" style="stop-color:#E6E6E6" offset="0.471"></stop>
		<stop id="stop188" style="stop-color:#D1D1D1" offset="0.5711"></stop>
		<stop id="stop190" style="stop-color:#B7B7B7" offset="0.6628"></stop>
		<stop id="stop192" style="stop-color:#969696" offset="0.7485"></stop>
		<stop id="stop194" style="stop-color:#6F6F6F" offset="0.8294"></stop>
		<stop id="stop196" style="stop-color:#424242" offset="0.9066"></stop>
		<stop id="stop198" style="stop-color:#111111" offset="0.9782"></stop>
		<stop id="stop200" style="stop-color:#000000" offset="1"></stop>
	</radialGradient>
	<path id="path203" d="M176.14,165.99c-0.93-2.41-2.95-4.23-5.44-4.92l-14.93-4.11c-1.53-0.42-2.83-1.37-3.7-2.62l-3.14,0.5   c0.15,0.96,0.23,1.52,0.23,1.52c0.41,2.79,2.44,5.06,5.16,5.78l13.42,3.57c1.75,0.47,3.17,1.73,3.83,3.42l2.41,6.05l3.36-6.05   L176.14,165.99z" class="st10"></path>
	<radialGradient gradientUnits="userSpaceOnUse" r="82.6867" cy="156.5222" cx="182.0837" id="SVGID_10_">
		<stop id="stop205" style="stop-color:#E0E0E0" offset="0"></stop>
		<stop id="stop207" style="stop-color:#121212" offset="0.7568"></stop>
	</radialGradient>
	<polygon id="polygon210" points="177.36,169.14 174,175.19 198.55,237.71 200.08,227.99  " class="st11"></polygon>
	<radialGradient gradientUnits="userSpaceOnUse" r="171.6368" cy="99.077" cx="143.2428" id="SVGID_11_">
		<stop id="stop212" style="stop-color:#FFFFFF" offset="0"></stop>
		<stop id="stop214" style="stop-color:#FBFBFB" offset="0.2563"></stop>
		<stop id="stop216" style="stop-color:#EDEDED" offset="0.5359"></stop>
		<stop id="stop218" style="stop-color:#D8D8D8" offset="0.8256"></stop>
		<stop id="stop220" style="stop-color:#C7C7C7" offset="1"></stop>
	</radialGradient>
	<path id="path223" d="M227.82,165.99l-24.54,63.56c-0.45,1.18-2.12,1.18-2.57,0l-0.6-1.56l-1.52,9.72l1.26,3.21   c0.77,1.95,3.53,1.95,4.3,0l28.23-71.78c0.15-0.38,0.34-0.73,0.56-1.06L227.82,165.99z" class="st12"></path>
	<path id="path225" d="M237.1,165.49l-3.95-4.38c-2.44,0.71-4.41,2.51-5.33,4.89l5.12,2.08c0.76-1.15,1.92-2,3.27-2.36L237.1,165.49z   " class="st0"></path>
	<linearGradient y2="237.6962" x2="198.979" y1="234.2036" x1="206.2327" gradientUnits="userSpaceOnUse" id="SVGID_12_">
		<stop id="stop227" style="stop-color:#FFFFFF" offset="0"></stop>
		<stop id="stop229" style="stop-color:#BABABA" offset="0.9838"></stop>
	</linearGradient>
	<path id="path232" d="M203.64,228.98l-0.22,0.58c-0.31,0.81-1.2,1.06-1.87,0.75l-1.79,10.04l0.23,0.58c0.77,1.95,3.53,1.95,4.3,0   l1.91-4.85L203.64,228.98z" class="st13"></path>
	<path id="path234" d="M252.87,151.53c-0.39,2.61-2.27,4.74-4.82,5.44l-0.56,0.15l2.79,4.76c2.32-0.92,4.01-3.01,4.37-5.52   c0,0,0.23-1.48,0.58-3.81L252.87,151.53z" class="st0"></path>
	<linearGradient y2="103.7114" x2="96.6567" y1="301.9716" x1="161.3331" gradientUnits="userSpaceOnUse" id="SVGID_13_">
		<stop id="stop236" style="stop-color:#FFFFFF" offset="0"></stop>
		<stop id="stop238" style="stop-color:#FFFFFF" offset="0.2027"></stop>
		<stop id="stop240" style="stop-color:#FDFDFD" offset="0.3195"></stop>
		<stop id="stop242" style="stop-color:#F6F6F6" offset="0.3616"></stop>
		<stop id="stop244" style="stop-color:#EBEBEB" offset="0.3916"></stop>
		<stop id="stop246" style="stop-color:#DADADA" offset="0.4159"></stop>
		<stop id="stop248" style="stop-color:#C4C4C4" offset="0.4367"></stop>
		<stop id="stop250" style="stop-color:#A8A8A8" offset="0.4551"></stop>
		<stop id="stop252" style="stop-color:#888888" offset="0.4717"></stop>
		<stop id="stop254" style="stop-color:#626262" offset="0.487"></stop>
		<stop id="stop256" style="stop-color:#373737" offset="0.5013"></stop>
		<stop id="stop258" style="stop-color:#090909" offset="0.5139"></stop>
		<stop id="stop260" style="stop-color:#000000" offset="0.5162"></stop>
		<stop id="stop262" style="stop-color:#000000" offset="1"></stop>
	</linearGradient>
	<path id="path265" d="M190.3,285.92c-0.41,0.36-0.96,0.56-1.59,0.48c-23.47-2.9-45.18-13.45-62.17-30.44   c-20.16-20.16-31.26-46.96-31.26-75.47c0-26.21,9.39-50.98,26.57-70.47c1.39-1.58,3.99-0.77,4.21,1.32l0.04,0.37l2.36-1.83   l-0.5-4.54c-0.42-3.79-5.07-5.38-7.71-2.63c-0.01,0.01-0.01,0.01-0.02,0.02c-20.05,21.06-31.06,48.56-31.06,77.75   c0,30.14,11.74,58.48,33.05,79.79c18.66,18.66,42.69,29.97,68.61,32.5c2.36,0.23,4.24-1.2,4.96-3.1L190.3,285.92z" class="st14"></path>
	<path id="path267" d="M89.16,180.5c0.61,13.84,3.42,27.48,8.55,40.2c2.58,6.34,5.66,12.48,9.32,18.26   c3.63,5.79,7.76,11.27,12.37,16.33l3.53,3.72c1.2,1.21,2.45,2.38,3.68,3.57l3.84,3.4c1.33,1.07,2.65,2.16,3.99,3.22l2.05,1.54   c0.69,0.51,1.35,1.05,2.07,1.52l2.11,1.45l1.06,0.73c0.36,0.24,0.72,0.46,1.08,0.69l2.18,1.36c0.36,0.22,0.72,0.46,1.09,0.67   l1.12,0.64c1.48,0.85,2.96,1.73,4.49,2.49c12.14,6.37,25.43,10.55,39.15,12.49c-13.84-0.77-27.58-4.4-40.14-10.53   c-6.3-3.03-12.27-6.75-17.88-10.93c-5.6-4.21-10.76-8.99-15.5-14.15c-4.68-5.21-8.91-10.84-12.54-16.82   c-3.61-6-6.71-12.31-9.1-18.87C90.83,208.38,88.6,194.34,89.16,180.5z" class="st0"></path>
	<path id="path269" d="M124.04,217.18l23.84,11.27c2.39,1.13,4.47,2.84,6.04,4.97l0.08,0.11l2.05-1.64c-1.97-2.61-4.54-4.71-7.5-6.1   l-20.94-9.85c-0.39-0.18-0.75-0.4-1.1-0.64l-3.46,1.35C123.37,216.84,123.7,217.02,124.04,217.18z" class="st15"></path>
	<radialGradient gradientUnits="userSpaceOnUse" r="76.4399" cy="166.9999" cx="138.0592" id="SVGID_14_">
		<stop id="stop271" style="stop-color:#A8A8A8" offset="0"></stop>
		<stop id="stop273" style="stop-color:#121212" offset="1"></stop>
	</radialGradient>
	<path id="path276" d="M131.32,160.16c0.04,0.4,0.06,0.79,0.06,1.19l2.65-0.4c-0.02-0.39-0.05-0.78-0.09-1.18l-5.48-49.87   l-2.36,1.83L131.32,160.16z" class="st16"></path>
	<radialGradient gradientUnits="userSpaceOnUse" r="228.559" cy="72.359" cx="87.8409" id="SVGID_15_">
		<stop id="stop278" style="stop-color:#A8A8A8" offset="0"></stop>
		<stop id="stop280" style="stop-color:#121212" offset="0.7568"></stop>
		<stop id="stop282" style="stop-color:#161616" offset="0.789"></stop>
		<stop id="stop284" style="stop-color:#242424" offset="0.8254"></stop>
		<stop id="stop286" style="stop-color:#3B3B3B" offset="0.8638"></stop>
		<stop id="stop288" style="stop-color:#5A5A5A" offset="0.9036"></stop>
		<stop id="stop290" style="stop-color:#838383" offset="0.9445"></stop>
		<stop id="stop292" style="stop-color:#B4B4B4" offset="0.9858"></stop>
		<stop id="stop294" style="stop-color:#C7C7C7" offset="1"></stop>
	</radialGradient>
	<path id="path297" d="M107.21,193.17c1.17,2.15,3.3,5.88,6.53,11c3.21,5.08,5.58,8.42,6.96,10.28c0.65,0.87,1.44,1.61,2.35,2.18   l3.46-1.35c-0.7-0.49-1.32-1.11-1.81-1.82c-1.64-2.38-4.82-7.03-7.74-11.54c-2.76-4.27-5.17-8.38-6.2-10.38   c-0.27-0.53-0.32-1.12-0.18-1.67l-3.46,0.4C106.71,191.18,106.71,192.26,107.21,193.17z" class="st17"></path>
	<linearGradient y2="260.7883" x2="196.0976" y1="260.7883" x1="154.0044" gradientUnits="userSpaceOnUse" id="SVGID_16_">
		<stop id="stop299" style="stop-color:#808080" offset="0"></stop>
		<stop id="stop301" style="stop-color:#000000" offset="0.7973"></stop>
	</linearGradient>
	<path id="path304" d="M190.62,283.11c0.7,0.95,0.44,2.15-0.32,2.81l5.48,3.77c0.54-1.42,0.43-3.09-0.62-4.53l-38.88-52.99   c-0.07-0.1-0.15-0.19-0.23-0.29l-2.05,1.64L190.62,283.11z" class="st18"></path>
	<radialGradient gradientUnits="userSpaceOnUse" r="228.559" cy="72.359" cx="87.8409" id="SVGID_17_">
		<stop id="stop306" style="stop-color:#FFFFFF" offset="0"></stop>
		<stop id="stop308" style="stop-color:#FCFCFC" offset="0.2222"></stop>
		<stop id="stop310" style="stop-color:#F4F4F4" offset="0.3582"></stop>
		<stop id="stop312" style="stop-color:#E6E6E6" offset="0.471"></stop>
		<stop id="stop314" style="stop-color:#D1D1D1" offset="0.5711"></stop>
		<stop id="stop316" style="stop-color:#B7B7B7" offset="0.6628"></stop>
		<stop id="stop318" style="stop-color:#969696" offset="0.7485"></stop>
		<stop id="stop320" style="stop-color:#6F6F6F" offset="0.8294"></stop>
		<stop id="stop322" style="stop-color:#424242" offset="0.9066"></stop>
		<stop id="stop324" style="stop-color:#111111" offset="0.9782"></stop>
		<stop id="stop326" style="stop-color:#000000" offset="1"></stop>
	</radialGradient>
	<path id="path329" d="M128.15,169.09l-20.39,20.28c-0.27,0.27-0.48,0.58-0.63,0.9l3.46-0.4c0.11-0.41,0.32-0.8,0.64-1.12   l19.85-18.67c2.08-1.83,3.14-5.23,2.95-9.13l-2.65,0.4C131.37,164.24,130.23,167.03,128.15,169.09z" class="st19"></path>
	<linearGradient y2="129.8961" x2="286.3244" y1="129.8961" x1="270.2963" gradientUnits="userSpaceOnUse" id="SVGID_18_">
		<stop id="stop331" style="stop-color:#808080" offset="0"></stop>
		<stop id="stop333" style="stop-color:#000000" offset="0.7973"></stop>
	</linearGradient>
	<path id="path336" d="M278.01,111.43c0.23-2.09,2.82-2.9,4.21-1.32c0.18,0.21,0.36,0.42,0.54,0.62c0.69-1.02,2.04-3,3.57-5.21   c-0.8-0.9-1.61-1.79-2.45-2.66c-0.02-0.02-0.05-0.05-0.08-0.08c-2.65-2.72-7.27-1.12-7.69,2.65l-5.81,52.91l2.65,0.05   L278.01,111.43z" class="st20"></path>
	<linearGradient y2="71.8666" x2="181.0275" y1="279.8085" x1="295.4762" gradientUnits="userSpaceOnUse" id="SVGID_19_">
		<stop id="stop338" style="stop-color:#FFFFFF" offset="0"></stop>
		<stop id="stop340" style="stop-color:#FFFFFF" offset="0.2158"></stop>
		<stop id="stop342" style="stop-color:#FFFFFF" offset="0.2514"></stop>
		<stop id="stop344" style="stop-color:#FDFDFD" offset="0.3501"></stop>
		<stop id="stop346" style="stop-color:#F6F6F6" offset="0.3856"></stop>
		<stop id="stop348" style="stop-color:#EBEBEB" offset="0.411"></stop>
		<stop id="stop350" style="stop-color:#DADADA" offset="0.4315"></stop>
		<stop id="stop352" style="stop-color:#C4C4C4" offset="0.449"></stop>
		<stop id="stop354" style="stop-color:#A8A8A8" offset="0.4646"></stop>
		<stop id="stop356" style="stop-color:#888888" offset="0.4786"></stop>
		<stop id="stop358" style="stop-color:#626262" offset="0.4916"></stop>
		<stop id="stop360" style="stop-color:#373737" offset="0.5036"></stop>
		<stop id="stop362" style="stop-color:#090909" offset="0.5143"></stop>
		<stop id="stop364" style="stop-color:#000000" offset="0.5162"></stop>
		<stop id="stop366" style="stop-color:#000000" offset="1"></stop>
	</linearGradient>
	<path id="path369" d="M286.26,105.45c-1.52,2.2-2.88,4.18-3.57,5.21c16.84,19.39,26.04,43.91,26.04,69.84   c0,28.51-11.1,55.31-31.26,75.46c-16.99,16.99-38.7,27.54-62.17,30.44c-0.34,0.04-0.66,0-0.95-0.1l-1.75,6.5   c0.19,0,0.38,0,0.58-0.02c25.92-2.53,49.96-13.84,68.61-32.5c21.31-21.31,33.05-49.65,33.05-79.79   C314.84,152.54,304.73,126.14,286.26,105.45z" class="st21"></path>
	<path id="path371" d="M213.13,292.81c20.6-2.39,40.34-10.47,56.59-23.02c1.04-0.75,2-1.61,3-2.41l1.48-1.22   c0.49-0.42,0.96-0.85,1.44-1.28l1.43-1.28c0.48-0.43,0.96-0.85,1.41-1.3l2.76-2.68c0.9-0.92,1.76-1.86,2.64-2.79l1.32-1.4   l1.25-1.46c0.83-0.98,1.67-1.95,2.49-2.93l2.35-3.04c0.38-0.51,0.8-1,1.16-1.53l1.1-1.57l1.1-1.57c0.37-0.52,0.74-1.04,1.07-1.59   l2.05-3.25l0.51-0.81l0.47-0.84l0.94-1.67c1.31-2.2,2.39-4.53,3.55-6.81c0.54-1.16,1.04-2.34,1.56-3.51   c0.26-0.59,0.52-1.17,0.77-1.76l0.69-1.79c1.94-4.74,3.39-9.66,4.64-14.62l0.85-3.74c0.16-0.62,0.24-1.26,0.36-1.89l0.33-1.89   l0.33-1.89c0.1-0.63,0.16-1.27,0.25-1.9l0.48-3.81l0.31-3.83c0.04-0.64,0.12-1.28,0.14-1.92l0.06-1.92c0.03-1.28,0.1-2.56,0.1-3.84   l-0.06-3.84c-0.01-0.32,0-0.64-0.02-0.96l-0.06-0.96l-0.12-1.92l-0.12-1.92c-0.05-0.64-0.13-1.27-0.19-1.91   c-0.14-1.27-0.24-2.55-0.41-3.83l-0.57-3.81c-0.87-5.06-2.02-10.07-3.54-14.98c-1.54-4.9-3.38-9.72-5.55-14.39   c-2.19-4.66-4.69-9.18-7.45-13.55c-1.45-2.14-2.84-4.32-4.42-6.37c-1.49-2.12-3.17-4.09-4.79-6.12c1.72,1.93,3.51,3.82,5.12,5.86   c1.68,1.98,3.18,4.11,4.74,6.19c2.97,4.27,5.65,8.75,8.05,13.38c2.34,4.66,4.34,9.49,6.06,14.43l1.19,3.73   c0.21,0.62,0.36,1.26,0.53,1.89l0.51,1.89l0.5,1.9l0.42,1.92l0.42,1.92c0.14,0.64,0.28,1.28,0.38,1.92   c0.99,5.14,1.53,10.36,1.79,15.59l0.11,3.93c0.02,1.31-0.03,2.62-0.05,3.93l-0.04,1.97c-0.02,0.65-0.08,1.31-0.12,1.96l-0.26,3.92   l-0.46,3.91c-0.08,0.65-0.15,1.3-0.25,1.95l-0.33,1.94l-0.33,1.94c-0.12,0.64-0.2,1.3-0.36,1.93l-0.85,3.84   c-1.26,5.09-2.73,10.14-4.7,15.01l-0.71,1.83c-0.26,0.6-0.53,1.2-0.8,1.8c-0.54,1.2-1.06,2.4-1.61,3.59   c-1.2,2.33-2.32,4.71-3.67,6.96l-0.97,1.71l-0.49,0.85l-0.53,0.83l-2.11,3.32c-0.34,0.56-0.73,1.09-1.11,1.63l-1.14,1.61l-1.14,1.6   c-0.37,0.54-0.8,1.04-1.2,1.55l-2.44,3.08c-0.85,1-1.72,1.98-2.58,2.96l-1.3,1.48l-1.36,1.41c-0.91,0.94-1.81,1.89-2.74,2.82   c-3.74,3.67-7.75,7.06-11.94,10.18C254.24,284,233.86,291.59,213.13,292.81z" class="st0"></path>
	<radialGradient gradientUnits="userSpaceOnUse" r="228.5609" cy="72.357" cx="206.5778" id="SVGID_20_">
		<stop id="stop373" style="stop-color:#E0E0E0" offset="0"></stop>
		<stop id="stop375" style="stop-color:#121212" offset="0.7568"></stop>
	</radialGradient>
	<path id="path378" d="M272.68,160.16l0.2-1.85l-2.65-0.05l-0.17,1.51c-0.42,3.84,0.34,7.3,2.06,9.46l3.51-0.37   C273.42,166.54,272.34,163.36,272.68,160.16z" class="st22"></path>
	<linearGradient y2="252.6779" x2="282.7664" y1="252.6779" x1="207.9011" gradientUnits="userSpaceOnUse" id="SVGID_21_">
		<stop id="stop380" style="stop-color:#808080" offset="0"></stop>
		<stop id="stop382" style="stop-color:#000000" offset="0.7973"></stop>
	</linearGradient>
	<path id="path385" d="M213.38,283.11l36.69-49.69c1.57-2.13,3.65-3.84,6.04-4.97l23.84-11.27c1.07-0.5,2.02-1.22,2.81-2.09   l-2.84-2.54c-0.23,0.33-0.44,0.64-0.63,0.92c-0.73,1.06-1.74,1.91-2.9,2.46l-20.94,9.85c-3.07,1.45-5.73,3.65-7.73,6.4   l-38.88,52.99c-2.34,3.19-0.04,7.58,3.75,7.64l1.75-6.5C213.12,285.87,212.51,284.29,213.38,283.11z" class="st23"></path>
	<radialGradient gradientUnits="userSpaceOnUse" r="228.5609" cy="72.357" cx="206.5778" id="SVGID_22_">
		<stop id="stop387" style="stop-color:#A8A8A8" offset="0"></stop>
		<stop id="stop389" style="stop-color:#FFFFFF" offset="0.2351"></stop>
		<stop id="stop391" style="stop-color:#121212" offset="0.7568"></stop>
		<stop id="stop393" style="stop-color:#161616" offset="0.789"></stop>
		<stop id="stop395" style="stop-color:#242424" offset="0.8254"></stop>
		<stop id="stop397" style="stop-color:#3B3B3B" offset="0.8638"></stop>
		<stop id="stop399" style="stop-color:#5A5A5A" offset="0.9036"></stop>
		<stop id="stop401" style="stop-color:#838383" offset="0.9445"></stop>
		<stop id="stop403" style="stop-color:#B4B4B4" offset="0.9858"></stop>
		<stop id="stop405" style="stop-color:#C7C7C7" offset="1"></stop>
	</radialGradient>
	<path id="path408" d="M283.29,214.45c1.38-1.86,3.75-5.19,6.96-10.28c3.23-5.12,5.36-8.86,6.53-11c0.34-0.62,0.45-1.31,0.36-1.98   l-3.69-0.33c-0.04,0.23-0.11,0.46-0.23,0.68c-1.03,2-3.44,6.11-6.2,10.38c-2.58,3.99-5.36,8.08-7.11,10.62l2.84,2.54   C282.95,214.89,283.13,214.68,283.29,214.45z" class="st24"></path>
	<radialGradient gradientUnits="userSpaceOnUse" r="228.5609" cy="72.357" cx="206.5778" id="SVGID_23_">
		<stop id="stop410" style="stop-color:#FFFFFF" offset="0"></stop>
		<stop id="stop412" style="stop-color:#FCFCFC" offset="0.2222"></stop>
		<stop id="stop414" style="stop-color:#F4F4F4" offset="0.3582"></stop>
		<stop id="stop416" style="stop-color:#E6E6E6" offset="0.471"></stop>
		<stop id="stop418" style="stop-color:#D1D1D1" offset="0.5711"></stop>
		<stop id="stop420" style="stop-color:#B7B7B7" offset="0.6628"></stop>
		<stop id="stop422" style="stop-color:#969696" offset="0.7485"></stop>
		<stop id="stop424" style="stop-color:#6F6F6F" offset="0.8294"></stop>
		<stop id="stop426" style="stop-color:#424242" offset="0.9066"></stop>
		<stop id="stop428" style="stop-color:#111111" offset="0.9782"></stop>
		<stop id="stop430" style="stop-color:#000000" offset="1"></stop>
	</radialGradient>
	<path id="path433" d="M296.23,189.38l-20.39-20.28c-0.07-0.07-0.14-0.15-0.22-0.23l-3.51,0.37c0.25,0.31,0.52,0.6,0.81,0.85   l19.85,18.67c0.57,0.56,0.81,1.35,0.68,2.1l3.69,0.33C297.05,190.52,296.74,189.88,296.23,189.38z" class="st25"></path>
	<path id="path435" d="M206.77,281.99c1.36-1.46,6.17-10.16,8.24-13.95c0.22-0.4,0.28-0.83,0.21-1.24l-2.16,0.85   c-0.02,0.06-0.04,0.12-0.07,0.18c-4.7,8.55-7.08,12.37-7.69,13.03c-1.5,1.62-1.91,1.84-3.08,1.87l0.41,1.73   C204.35,284.32,205.22,283.66,206.77,281.99z" class="st0"></path>
	<path id="path437" d="M190.88,267.83c-0.28-0.51-0.03-1.14,0.51-1.32c2.34-0.78,5.73-1.51,10.23-1.51h0.63   c4.49,0,7.89,0.74,10.23,1.51c0.48,0.16,0.73,0.68,0.59,1.14l2.16-0.85c-0.1-0.63-0.52-1.2-1.16-1.46   c-2.2-0.9-6.28-2.13-12.13-2.09c-5.84-0.04-9.93,1.19-12.13,2.09c-1.06,0.43-1.5,1.69-0.95,2.7c0.11,0.19,0.22,0.4,0.34,0.62   l2.26,0.21C191.26,268.53,191.07,268.18,190.88,267.83z" class="st15"></path>
	<radialGradient gradientUnits="userSpaceOnUse" r="29.0207" cy="196.2165" cx="178.4252" id="SVGID_24_">
		<stop id="stop439" style="stop-color:#FFFFFF" offset="0"></stop>
		<stop id="stop441" style="stop-color:#FAFAFA" offset="0.1286"></stop>
		<stop id="stop443" style="stop-color:#EDECEC" offset="0.2763"></stop>
		<stop id="stop445" style="stop-color:#D7D6D6" offset="0.4297"></stop>
		<stop id="stop447" style="stop-color:#CDCBCB" offset="0.4776"></stop>
		<stop id="stop449" style="stop-color:#B0AFAF" offset="0.5609"></stop>
		<stop id="stop451" style="stop-color:#838081" offset="0.6697"></stop>
		<stop id="stop453" style="stop-color:#454142" offset="0.7986"></stop>
		<stop id="stop455" style="stop-color:#3A3637" offset="0.8189"></stop>
		<stop id="stop457" style="stop-color:#000000" offset="1"></stop>
	</radialGradient>
	<path id="path460" d="M178.97,194.83c-0.73,0.33-2.67-0.33-4.64-1.37c-2.82-1.48-5.84-4.5-7.72-9.94   c-1.84-5.32-0.25-9.99,0.94-11.08c1.28-1.17,2.56-1.23,3.35-0.33l0.67-0.96c-0.54-0.52-1.22-0.8-1.99-0.8   c-0.93,0-1.9,0.43-2.8,1.25c-1.71,1.56-3.14,6.84-1.25,12.3c2.18,6.3,5.7,9.23,8.27,10.58c1.13,0.59,3.25,1.59,4.69,1.59   c0,0,0,0,0,0c0.78,0,1.24-0.28,1.51-0.58L178.97,194.83z" class="st26"></path>
	<radialGradient gradientUnits="userSpaceOnUse" r="31.3172" cy="166.4557" cx="164.4342" id="SVGID_25_">
		<stop id="stop462" style="stop-color:#A8A8A8" offset="0"></stop>
		<stop id="stop464" style="stop-color:#121212" offset="0.7568"></stop>
		<stop id="stop466" style="stop-color:#161616" offset="0.789"></stop>
		<stop id="stop468" style="stop-color:#242424" offset="0.8254"></stop>
		<stop id="stop470" style="stop-color:#3B3B3B" offset="0.8638"></stop>
		<stop id="stop472" style="stop-color:#5A5A5A" offset="0.9036"></stop>
		<stop id="stop474" style="stop-color:#838383" offset="0.9445"></stop>
		<stop id="stop476" style="stop-color:#B4B4B4" offset="0.9858"></stop>
		<stop id="stop478" style="stop-color:#C7C7C7" offset="1"></stop>
	</radialGradient>
	<path id="path481" d="M171.31,172.78c0.67,1.54,7.86,21.02,7.86,21.02c0.22,0.56,0.12,0.89-0.19,1.03l1.02,0.65   c0.06-0.06,0.11-0.12,0.15-0.18c0.24-0.36,0.46-0.98,0.1-1.9c-0.29-0.8-7.21-19.53-7.88-21.08c-0.2-0.47-0.47-0.86-0.79-1.17   l-0.67,0.96C171.05,172.29,171.19,172.51,171.31,172.78z" class="st27"></path>
	<radialGradient gradientUnits="userSpaceOnUse" r="29.5695" cy="197.8285" cx="225.9778" id="SVGID_26_">
		<stop id="stop483" style="stop-color:#A8A8A8" offset="0"></stop>
		<stop id="stop485" style="stop-color:#FFFFFF" offset="0.2351"></stop>
		<stop id="stop487" style="stop-color:#121212" offset="1"></stop>
	</radialGradient>
	<path id="path490" d="M237.19,171.6c-0.89-0.82-1.86-1.25-2.8-1.25c-0.99,0-1.84,0.48-2.42,1.32l0.97,0.6   c0.77-1.06,2.12-1.07,3.48,0.17c1.19,1.09,2.78,5.76,0.94,11.08c-1.88,5.44-4.9,8.46-7.72,9.94c-1.57,0.82-3.11,1.41-4.05,1.45   l-1.48,0.7c0.28,0.24,0.71,0.45,1.37,0.45c1.44,0,3.55-1,4.69-1.59c2.57-1.35,6.09-4.28,8.27-10.58   C240.33,178.43,238.9,173.16,237.19,171.6z" class="st28"></path>
	<linearGradient y2="183.6432" x2="233.2472" y1="183.6432" x1="223.842" gradientUnits="userSpaceOnUse" id="SVGID_27_">
		<stop id="stop492" style="stop-color:#808080" offset="0"></stop>
		<stop id="stop494" style="stop-color:#000000" offset="0.7973"></stop>
	</linearGradient>
	<path id="path497" d="M225.1,193.8c0,0,7.19-19.48,7.86-21.02c0.08-0.19,0.18-0.36,0.28-0.51l-0.97-0.6   c-0.14,0.2-0.26,0.41-0.36,0.65c-0.68,1.56-7.59,20.29-7.87,21.06c-0.37,0.94-0.16,1.56,0.09,1.92c0.07,0.1,0.16,0.21,0.28,0.31   l1.48-0.7C225.14,194.95,224.78,194.64,225.1,193.8z" class="st29"></path>
	<path id="path499" d="M137.39,93.52c10.26,7.51,20.36,15.23,30.39,23.04c2.51,1.95,5.02,3.9,7.51,5.87l3.75,2.95   c1.11,0.92,2.34,1.55,3.69,1.88c0.67,0.16,1.37,0.24,2.08,0.27l0.54,0.01l0.6,0l1.19,0l4.76,0l9.53-0.01l9.53,0.06l4.76,0.03   l2.38,0.02l1.19,0.01c0.37,0,0.74,0,1.08-0.02c0.69-0.04,1.24-0.18,1.81-0.45c0.58-0.28,1.18-0.7,1.79-1.15   c0.6-0.45,1.23-0.96,1.86-1.45l1.87-1.47c2.49-1.97,5-3.92,7.51-5.87c10.03-7.8,20.12-15.52,30.38-23.03   c-9.53,8.42-19.24,16.62-29,24.74c-2.44,2.04-4.88,4.07-7.34,6.08l-1.84,1.51c-0.62,0.5-1.22,1.01-1.87,1.52   c-0.65,0.51-1.34,1.02-2.18,1.46c-0.42,0.21-0.89,0.4-1.36,0.53c-0.48,0.13-0.95,0.2-1.4,0.24c-0.45,0.04-0.88,0.05-1.3,0.06   l-1.19,0l-2.38,0l-4.76,0l-9.53,0l-9.53-0.06l-4.76-0.03l-1.19-0.01l-0.6,0l-0.65-0.01c-0.88-0.04-1.76-0.17-2.63-0.39   c-0.86-0.23-1.71-0.56-2.5-0.98c-0.78-0.42-1.53-0.95-2.18-1.51l-3.68-3.02c-2.46-2.01-4.9-4.04-7.33-6.07   C156.62,110.13,146.92,101.94,137.39,93.52z" class="st0"></path>
	<path id="path501" d="M145.85,134.22c0.85,4.78,1.64,9.57,2.42,14.36l0.55,3.6l0.26,1.81l0.11,0.91c0.03,0.29,0.08,0.59,0.14,0.88   c0.23,1.16,0.66,2.28,1.29,3.27c0.32,0.49,0.68,0.95,1.11,1.35c0.43,0.39,0.89,0.74,1.41,0.99c0.12,0.08,0.26,0.11,0.39,0.17   c0.13,0.05,0.26,0.12,0.4,0.15c0.27,0.08,0.55,0.16,0.86,0.22l1.77,0.43c1.18,0.3,2.35,0.61,3.53,0.92l7.03,1.89   c0.3,0.08,0.57,0.15,0.89,0.24c0.31,0.09,0.62,0.21,0.9,0.36c0.58,0.29,1.11,0.66,1.58,1.08c0.47,0.43,0.9,0.9,1.26,1.43   c0.36,0.53,0.67,1.09,0.86,1.73l0.07,0.24l0.07,0.21l0.14,0.41c0.09,0.27,0.2,0.55,0.31,0.84l0.64,1.7l1.31,3.4l10.47,27.17   l5.2,13.6l5.14,13.63c-1.86-4.48-3.67-8.99-5.5-13.48l-5.41-13.52c-3.59-9.02-7.12-18.06-10.64-27.11l-1.29-3.41l-0.63-1.71   c-0.11-0.28-0.21-0.57-0.31-0.87l-0.15-0.45l-0.07-0.22l-0.05-0.2c-0.32-1.06-1.04-2.05-1.88-2.82c-0.43-0.39-0.9-0.72-1.41-0.98   c-0.25-0.13-0.52-0.24-0.78-0.32c-0.26-0.09-0.58-0.16-0.87-0.24l-7.02-1.93l-3.51-0.94l-1.76-0.46c-0.29-0.07-0.59-0.15-0.9-0.25   c-0.16-0.04-0.3-0.11-0.45-0.17c-0.14-0.07-0.3-0.11-0.43-0.2c-0.57-0.29-1.08-0.68-1.54-1.11c-0.46-0.44-0.84-0.95-1.18-1.47   c-0.66-1.07-1.09-2.26-1.32-3.48c-0.06-0.31-0.1-0.61-0.13-0.92l-0.1-0.9l-0.23-1.8l-0.49-3.6L145.85,134.22z" class="st0"></path>
	<path id="path503" d="M190.24,216.81c2.65,6.48,5.3,12.97,8,19.43l1.02,2.42c0.17,0.4,0.34,0.81,0.52,1.2   c0.18,0.4,0.35,0.78,0.6,1.12c0.24,0.34,0.52,0.65,0.86,0.87c0.34,0.22,0.72,0.35,1.11,0.33c0.38-0.02,0.75-0.18,1.05-0.44   c0.3-0.26,0.52-0.61,0.71-0.98c0.33-0.79,0.66-1.6,0.98-2.42l0.96-2.44l1.9-4.9l15.15-39.21l7.57-19.61l0.96-2.45l0.49-1.23   l0.26-0.63c0.1-0.21,0.21-0.43,0.34-0.64c0.25-0.42,0.59-0.83,1-1.16c0.41-0.33,0.89-0.54,1.34-0.7c0.91-0.31,1.76-0.46,2.59-0.68   c3.38-0.86,6.77-1.77,10.13-2.71l1.26-0.35c0.41-0.12,0.86-0.24,1.2-0.37c0.66-0.27,1.31-0.83,1.85-1.43   c0.55-0.61,1.03-1.31,1.41-2.04c0.39-0.74,0.68-1.52,0.85-2.32c0.68-3.4,1.2-6.88,1.78-10.33l3.3-20.75l0.12,0.02   c-0.37,3.49-0.81,6.96-1.23,10.44c-0.44,3.48-0.89,6.95-1.36,10.42c-0.23,1.74-0.47,3.47-0.74,5.21c-0.27,1.74-0.52,3.46-0.85,5.21   c-0.17,0.91-0.49,1.79-0.9,2.61c-0.41,0.82-0.92,1.59-1.53,2.29c-0.62,0.69-1.3,1.35-2.26,1.77c-0.48,0.19-0.87,0.29-1.3,0.43   l-1.27,0.37c-3.38,0.96-6.75,1.88-10.16,2.76c-0.86,0.23-1.73,0.39-2.49,0.64c-0.38,0.13-0.71,0.28-0.99,0.5   c-0.28,0.21-0.51,0.49-0.71,0.82c-0.1,0.16-0.19,0.33-0.28,0.52l-0.24,0.59l-0.49,1.2l-0.98,2.44l-7.78,19.52l-15.49,39.08   l-1.96,4.88l-0.99,2.44c-0.33,0.81-0.66,1.62-1.02,2.44c-0.21,0.41-0.47,0.81-0.84,1.12c-0.36,0.31-0.84,0.53-1.33,0.54   c-0.5,0.02-0.98-0.15-1.37-0.42c-0.39-0.27-0.7-0.62-0.97-1c-0.26-0.38-0.45-0.8-0.62-1.2c-0.18-0.4-0.34-0.81-0.51-1.21   l-0.99-2.43c-2.62-6.5-5.2-13.01-7.77-19.53L190.24,216.81z" class="st0"></path>
	<path id="path505" d="M205.22,239.13l-2.62-8.97c0,0,0.5-0.91,0.71-1.71c0.2-0.81,0.81-1.51,0.81-1.51l2.72,6.95L205.22,239.13z" class="st0"></path>
	<path id="path507" d="M188.85,268.03c1.93,3.01,3.81,6.05,5.6,9.14c0.45,0.77,0.9,1.54,1.33,2.34c0.42,0.78,0.86,1.54,1.39,2.21   c0.53,0.67,1.14,1.27,1.87,1.66c0.72,0.41,1.54,0.63,2.39,0.67c0.84,0.05,1.72-0.01,2.51-0.24c0.8-0.23,1.49-0.69,2.04-1.32   c0.28-0.31,0.54-0.66,0.79-1.02l0.39-0.55c0.12-0.18,0.24-0.35,0.36-0.54c0.47-0.75,0.94-1.51,1.4-2.27   c1.84-3.06,3.69-6.11,5.57-9.15c-1.61,3.19-3.28,6.35-5.03,9.46c-0.87,1.57-1.74,3.11-2.91,4.57c-0.61,0.72-1.46,1.29-2.38,1.56   c-0.92,0.28-1.86,0.35-2.79,0.29c-0.94-0.06-1.89-0.31-2.72-0.79c-0.84-0.46-1.53-1.14-2.09-1.88c-0.56-0.74-1-1.55-1.41-2.35   c-0.4-0.79-0.83-1.57-1.25-2.36C192.21,274.34,190.51,271.2,188.85,268.03z" class="st0"></path>
	<path id="path509" d="M131.61,217.91c-1.24-0.55-2.48-1.11-3.7-1.72l-0.9-0.47c-0.3-0.16-0.62-0.32-0.88-0.56   c-0.52-0.47-0.96-0.98-1.43-1.47c-0.94-1-1.76-2.1-2.55-3.22c-0.78-1.12-1.54-2.25-2.28-3.39l-4.42-6.86   c-1.46-2.3-2.94-4.58-4.31-6.95c-0.34-0.59-0.68-1.21-0.95-1.87c-0.13-0.33-0.29-0.68-0.31-1.16c-0.01-0.24,0.05-0.49,0.14-0.7   c0.09-0.22,0.21-0.38,0.32-0.55c0.24-0.31,0.49-0.57,0.74-0.81l0.74-0.71l1.48-1.41l5.93-5.61l5.94-5.59l2.96-2.8l1.47-1.4   l0.73-0.7l0.36-0.35l0.32-0.35c0.83-0.95,1.45-2.1,1.85-3.33c0.41-1.23,0.59-2.53,0.62-3.83c0-0.33,0-0.65-0.03-0.98   c-0.02-0.33-0.07-0.67-0.1-1.01l-0.22-2.03l-0.43-4.05c-0.55-5.41-1.14-10.81-1.66-16.22l-1.6-16.23   c-0.49-5.42-1.02-10.83-1.48-16.25c0.73,5.39,1.37,10.79,2.06,16.19l1.94,16.21c0.66,5.4,1.25,10.81,1.88,16.21l0.45,4.05   l0.22,2.03c0.03,0.34,0.08,0.67,0.1,1.02c0.03,0.35,0.03,0.71,0.03,1.06c-0.02,1.41-0.22,2.83-0.66,4.19   c-0.43,1.36-1.12,2.66-2.08,3.76l-0.38,0.4l-0.37,0.36l-0.74,0.71l-1.48,1.4l-2.98,2.79L120,181.3l-5.98,5.54l-1.49,1.39   c-0.48,0.47-1.02,0.92-1.39,1.38c-0.18,0.23-0.27,0.42-0.27,0.62c0,0.21,0.1,0.5,0.22,0.8c0.24,0.61,0.54,1.19,0.87,1.78   c1.3,2.36,2.73,4.68,4.15,7l4.27,6.95c0.71,1.16,1.42,2.32,2.16,3.45c0.74,1.13,1.51,2.25,2.41,3.26c0.45,0.5,0.89,1.04,1.36,1.5   c0.23,0.23,0.52,0.39,0.82,0.55l0.89,0.5C129.18,216.69,130.39,217.31,131.61,217.91z" class="st0"></path>
	<path id="path511" d="M272.39,217.91c1.22-0.6,2.43-1.22,3.62-1.88l0.89-0.5c0.3-0.17,0.59-0.33,0.82-0.55   c0.47-0.46,0.91-1,1.36-1.5c0.89-1.01,1.66-2.12,2.41-3.26c0.74-1.13,1.45-2.29,2.16-3.45l4.27-6.95c1.41-2.32,2.84-4.64,4.15-7   c0.32-0.6,0.63-1.17,0.87-1.78c0.12-0.3,0.22-0.59,0.22-0.8c0-0.19-0.09-0.38-0.27-0.62c-0.37-0.45-0.9-0.91-1.39-1.38l-1.49-1.39   L284,181.3l-5.97-5.56l-2.98-2.79l-1.48-1.4l-0.74-0.71l-0.37-0.36l-0.38-0.4c-0.96-1.1-1.65-2.4-2.08-3.76   c-0.45-1.36-0.64-2.78-0.66-4.19c0-0.35,0.01-0.71,0.03-1.06c0.02-0.35,0.07-0.68,0.1-1.02l0.22-2.03l0.45-4.05   c0.63-5.4,1.22-10.81,1.88-16.21l1.94-16.21c0.69-5.4,1.34-10.8,2.06-16.19c-0.45,5.42-0.99,10.83-1.48,16.25l-1.6,16.23   c-0.52,5.41-1.11,10.81-1.66,16.22l-0.43,4.05l-0.22,2.03c-0.03,0.34-0.08,0.68-0.1,1.01c-0.02,0.32-0.03,0.65-0.03,0.98   c0.03,1.3,0.21,2.61,0.62,3.83c0.4,1.23,1.01,2.38,1.85,3.33l0.32,0.35l0.36,0.35l0.73,0.7l1.47,1.4l2.96,2.8l5.94,5.59l5.93,5.61   l1.48,1.41l0.74,0.71c0.25,0.24,0.5,0.5,0.74,0.81c0.12,0.16,0.23,0.33,0.32,0.55c0.09,0.21,0.14,0.46,0.14,0.7   c-0.02,0.48-0.18,0.83-0.31,1.16c-0.27,0.65-0.61,1.27-0.95,1.87c-1.37,2.37-2.85,4.65-4.31,6.95l-4.42,6.86   c-0.75,1.14-1.5,2.27-2.28,3.39c-0.78,1.11-1.6,2.22-2.55,3.22c-0.47,0.49-0.91,1-1.43,1.47c-0.26,0.24-0.59,0.4-0.88,0.56   l-0.9,0.47C274.87,216.8,273.63,217.36,272.39,217.91z" class="st30"></path>
	<path id="path513" d="M81.71,103.33l3.43,1.41c0,0,18.54-26.13,40.7-40.23c22.08-14.05,47.35-19.81,47.35-19.81l-1.41-3.83   c0,0-28.01,4.84-53.19,23.78S81.71,103.33,81.71,103.33z" class="st0"></path>
	<path id="path515" d="M225.48,196.06c1.16-0.2,2.28-0.56,3.33-1.03c1.05-0.47,2.05-1.04,2.94-1.74c1.78-1.41,3.19-3.21,4.14-5.28   c1.02-2.08,1.87-4.23,2.46-6.46c0.28-1.12,0.51-2.25,0.63-3.4c0.04-0.29,0.05-0.58,0.07-0.87c0-0.29,0.02-0.58,0.02-0.87   c0-0.58-0.03-1.17-0.13-1.75c0.22,0.55,0.37,1.13,0.46,1.72c0.1,0.59,0.15,1.19,0.17,1.79c0.02,1.2-0.08,2.4-0.3,3.58   c-0.2,1.19-0.55,2.34-0.91,3.48c-0.2,0.56-0.41,1.13-0.65,1.67c-0.22,0.56-0.48,1.1-0.73,1.64l-0.2,0.4l-0.23,0.4l-0.46,0.8   c-0.15,0.26-0.35,0.5-0.52,0.76c-0.18,0.25-0.34,0.51-0.56,0.73l-0.61,0.68c-0.21,0.23-0.45,0.42-0.67,0.63l-0.34,0.31   c-0.12,0.1-0.24,0.19-0.36,0.28c-0.25,0.18-0.48,0.37-0.74,0.53c-1.01,0.68-2.14,1.18-3.28,1.53   C227.86,195.92,226.67,196.13,225.48,196.06z" class="st0"></path>
	<path id="path517" d="M180.24,193.9c0.14,0.46,0.2,0.97,0.04,1.48c-0.08,0.26-0.26,0.49-0.48,0.67c-0.12,0.08-0.24,0.16-0.38,0.2   c-0.13,0.06-0.27,0.08-0.4,0.11c-0.55,0.07-1.04,0-1.53-0.06c-0.49-0.07-0.98-0.18-1.45-0.3c-1.91-0.51-3.72-1.42-5.28-2.68   c-0.77-0.64-1.47-1.36-2.09-2.14c-0.59-0.82-1.11-1.63-1.57-2.49c-0.47-0.85-0.89-1.74-1.24-2.65c-0.33-0.91-0.64-1.85-0.73-2.82   c0.35,0.9,0.79,1.74,1.27,2.57c0.46,0.83,0.98,1.62,1.5,2.41c0.54,0.77,1.08,1.57,1.66,2.27c0.59,0.7,1.25,1.35,1.96,1.92   c0.7,0.6,1.48,1.1,2.28,1.55c0.8,0.46,1.65,0.84,2.52,1.17c0.43,0.17,0.88,0.3,1.33,0.43c0.45,0.12,0.92,0.24,1.32,0.24   c0.1,0,0.21,0,0.3-0.02c0.1-0.01,0.19-0.05,0.28-0.09c0.17-0.09,0.32-0.23,0.43-0.41C180.19,194.87,180.26,194.38,180.24,193.9z" class="st0"></path>
	<g id="g541">
		<radialGradient gradientUnits="userSpaceOnUse" r="28.729" cy="289.3068" cx="202.2015" id="SVGID_28_">
			<stop id="stop519" style="stop-color:#A8A8A8" offset="0"></stop>
			<stop id="stop521" style="stop-color:#707070" offset="0.7676"></stop>
		</radialGradient>
		<path id="path524" d="M198.57,280.86c-0.59-0.63-2.8-4.17-7.12-11.99l-2.26-0.21c2.21,4.04,6.62,11.95,7.91,13.34    c0.05,0.05,0.09,0.1,0.14,0.15l1.64-0.95C198.78,281.08,198.68,280.97,198.57,280.86z" class="st31"></path>
		<radialGradient gradientUnits="userSpaceOnUse" r="28.729" cy="289.3068" cx="202.2015" id="SVGID_29_">
			<stop id="stop526" style="stop-color:#A8A8A8" offset="0"></stop>
			<stop id="stop528" style="stop-color:#FFFFFF" offset="0.3108"></stop>
			<stop id="stop530" style="stop-color:#BEBEBE" offset="0.4208"></stop>
			<stop id="stop532" style="stop-color:#626262" offset="0.5857"></stop>
			<stop id="stop534" style="stop-color:#282828" offset="0.7014"></stop>
			<stop id="stop536" style="stop-color:#121212" offset="0.7568"></stop>
		</radialGradient>
		<path id="path539" d="M202.22,282.72c-0.09,0-0.19,0-0.29,0c-1.31,0-1.7-0.11-3.06-1.54l-1.64,0.95c1.65,1.76,2.54,2.34,4.7,2.34    c0.25,0,0.48-0.01,0.69-0.02L202.22,282.72z" class="st32"></path>
	</g>
	<path id="path543" d="M202,37.71c78.86,0,142.79,63.93,142.79,142.79S280.86,323.29,202,323.29S59.21,259.36,59.21,180.5   S123.14,37.71,202,37.71 M185.09,126.57h16.77h16.77c2.01,0,3.96-0.7,5.51-1.97l35.21-28.85c1.79-1.46,1.62-4.25-0.33-5.49   c-16.9-10.73-36.53-16.48-57.04-16.48c-20.57,0-40.26,5.78-57.19,16.58c-1.95,1.24-2.11,4.02-0.32,5.49l35.1,28.76   C181.14,125.87,183.08,126.57,185.09,126.57 M215.03,286.42c0.09,0,0.18-0.01,0.27-0.02c23.47-2.9,45.18-13.45,62.17-30.44   c20.16-20.16,31.26-46.96,31.26-75.46c0-26.21-9.39-50.98-26.57-70.47c-0.5-0.57-1.16-0.83-1.81-0.83c-1.15,0-2.26,0.81-2.41,2.15   l-5.26,48.8c-0.36,3.3,0.81,6.59,3.16,8.93l20.39,20.28c1.01,1,1.24,2.55,0.55,3.8c-1.17,2.15-3.3,5.88-6.53,11   c-3.21,5.08-5.58,8.42-6.96,10.28c-0.87,1.17-2.01,2.1-3.33,2.72l-23.84,11.27c-2.39,1.13-4.47,2.84-6.04,4.97l-36.69,49.69   C212.36,284.5,213.38,286.42,215.03,286.42 M188.97,286.42c1.65,0,2.67-1.93,1.64-3.31l-36.69-49.69   c-1.57-2.13-3.65-3.84-6.04-4.97l-23.84-11.27c-1.32-0.62-2.46-1.56-3.33-2.72c-1.38-1.86-3.75-5.19-6.96-10.28   c-3.23-5.12-5.36-8.86-6.53-11c-0.68-1.25-0.45-2.79,0.55-3.8l20.39-20.28c2.36-2.34,3.52-5.63,3.16-8.93l-5.26-48.8   c-0.14-1.34-1.26-2.15-2.41-2.15c-0.65,0-1.3,0.26-1.81,0.83c-17.18,19.49-26.57,44.25-26.57,70.47c0,28.51,11.1,55.31,31.26,75.47   c16.99,16.99,38.7,27.54,62.17,30.44C188.8,286.42,188.89,286.42,188.97,286.42 M185.38,150.07c-3.03,0-5.94-1.21-8.08-3.35   l-25.49-25.56c-0.6-0.6-1.32-0.86-2.03-0.86c-1.64,0-3.19,1.41-2.9,3.34l4.12,27.89c0.39,2.61,2.27,4.74,4.82,5.44l14.93,4.11   c2.49,0.69,4.51,2.51,5.44,4.92l24.54,63.56c0.23,0.59,0.76,0.88,1.29,0.88s1.06-0.29,1.29-0.88l24.54-63.56   c0.93-2.41,2.95-4.23,5.44-4.92l14.93-4.11c2.54-0.7,4.43-2.83,4.82-5.44l4.12-27.89c0.29-1.94-1.27-3.34-2.9-3.34   c-0.71,0-1.43,0.26-2.03,0.86l-25.49,25.56c-2.14,2.15-5.05,3.35-8.08,3.35H202H185.38 M225.52,194.92c0.93,0,2.53-0.61,4.16-1.46   c2.82-1.48,5.84-4.5,7.72-9.94c1.84-5.32,0.25-9.99-0.94-11.08c-0.7-0.64-1.4-0.95-2.03-0.95c-0.74,0-1.37,0.44-1.74,1.29   c-0.67,1.54-7.86,21.02-7.86,21.02C224.52,194.59,224.84,194.92,225.52,194.92 M178.48,194.92c0.68,0,0.99-0.33,0.68-1.12   c0,0-7.19-19.48-7.86-21.02c-0.37-0.84-0.99-1.29-1.74-1.29c-0.62,0-1.32,0.31-2.03,0.95c-1.19,1.09-2.78,5.76-0.94,11.08   c1.88,5.44,4.9,8.46,7.72,9.94C175.96,194.31,177.56,194.92,178.48,194.92 M201.93,282.72c1.41,0,1.75-0.13,3.37-1.87   c0.62-0.66,2.99-4.48,7.69-13.03c0.28-0.51,0.03-1.14-0.51-1.32c-2.34-0.78-5.74-1.51-10.23-1.51h-0.63   c-4.5,0-7.89,0.74-10.23,1.51c-0.55,0.18-0.79,0.82-0.51,1.32c4.7,8.55,7.08,12.37,7.69,13.03   C200.18,282.6,200.53,282.72,201.93,282.72 M202,36.5c-19.44,0-38.3,3.81-56.05,11.32c-17.15,7.25-32.55,17.64-45.77,30.86   C86.95,91.9,76.57,107.3,69.32,124.45C61.81,142.2,58,161.06,58,180.5s3.81,38.3,11.32,56.05c7.25,17.15,17.64,32.55,30.86,45.77   c13.22,13.22,28.62,23.61,45.77,30.86c17.75,7.51,36.61,11.32,56.05,11.32s38.3-3.81,56.05-11.32   c17.15-7.25,32.55-17.64,45.77-30.86c13.22-13.22,23.61-28.62,30.86-45.77C342.19,218.8,346,199.94,346,180.5   s-3.81-38.3-11.32-56.05c-7.25-17.15-17.64-32.55-30.86-45.77c-13.22-13.22-28.62-23.61-45.77-30.86   C240.3,40.31,221.44,36.5,202,36.5L202,36.5z M185.09,125.36c-1.73,0-3.41-0.6-4.75-1.7l-35.1-28.76c-0.55-0.45-0.84-1.11-0.8-1.82   c0.04-0.71,0.41-1.33,1-1.71c16.83-10.72,36.38-16.39,56.55-16.39c20.1,0,39.6,5.63,56.39,16.29c0.6,0.38,0.96,1,1,1.71   c0.04,0.71-0.25,1.38-0.8,1.83l-35.21,28.85c-1.33,1.09-3.02,1.7-4.75,1.7h-16.77H185.09L185.09,125.36z M215.03,285.21   c-0.47,0-0.69-0.37-0.75-0.48c-0.07-0.14-0.21-0.52,0.08-0.91l36.69-49.69c1.45-1.96,3.38-3.55,5.59-4.59l23.84-11.27   c1.49-0.71,2.8-1.78,3.78-3.09c1.43-1.92,3.81-5.28,7.02-10.36c3.22-5.1,5.35-8.83,6.57-11.07c0.93-1.71,0.62-3.86-0.76-5.23   l-20.39-20.28c-2.11-2.1-3.13-4.99-2.81-7.95l5.26-48.8c0.08-0.7,0.66-1.07,1.2-1.07c0.24,0,0.6,0.07,0.9,0.42   c16.94,19.22,26.27,43.96,26.27,69.67c0,28.18-10.98,54.68-30.91,74.61c-16.8,16.8-38.05,27.2-61.47,30.09   C215.11,285.21,215.06,285.21,215.03,285.21L215.03,285.21z M188.97,285.21c-0.04,0-0.08,0-0.12-0.01   c-23.41-2.89-44.67-13.3-61.47-30.09c-19.93-19.93-30.9-46.43-30.9-74.61c0-25.71,9.33-50.45,26.27-69.67   c0.3-0.34,0.66-0.42,0.9-0.42c0.54,0,1.13,0.37,1.2,1.07l5.26,48.8c0.32,2.95-0.71,5.85-2.81,7.95l-20.39,20.28   c-1.38,1.37-1.69,3.53-0.76,5.23c1.22,2.24,3.35,5.97,6.57,11.07c3.2,5.07,5.58,8.43,7.02,10.36c0.98,1.32,2.29,2.39,3.78,3.09   l23.84,11.27c2.21,1.04,4.14,2.63,5.59,4.59l36.69,49.69c0.29,0.39,0.15,0.77,0.08,0.91C189.67,284.85,189.44,285.21,188.97,285.21   L188.97,285.21z M185.38,151.28H202h16.62c3.38,0,6.55-1.32,8.94-3.71l25.49-25.56c0.42-0.42,0.87-0.51,1.18-0.51   c0.5,0,1,0.23,1.34,0.62c0.22,0.26,0.46,0.7,0.37,1.34l-4.12,27.89c-0.32,2.13-1.86,3.88-3.94,4.45l-14.93,4.11   c-2.85,0.78-5.18,2.9-6.25,5.65l-24.54,63.56c-0.01,0.04-0.04,0.11-0.16,0.11s-0.14-0.07-0.16-0.11l-24.54-63.56   c-1.06-2.75-3.4-4.87-6.25-5.65l-14.93-4.11c-2.08-0.57-3.63-2.32-3.94-4.45l-4.12-27.89c-0.1-0.64,0.15-1.09,0.37-1.34   c0.33-0.39,0.83-0.62,1.34-0.62c0.31,0,0.76,0.09,1.18,0.51l25.49,25.56C178.83,149.97,182,151.28,185.38,151.28L185.38,151.28z    M226.2,193.6c2.54-6.87,7.1-19.18,7.6-20.34c0.24-0.56,0.53-0.56,0.63-0.56c0.33,0,0.77,0.23,1.21,0.63   c0.84,0.76,2.29,4.93,0.61,9.79c-1.93,5.57-4.95,8.11-7.14,9.26C227.89,193.03,226.88,193.42,226.2,193.6L226.2,193.6z    M177.8,193.6c-0.68-0.18-1.69-0.57-2.91-1.21c-2.19-1.15-5.22-3.69-7.14-9.26c-1.68-4.86-0.22-9.03,0.61-9.79   c0.44-0.4,0.88-0.63,1.21-0.63h0c0.1,0,0.38,0,0.63,0.56C170.7,174.42,175.26,186.73,177.8,193.6L177.8,193.6z M192.1,267.54   c2.82-0.89,6.02-1.34,9.52-1.34h0.63c3.5,0,6.7,0.45,9.52,1.34c-4.88,8.86-6.94,12.04-7.35,12.49c-1.38,1.48-1.44,1.48-2.48,1.48   c-1.04,0-1.1,0-2.48-1.48C199.04,279.59,196.98,276.41,192.1,267.54L192.1,267.54z" class="st33"></path>
</g>
</svg>