<?xml version="1.0" encoding="UTF-8"?>
<svg width="118px" height="136px" viewBox="0 0 118 136" version="1.1" xmlns="http://www.w3.org/2000/svg" xmlns:xlink="http://www.w3.org/1999/xlink" style="background: bg-grey-lighter;">
    <title>etv icon / hoechstgeschwindigkeit</title>
    <g id="etv-icon-/-hoechstgeschwindigkeit" stroke="none" stroke-width="1" fill="none" fill-rule="evenodd">
        <rect fill="bg-grey-lighter" x="0" y="0" width="118" height="136"></rect>
        <g id="speed" transform="translate(8.500606, 38.500000)" fill-rule="nonzero">
            <path d="M50.9993942,0 C78.3361901,0 100.761544,21.5311631 101.968719,48.7437591 L101.998788,49.5701059 L99,49.6553604 C98.2614329,23.6765847 76.9886664,3 50.9993942,3 C25.2700147,3 4.16328242,23.2651206 3.02708982,48.8776031 L2.99878837,49.6553604 L0,49.5701059 C0.784708287,21.968333 23.386469,0 50.9993942,0 Z" id="Path" fill="bg-blue-darker"></path>
            <path d="M99.0012116,49.6553604 C98.2626446,23.6765847 76.989878,3 51.0006058,3 C25.2712263,3 4.16449405,23.2651206 3.02830145,48.8776031 L3,49.6553604 L99.0012116,49.6553604 Z" id="Path" fill="#FFFFFF"></path>
            <path d="M49.5293942,43.3127331 L82.9293942,42.1427331 L52.4993942,55.9727331 C50.0615714,57.0817325 47.1959328,56.6151053 45.2358895,54.7899779 C43.2758462,52.9648506 42.6063806,50.1397061 43.5390021,47.6291132 C44.4716236,45.1185203 46.8231508,43.4155978 49.4993942,43.3127331 L49.5293942,43.3127331 Z" id="Path" fill="bg-blue-darker"></path>
            <polygon id="Path" fill="bg-blue-darker" points="52.5093942 4.78273315 52.5093942 16.8727331 49.5093942 16.8727331 49.5093942 4.78273315"></polygon>
            <polygon id="Path" fill="bg-blue-darker" points="18 48 18 50 6 50 6 48"></polygon>
            <polygon id="Path" fill="bg-blue-darker" points="29.888156 10.0422547 35.938156 20.5122547 33.3406324 22.0132115 27.2906324 11.5432115"></polygon>
            <polygon id="Path" fill="bg-blue-darker" points="12.9294795 25.9037443 23.3894795 31.9437443 21.8893089 34.541722 11.4293089 28.501722"></polygon>
            <polygon id="Path" fill="bg-blue-darker" points="89.0993089 25.9037443 90.5994795 28.501722 80.1394795 34.541722 78.6393089 31.9437443"></polygon>
            <polygon id="Path" fill="bg-blue-darker" points="72.1300951 10.0431853 74.7286932 11.542281 68.6886932 22.012281 66.0900951 20.5131853"></polygon>
            <path d="M89.8493942,27.2027331 C93.7929101,34.0156114 95.8630025,41.7508565 95.8494608,49.6227331 L83.7893942,49.6227331 C83.8009862,43.8686529 82.2898466,38.2139547 79.4093942,33.2327331 L79.4093942,33.2327331 L89.8693942,27.2327331" id="Path" fill="bg-blue-darker"></path>
        </g>
    </g>
</svg>