<?xml version="1.0" encoding="UTF-8"?>
<svg width="118px" height="136px" viewBox="0 0 118 136" version="1.1" xmlns="http://www.w3.org/2000/svg" xmlns:xlink="http://www.w3.org/1999/xlink" style="background: bg-grey-lighter;">
    <title>etv icon / kilopreis</title>
    <g id="etv-icon-/-kilopreis" stroke="none" stroke-width="1" fill="none" fill-rule="evenodd">
        <rect fill="bg-grey-lighter" x="0" y="0" width="118" height="136"></rect>
        <g id="payloadPrice" fill-rule="nonzero">
            <path d="M58.7295261,134.501543 C18.7706718,134.501543 1.49845704,120.865584 1.49845704,116.520059 C1.49845704,114.192455 2.49742839,60.0282283 4.05582371,51.2173009 L4.18568999,50.4780621 L49.0295142,27.88133 C44.2431404,23.8127148 42.5026726,17.1904874 44.6700675,11.2942679 C46.8374625,5.3980485 52.4525623,1.47965875 58.7345209,1.47965875 C65.0164796,1.47965875 70.6315794,5.3980485 72.7989744,11.2942679 C74.9663693,17.1904874 73.2259015,23.8127148 68.4395277,27.88133 L113.283352,50.4980415 L113.413218,51.2372803 C114.981603,60.0482077 115.920636,114.172476 115.960595,116.510069 C115.960595,121.145296 101.875099,134.501543 58.7295261,134.501543 Z" id="Path" fill="#FFFFFF"></path>
            <path d="M58.7295261,2.99694846 C64.8152906,2.99171393 70.1493756,7.06592796 71.7455049,12.9386554 C73.3416341,18.8113829 70.8036758,25.0251137 65.5525005,28.1011037 L111.94473,51.4970129 C113.503126,60.2979506 114.472128,116.540038 114.472128,116.540038 C114.472128,119.536952 102.264698,133.003086 58.7295261,133.003086 C18.9804558,133.003086 2.99691407,119.556931 2.99691407,116.540038 C2.99691407,116.540038 3.99588543,60.2979506 5.52431161,51.4970129 L51.9165414,28.1011037 C46.6669726,25.0260497 44.1287706,18.8150042 45.7222364,12.94348 C47.3157022,7.0719557 52.6456186,2.99694846 58.7295261,2.99694846 M58.7295261,1.96775077e-05 C52.223964,-0.00605412131 46.3249234,3.8194064 43.6767523,9.76159152 C41.0285811,15.7037766 42.1279851,22.6481369 46.4821372,27.4817415 L4.17570027,48.8197697 L2.83707865,49.4990702 L2.5773461,50.9775478 C0.988981644,59.9083517 0.0399588543,114.182466 0,116.490089 L0,116.540038 C0,120.935512 7.99177086,125.820482 14.8047555,128.66755 C22.7965264,132.014104 36.9519505,136 58.7594952,136 C82.485065,136 96.540592,132.004115 104.162743,128.647571 C112.264401,125.081243 117.499011,120.326139 117.499011,116.540038 L117.499011,116.490089 C117.499011,114.182466 116.50004,59.9083517 114.931655,50.9775478 L114.671922,49.4990702 L113.3333,48.8197697 L70.9869046,27.4817415 C75.3422774,22.6467918 76.4409808,15.7000603 73.790268,9.75701964 C71.1395553,3.81397902 65.2368995,-0.0100088932 58.7295261,1.96775077e-05 Z" id="Shape" fill="bg-blue-darker"></path>
            <circle id="Oval" fill="bg-blue-darker" cx="58.4498141" cy="16.2233343" r="8.45129768"></circle>
            <circle id="Oval" fill="#FFFFFF" cx="58.7295261" cy="83.5340243" r="37.5413436"></circle>
            <path d="M58.7295261,47.4911364 C73.3133707,47.4870973 86.4632551,56.2696175 92.0461174,69.7425603 C97.6289797,83.2155032 94.5450836,98.7249101 84.2327477,109.037246 C73.9204119,119.349582 58.411005,122.433478 44.9380621,116.850616 C31.4651192,111.267753 22.6825991,98.117869 22.6866381,83.5340243 C22.6866381,73.9748565 26.4840042,64.8072072 33.2433566,58.0478548 C40.002709,51.2885024 49.1703582,47.4911364 58.7295261,47.4911364 M58.7295261,44.4942237 C42.9344513,44.4942237 28.6948491,54.0094814 22.6512693,68.6026145 C16.6076895,83.1957475 19.9504552,99.9925421 31.1206884,111.159918 C42.2909216,122.327293 59.0885709,125.665761 73.6801572,119.618448 C88.2717435,113.571135 97.7833571,99.3290986 97.7793177,83.5340243 C97.757282,61.9781715 80.2853839,44.510743 58.7295261,44.4942237 Z" id="Shape" fill="bg-blue-darker"></path>
            <circle id="Oval" fill="bg-blue-darker" cx="58.7295261" cy="83.5340243" r="31.2678035"></circle>
            <path d="M58.7295261,53.7746659 C70.77192,53.7706272 81.6306012,61.0222144 86.2408925,72.147163 C90.8511837,83.2721116 88.3048797,96.0788602 79.7896209,104.594119 C71.274362,113.109378 58.4676133,115.655682 47.3426647,111.045391 C36.2177161,106.435099 28.966129,95.5764182 28.9701677,83.5340243 C28.975683,67.1006698 42.2961716,53.7801812 58.7295261,53.7746659 M58.7295261,50.7777535 C45.4759019,50.7777535 33.5275028,58.7620785 28.4564941,71.0072174 C23.3854854,83.2523563 26.190659,97.3464926 35.5638153,106.716791 C44.9369716,116.08709 59.0319626,118.887966 71.2755546,113.813223 C83.5191467,108.738481 91.4998273,96.7876479 91.4957881,83.5340243 C91.4737587,65.448468 76.8150883,50.7942667 58.7295261,50.7777535 Z" id="Shape" fill="#FFFFFF"></path>
            <path d="M45.443207,79.1685195 L61.0371499,79.1685195 L61.0371499,81.7958142 L45.443207,81.7958142 L45.443207,79.1685195 Z M45.443207,87.0004549 L61.0371499,87.0004549 L61.0371499,89.6677085 L45.443207,89.6677085 L45.443207,87.0004549 Z M52.9754511,102.444552 C51.3833158,101.486925 50.1269585,100.059563 49.3791542,98.3587593 C48.5028453,96.305458 48.0803057,94.0871251 48.1404297,91.8554557 L48.1404297,76.8708854 C48.0827426,74.6329465 48.5051271,72.4086154 49.3791542,70.3476024 C50.1252308,68.6431061 51.3817548,67.2120648 52.9754511,66.2518198 C54.7226173,65.2783871 56.7003605,64.7951688 58.6995569,64.8532599 C60.6111979,64.8127286 62.5028579,65.2487374 64.2038891,66.1219536 C65.7437995,66.945489 67.0081377,68.2028802 67.8401449,69.7382299 C68.7800236,71.5265555 69.3057945,73.5033175 69.3785608,75.522274 L65.5724799,75.522274 C65.4830982,74.1800055 65.1084763,72.8722344 64.4736114,71.686224 C63.9229342,70.6763475 63.0989593,69.8419864 62.0960596,69.2787031 C61.0505258,68.7261228 59.8819316,68.4477225 58.6995569,68.4695363 C57.4021229,68.4299356 56.1222996,68.7777136 55.0233424,69.4685076 C53.9795067,70.1618572 53.1739427,71.1592222 52.7157185,72.3255657 C52.1504011,73.779354 51.8820586,75.3316642 51.9265311,76.8908648 L51.9265311,91.8754352 C51.8823404,93.4378647 52.1506507,94.9933849 52.7157185,96.450724 C53.1628366,97.6208555 53.9711325,98.6181036 55.0233424,99.2977923 C56.1258809,99.9803813 57.4031867,100.327475 58.6995569,100.296764 C59.8771671,100.319579 61.0448232,100.077171 62.116039,99.587494 C63.0852449,99.1170477 63.9023112,98.3830728 64.4736114,97.4696748 C65.1035857,96.429517 65.4800156,95.2557401 65.5724799,94.043203 L69.3585813,94.043203 C69.2673211,95.9333723 68.7298696,97.7750848 67.7901963,99.4176689 C66.935476,100.835113 65.6903513,101.976188 64.2038891,102.704285 C62.4940236,103.509981 60.6190369,103.903455 58.7295261,103.853102 C56.7187227,103.919187 54.7283669,103.431965 52.9754511,102.444552 L52.9754511,102.444552 Z" id="Shape" fill="#FFFFFF"></path>
        </g>
    </g>
</svg>