<?xml version="1.0" encoding="UTF-8"?>
<svg width="153.510417px" height="22px" viewBox="0 0 153.510417 22" version="1.1" xmlns="http://www.w3.org/2000/svg" xmlns:xlink="http://www.w3.org/1999/xlink">
    <title>logo</title>
    <g id="logo" stroke="none" stroke-width="1" fill="none" fill-rule="evenodd">
        <path d="M35.2399709,10.4396886 L33.5000533,8.61856858 C33.4405282,8.55630776 33.3870595,8.48774523 33.3410091,8.41486154 L31.065473,4.81255627 C30.1366521,3.34213498 28.8428323,2.12140517 27.3239567,1.28241449 C25.8050452,0.443495825 24.0860205,0 22.3527686,0 L6.92684393,0 C5.54117412,0 4.17912082,0.475148376 3.09154239,1.33783346 C2.00396396,2.20055455 1.22784408,3.42146442 0.906172011,4.77575432 L0.610983414,6.01870214 C0.415923134,6.83979599 0.602633415,7.69070589 1.12320032,8.35332092 C1.64373138,9.01589993 2.42411585,9.39594661 3.26427628,9.39594661 L9.0419023,9.39594661 C9.39220806,11.9165196 11.5513817,13.8629175 14.1548254,13.8629175 L15.6333128,13.8629175 C16.0291673,13.8629175 16.3500509,13.5404864 16.3500509,13.1427229 L16.3500509,11.9653488 L20.0790244,11.9653488 C20.4748788,11.9653488 20.7957625,11.6429177 20.7957625,11.2451542 C20.7957625,10.8474268 20.4748788,10.5249597 20.0790244,10.5249597 L16.3500509,10.5249597 L16.3500509,6.82492397 L20.0790244,6.82492397 C20.4748788,6.82492397 20.7957625,6.50249286 20.7957625,6.10472939 C20.7957625,5.70700193 20.4748788,5.3845348 20.0790244,5.3845348 L16.3500509,5.3845348 L16.3500509,4.20723272 C16.3500509,3.80946925 16.0291673,3.48703813 15.6333128,3.48703813 L14.1548254,3.48703813 C11.5508799,3.48703813 9.39134798,5.43422823 9.04168728,7.95555745 L3.26427628,7.95555745 C2.86562653,7.95555745 2.49532378,7.77522072 2.24833582,7.46085579 C2.00134787,7.14641883 1.9127232,6.74267775 2.00528993,6.35305248 L2.30047852,5.11010466 C2.54764566,4.0694955 3.14404346,3.13129802 3.97976011,2.46839492 C4.81547677,1.80549181 5.86209361,1.44038917 6.92684393,1.44038917 L22.3527686,1.44038917 C23.8452682,1.44038917 25.3254758,1.82227234 26.6333795,2.54466352 C27.9413191,3.26712672 29.055381,4.31825071 29.855189,5.58442481 L32.1306892,9.18665807 C32.2277356,9.34031158 32.3405502,9.48481863 32.4660152,9.6161101 L34.205897,11.4371941 C34.4384426,11.6806199 34.5665238,12.0005303 34.5665238,12.3379415 L34.5665238,15.3966799 C34.5665238,16.1138137 33.9858942,16.6972433 33.2722022,16.6972433 L33.1483499,16.6972433 C32.7524954,16.6972433 32.4316117,17.0196744 32.4316117,17.4174379 C32.4316117,18.2500908 32.1087212,19.0308538 31.5224294,19.6159759 C30.9359943,20.201242 30.1543555,20.5235651 29.3215775,20.5235651 C28.4887636,20.5235651 27.7071607,20.201242 27.1207256,19.6159759 C26.5344338,19.0308538 26.2115791,18.2500908 26.2115791,17.4174379 C26.2115791,17.0196744 25.8906596,16.6972433 25.494841,16.6972433 L10.7550498,16.6972433 C10.3591953,16.6972433 10.0383116,17.0196744 10.0383116,17.4174379 C10.0383116,19.150046 8.64314505,20.5596108 6.92827741,20.5596108 C5.21340977,20.5596108 3.81824318,19.150046 3.81824318,17.4174379 C3.81824318,17.0196744 3.49735952,16.6972433 3.10150505,16.6972433 L2.72786947,16.6972433 C2.01414164,16.6972433 1.43347625,16.1138137 1.43347625,15.3966439 L1.43347625,12.114177 C1.43347625,11.7164136 1.11259259,11.3939824 0.716738125,11.3939824 C0.320919495,11.3939824 0,11.7164136 0,12.114177 L0,15.3966439 C0,16.8097737 1.069875,17.9765969 2.43841477,18.1222923 C2.77560423,20.3156809 4.66062549,22 6.92827741,22 C9.19073297,22 11.0722781,20.3236391 11.415739,18.1376325 L24.8340801,18.1376325 C24.9826241,19.0823477 25.4230238,19.9517666 26.1105549,20.637932 C26.9673436,21.493019 28.1077098,21.9639543 29.3215775,21.9639543 C30.5354452,21.9639543 31.6757755,21.493019 32.5325643,20.637968 C33.2334983,19.938443 33.6775176,19.0486066 33.8173891,18.0826096 C35.0612164,17.8281288 36,16.7204696 36,15.3966799 L36,12.3379415 C36,11.6268214 35.7300764,10.9526832 35.2399709,10.4396886" id="Path" fill="bg-blue-darker"></path>
        <path d="M46.1770833,8.33333333 L46.1770833,7.1500947 L43.0250947,7.1500947 L43.0250947,5.52935606 L45.9285038,5.52935606 L45.9285038,4.34611742 L43.0250947,4.34611742 L43.0250947,2.72869318 L46.1638258,2.72869318 L46.1638258,1.54545455 L41.5899621,1.54545455 L41.5899621,8.33333333 L46.1770833,8.33333333 Z M51.6524621,8.33333333 L51.6524621,7.1500947 L48.7424242,7.1500947 L48.7424242,1.54545455 L47.3072917,1.54545455 L47.3072917,8.33333333 L51.6524621,8.33333333 Z M57.1908144,8.33333333 L57.1908144,7.1500947 L54.0388258,7.1500947 L54.0388258,5.52935606 L56.9422348,5.52935606 L56.9422348,4.34611742 L54.0388258,4.34611742 L54.0388258,2.72869318 L57.1775568,2.72869318 L57.1775568,1.54545455 L52.6036932,1.54545455 L52.6036932,8.33333333 L57.1908144,8.33333333 Z M59.7561553,8.33333333 L59.7561553,6.40435606 L60.4621212,5.54261364 L62.3214962,8.33333333 L64.0383523,8.33333333 L61.4895833,4.58475379 L64.0085227,1.54545455 L62.2883523,1.54545455 L59.8456439,4.53835227 L59.7561553,4.53835227 L59.7561553,1.54545455 L58.3210227,1.54545455 L58.3210227,8.33333333 L59.7561553,8.33333333 Z M67.9957386,8.33333333 L67.9957386,2.72869318 L70.0738636,2.72869318 L70.0738636,1.54545455 L64.499053,1.54545455 L64.499053,2.72869318 L66.577178,2.72869318 L66.577178,8.33333333 L67.9957386,8.33333333 Z M72.4303977,8.33333333 L72.43,5.92733333 L73.478,5.92733333 L74.7637311,8.33333333 L76.3480114,8.33333333 L74.907,5.69633333 L74.9708807,5.66856061 C75.2862216,5.52083333 75.537845,5.31750541 75.7257508,5.05857684 L75.8143939,4.92447917 C76.0088384,4.60077336 76.1060606,4.21354167 76.1060606,3.76278409 C76.1060606,3.31423611 76.0104956,2.92369003 75.8193655,2.59114583 C75.6282355,2.25860164 75.3509312,2.00118371 74.9874527,1.81889205 C74.6239741,1.63660038 74.1859217,1.54545455 73.6732955,1.54545455 L73.6732955,1.54545455 L70.9952652,1.54545455 L70.9952652,8.33333333 L72.4303977,8.33333333 Z M72.4303977,2.71875 L73.3982008,2.71875 C73.6744003,2.71875 73.9036458,2.75907513 74.0859375,2.83972538 C74.2682292,2.92037563 74.4041193,3.03803662 74.493608,3.19270833 C74.5830966,3.34738005 74.6278409,3.5374053 74.6278409,3.76278409 C74.6278409,3.98595328 74.5830966,4.17266414 74.493608,4.32291667 C74.4041193,4.47316919 74.2687816,4.58585859 74.0875947,4.66098485 C73.9064078,4.73611111 73.6788194,4.77367424 73.4048295,4.77367424 L73.4048295,4.77367424 L72.43,4.77433333 L72.4303977,2.71875 Z M80.1794508,8.42613636 C80.7782513,8.42613636 81.3179451,8.28969381 81.7985322,8.01680871 C82.2791193,7.74392361 82.6591698,7.34785354 82.9386837,6.82859848 C83.2181976,6.30934343 83.3579545,5.67960859 83.3579545,4.93939394 C83.3579545,4.19917929 83.2181976,3.56944444 82.9386837,3.05018939 C82.6591698,2.53093434 82.2791193,2.13486427 81.7985322,1.86197917 C81.3179451,1.58909407 80.7782513,1.45265152 80.1794508,1.45265152 C79.5762311,1.45265152 79.0348801,1.58909407 78.5553977,1.86197917 C78.0759154,2.13486427 77.6969697,2.53093434 77.4185606,3.05018939 C77.1401515,3.56944444 77.000947,4.19917929 77.000947,4.93939394 C77.000947,5.67739899 77.1401515,6.30602904 77.4185606,6.82528409 C77.6969697,7.34453914 78.0759154,7.74116162 78.5553977,8.01515152 C79.0348801,8.28914141 79.5762311,8.42613636 80.1794508,8.42613636 Z M80.1794508,7.15672348 C79.8325442,7.15672348 79.5298295,7.07165404 79.2713068,6.90151515 C79.0127841,6.73137626 78.8122633,6.48169192 78.6697443,6.15246212 C78.5272254,5.82323232 78.4559659,5.41887626 78.4559659,4.93939394 C78.4559659,4.45991162 78.5272254,4.05555556 78.6697443,3.72632576 C78.8122633,3.39709596 79.0127841,3.14741162 79.2713068,2.97727273 C79.5298295,2.80713384 79.8325442,2.72206439 80.1794508,2.72206439 C80.5263573,2.72206439 80.829072,2.80713384 81.0875947,2.97727273 C81.3461174,3.14741162 81.5466383,3.39709596 81.6891572,3.72632576 C81.8316761,4.05555556 81.9029356,4.45991162 81.9029356,4.93939394 C81.9029356,5.41887626 81.8316761,5.82323232 81.6891572,6.15246212 C81.5466383,6.48169192 81.3461174,6.73137626 81.0875947,6.90151515 C80.829072,7.07165404 80.5263573,7.15672348 80.1794508,7.15672348 Z M87.6567235,8.33333333 L87.6567235,2.72869318 L89.7348485,2.72869318 L89.7348485,1.54545455 L84.1600379,1.54545455 L84.1600379,2.72869318 L86.2381629,2.72869318 L86.2381629,8.33333333 L87.6567235,8.33333333 Z M92.0913826,8.33333333 L92.091,5.92733333 L93.139,5.92733333 L94.4247159,8.33333333 L96.0089962,8.33333333 L94.568,5.69633333 L94.6318655,5.66856061 C94.9472064,5.52083333 95.1988298,5.31750541 95.3867357,5.05857684 L95.4753788,4.92447917 C95.6698232,4.60077336 95.7670455,4.21354167 95.7670455,3.76278409 C95.7670455,3.31423611 95.6714804,2.92369003 95.4803504,2.59114583 C95.2892203,2.25860164 95.011916,2.00118371 94.6484375,1.81889205 C94.284959,1.63660038 93.8469066,1.54545455 93.3342803,1.54545455 L93.3342803,1.54545455 L90.65625,1.54545455 L90.65625,8.33333333 L92.0913826,8.33333333 Z M92.0913826,2.71875 L93.0591856,2.71875 C93.3353851,2.71875 93.5646307,2.75907513 93.7469223,2.83972538 C93.929214,2.92037563 94.0651042,3.03803662 94.1545928,3.19270833 C94.2440814,3.34738005 94.2888258,3.5374053 94.2888258,3.76278409 C94.2888258,3.98595328 94.2440814,4.17266414 94.1545928,4.32291667 C94.0651042,4.47316919 93.9297664,4.58585859 93.7485795,4.66098485 C93.5673927,4.73611111 93.3398043,4.77367424 93.0658144,4.77367424 L93.0658144,4.77367424 L92.091,4.77433333 L92.0913826,2.71875 Z M97.9512311,8.33333333 L98.454,6.78633333 L100.905,6.78633333 L101.408144,8.33333333 L102.946023,8.33333333 L100.606061,1.54545455 L98.7566288,1.54545455 L96.4133523,8.33333333 L97.9512311,8.33333333 Z M100.541,5.66533333 L98.819,5.66533333 L99.6548295,3.09659091 L99.7078598,3.09659091 L100.541,5.66533333 Z M105.196496,8.33333333 L105.196496,4.06107955 L105.246212,4.06107955 L108.199337,8.33333333 L109.43892,8.33333333 L109.43892,1.54545455 L108.010417,1.54545455 L108.010417,5.81439394 L107.950758,5.81439394 L105.020833,1.54545455 L103.761364,1.54545455 L103.761364,8.33333333 L105.196496,8.33333333 Z M113.137784,8.42945076 C113.690183,8.42945076 114.162484,8.34603851 114.554688,8.17921402 C114.946891,8.01238952 115.247396,7.77706755 115.456203,7.47324811 C115.665009,7.16942866 115.770518,6.80981692 115.772727,6.39441288 C115.770518,6.1115846 115.719145,5.86079545 115.618608,5.64204545 C115.518071,5.42329545 115.37721,5.2332702 115.196023,5.0719697 C115.014836,4.91066919 114.800505,4.77477904 114.55303,4.66429924 C114.305556,4.55381944 114.033775,4.46543561 113.737689,4.39914773 L113.737689,4.39914773 L113.127841,4.25331439 C112.979798,4.22017045 112.840593,4.17984533 112.710227,4.13233902 C112.579861,4.0848327 112.464962,4.02848801 112.36553,3.96330492 C112.266098,3.89812184 112.18821,3.82023359 112.131866,3.72964015 C112.075521,3.63904672 112.049558,3.53298611 112.053977,3.41145833 C112.053977,3.265625 112.096512,3.13525884 112.181581,3.02035985 C112.266651,2.90546086 112.389836,2.81541982 112.551136,2.75023674 C112.712437,2.68505366 112.910196,2.65246212 113.144413,2.65246212 C113.48911,2.65246212 113.761995,2.72648359 113.963068,2.87452652 C114.164141,3.02256944 114.277936,3.23027146 114.304451,3.49763258 L114.304451,3.49763258 L115.679924,3.49763258 C115.673295,3.09327652 115.565025,2.73753157 115.355114,2.43039773 C115.145202,2.12326389 114.851878,1.88352273 114.475142,1.71117424 C114.098406,1.53882576 113.658144,1.45265152 113.154356,1.45265152 C112.659407,1.45265152 112.217487,1.53882576 111.828598,1.71117424 C111.43971,1.88352273 111.134233,2.12326389 110.912169,2.43039773 C110.690104,2.73753157 110.580177,3.09659091 110.582386,3.50757576 C110.580177,4.00915404 110.744792,4.40798611 111.076231,4.70407197 C111.40767,5.00015783 111.859533,5.21780303 112.431818,5.35700758 L112.431818,5.35700758 L113.170928,5.54261364 C113.418403,5.60227273 113.627762,5.66856061 113.799006,5.74147727 C113.970249,5.81439394 114.100616,5.90277778 114.190104,6.00662879 C114.279593,6.1104798 114.324337,6.23863636 114.324337,6.39109848 C114.324337,6.55460859 114.274621,6.69933712 114.175189,6.82528409 C114.075758,6.95123106 113.936001,7.04955808 113.755919,7.12026515 C113.575836,7.19097222 113.364268,7.22632576 113.121212,7.22632576 C112.873737,7.22632576 112.652225,7.18821023 112.456676,7.11197917 C112.261127,7.03574811 112.10535,6.92195391 111.989347,6.77059659 C111.873343,6.61923927 111.807607,6.42976641 111.79214,6.20217803 L111.79214,6.20217803 L110.403409,6.20217803 C110.414457,6.69049874 110.533223,7.09982639 110.759706,7.43016098 C110.98619,7.76049558 111.302162,8.00962753 111.707623,8.17755682 C112.113084,8.34548611 112.589804,8.42945076 113.137784,8.42945076 Z M118.169034,8.33333333 L118.169,6.13333333 L119.375473,6.13257576 C119.822443,6.13257576 120.213001,6.06195887 120.547146,5.92072511 L120.709517,5.84422348 C121.077415,5.65198864 121.358586,5.38352273 121.55303,5.03882576 C121.747475,4.69412879 121.844697,4.29640152 121.844697,3.84564394 C121.844697,3.39488636 121.749132,2.99660669 121.558002,2.65080492 C121.366872,2.30500316 121.09012,2.03432765 120.727746,1.83877841 C120.365372,1.64322917 119.926768,1.54545455 119.411932,1.54545455 L119.411932,1.54545455 L116.733902,1.54545455 L116.733902,8.33333333 L118.169034,8.33333333 Z M118.169034,2.71875 L119.136837,2.71875 C119.415246,2.71875 119.645044,2.76570391 119.826231,2.85961174 C120.007418,2.95351957 120.142756,3.08499053 120.232244,3.25402462 C120.321733,3.42305871 120.366477,3.62026515 120.366477,3.84564394 C120.366477,4.06881313 120.321733,4.26601957 120.232244,4.43726326 C120.142756,4.60850694 120.00797,4.7421875 119.827888,4.83830492 C119.647806,4.93442235 119.419665,4.98248106 119.143466,4.98248106 L119.143466,4.98248106 L118.169,4.98333333 L118.169034,2.71875 Z M125.838542,8.42613636 C126.437342,8.42613636 126.977036,8.28969381 127.457623,8.01680871 C127.93821,7.74392361 128.318261,7.34785354 128.597775,6.82859848 C128.877289,6.30934343 129.017045,5.67960859 129.017045,4.93939394 C129.017045,4.19917929 128.877289,3.56944444 128.597775,3.05018939 C128.318261,2.53093434 127.93821,2.13486427 127.457623,1.86197917 C126.977036,1.58909407 126.437342,1.45265152 125.838542,1.45265152 C125.235322,1.45265152 124.693971,1.58909407 124.214489,1.86197917 C123.735006,2.13486427 123.356061,2.53093434 123.077652,3.05018939 C122.799242,3.56944444 122.660038,4.19917929 122.660038,4.93939394 C122.660038,5.67739899 122.799242,6.30602904 123.077652,6.82528409 C123.356061,7.34453914 123.735006,7.74116162 124.214489,8.01515152 C124.693971,8.28914141 125.235322,8.42613636 125.838542,8.42613636 Z M125.838542,7.15672348 C125.491635,7.15672348 125.18892,7.07165404 124.930398,6.90151515 C124.671875,6.73137626 124.471354,6.48169192 124.328835,6.15246212 C124.186316,5.82323232 124.115057,5.41887626 124.115057,4.93939394 C124.115057,4.45991162 124.186316,4.05555556 124.328835,3.72632576 C124.471354,3.39709596 124.671875,3.14741162 124.930398,2.97727273 C125.18892,2.80713384 125.491635,2.72206439 125.838542,2.72206439 C126.185448,2.72206439 126.488163,2.80713384 126.746686,2.97727273 C127.005208,3.14741162 127.205729,3.39709596 127.348248,3.72632576 C127.490767,4.05555556 127.562027,4.45991162 127.562027,4.93939394 C127.562027,5.41887626 127.490767,5.82323232 127.348248,6.15246212 C127.205729,6.48169192 127.005208,6.73137626 126.746686,6.90151515 C126.488163,7.07165404 126.185448,7.15672348 125.838542,7.15672348 Z M131.512784,8.33333333 L131.512,5.92733333 L132.56,5.92733333 L133.846117,8.33333333 L135.430398,8.33333333 L133.99,5.69533333 L134.053267,5.66856061 C134.368608,5.52083333 134.620231,5.31750541 134.808137,5.05857684 L134.89678,4.92447917 C135.091225,4.60077336 135.188447,4.21354167 135.188447,3.76278409 C135.188447,3.31423611 135.092882,2.92369003 134.901752,2.59114583 C134.710622,2.25860164 134.433318,2.00118371 134.069839,1.81889205 C133.70636,1.63660038 133.268308,1.54545455 132.755682,1.54545455 L132.755682,1.54545455 L130.077652,1.54545455 L130.077652,8.33333333 L131.512784,8.33333333 Z M131.512784,2.71875 L132.480587,2.71875 C132.756787,2.71875 132.986032,2.75907513 133.168324,2.83972538 C133.350616,2.92037563 133.486506,3.03803662 133.575994,3.19270833 C133.665483,3.34738005 133.710227,3.5374053 133.710227,3.76278409 C133.710227,3.98595328 133.665483,4.17266414 133.575994,4.32291667 C133.486506,4.47316919 133.351168,4.58585859 133.169981,4.66098485 C132.988794,4.73611111 132.761206,4.77367424 132.487216,4.77367424 L132.487216,4.77367424 L131.512,4.77433333 L131.512784,2.71875 Z M139.440814,8.33333333 L139.440814,2.72869318 L141.518939,2.72869318 L141.518939,1.54545455 L135.944129,1.54545455 L135.944129,2.72869318 L138.022254,2.72869318 L138.022254,8.33333333 L139.440814,8.33333333 Z M147.027462,8.33333333 L147.027462,7.1500947 L143.875473,7.1500947 L143.875473,5.52935606 L146.778883,5.52935606 L146.778883,4.34611742 L143.875473,4.34611742 L143.875473,2.72869318 L147.014205,2.72869318 L147.014205,1.54545455 L142.440341,1.54545455 L142.440341,8.33333333 L147.027462,8.33333333 Z M149.592803,8.33333333 L149.592,5.92733333 L150.64,5.92733333 L151.926136,8.33333333 L153.510417,8.33333333 L152.07,5.69533333 L152.133286,5.66856061 C152.448627,5.52083333 152.70025,5.31750541 152.888156,5.05857684 L152.976799,4.92447917 C153.171244,4.60077336 153.268466,4.21354167 153.268466,3.76278409 C153.268466,3.31423611 153.172901,2.92369003 152.981771,2.59114583 C152.790641,2.25860164 152.513336,2.00118371 152.149858,1.81889205 C151.786379,1.63660038 151.348327,1.54545455 150.835701,1.54545455 L150.835701,1.54545455 L148.15767,1.54545455 L148.15767,8.33333333 L149.592803,8.33333333 Z M149.592803,2.71875 L150.560606,2.71875 C150.836806,2.71875 151.066051,2.75907513 151.248343,2.83972538 C151.430634,2.92037563 151.566525,3.03803662 151.656013,3.19270833 C151.745502,3.34738005 151.790246,3.5374053 151.790246,3.76278409 C151.790246,3.98595328 151.745502,4.17266414 151.656013,4.32291667 C151.566525,4.47316919 151.431187,4.58585859 151.25,4.66098485 C151.068813,4.73611111 150.841225,4.77367424 150.567235,4.77367424 L150.567235,4.77367424 L149.592,4.77433333 L149.592803,2.71875 Z M45.4147727,19.3333333 L47.7547348,12.5454545 L46.1638258,12.5454545 L44.5198864,17.7026515 L44.4569129,17.7026515 L42.8162879,12.5454545 L41.2220644,12.5454545 L43.5653409,19.3333333 L45.4147727,19.3333333 Z M53.157197,19.3333333 L53.157197,18.1500947 L50.0052083,18.1500947 L50.0052083,16.5293561 L52.9086174,16.5293561 L52.9086174,15.3461174 L50.0052083,15.3461174 L50.0052083,13.7286932 L53.1439394,13.7286932 L53.1439394,12.5454545 L48.5700758,12.5454545 L48.5700758,19.3333333 L53.157197,19.3333333 Z M55.7225379,19.3333333 L55.722,16.9273333 L56.77,16.9273333 L58.0558712,19.3333333 L59.6401515,19.3333333 L58.2,16.6953333 L58.2630208,16.6685606 C58.5783617,16.5208333 58.8299851,16.3175054 59.017891,16.0585768 L59.1065341,15.9244792 C59.3009785,15.6007734 59.3982008,15.2135417 59.3982008,14.7627841 C59.3982008,14.3142361 59.3026357,13.92369 59.1115057,13.5911458 C58.9203756,13.2586016 58.6430713,13.0011837 58.2795928,12.818892 C57.9161143,12.6366004 57.4780619,12.5454545 56.9654356,12.5454545 L56.9654356,12.5454545 L54.2874053,12.5454545 L54.2874053,19.3333333 L55.7225379,19.3333333 Z M55.7225379,13.71875 L56.6903409,13.71875 C56.9665404,13.71875 57.195786,13.7590751 57.3780777,13.8397254 C57.5603693,13.9203756 57.6962595,14.0380366 57.7857481,14.1927083 C57.8752367,14.3473801 57.9199811,14.5374053 57.9199811,14.7627841 C57.9199811,14.9859533 57.8752367,15.1726641 57.7857481,15.3229167 C57.6962595,15.4731692 57.5609217,15.5858586 57.3797348,15.6609848 C57.198548,15.7361111 56.9709596,15.7736742 56.6969697,15.7736742 L56.6969697,15.7736742 L55.722,15.7743333 L55.7225379,13.71875 Z M63.4981061,19.4261364 C64.0681818,19.4261364 64.5741793,19.310685 65.0160985,19.0797822 C65.4580177,18.8488794 65.8049242,18.5196496 66.0568182,18.0920928 C66.3087121,17.664536 66.4346591,17.1524621 66.4346591,16.5558712 L66.4346591,16.5558712 L66.4346591,15.7007576 L63.5942235,15.7007576 L63.5942235,16.78125 L65.05,16.7813333 L65.0451989,16.907197 C65.030483,17.0715909 64.9936932,17.2220644 64.9348295,17.3586174 L64.868608,17.4905303 C64.7459754,17.7026515 64.5692077,17.866714 64.3383049,17.9827178 C64.1074021,18.0987216 63.8295455,18.1567235 63.5047348,18.1567235 C63.1467803,18.1567235 62.8363321,18.0699968 62.5733902,17.8965436 C62.3104482,17.7230903 62.1071654,17.4706439 61.9635417,17.1392045 C61.8199179,16.8077652 61.7481061,16.4056187 61.7481061,15.9327652 C61.7481061,15.4599116 61.8210227,15.0594223 61.9668561,14.7312973 C62.1126894,14.4031723 62.3165246,14.1529356 62.5783617,13.9805871 C62.8401989,13.8082386 63.1445707,13.7220644 63.4914773,13.7220644 C63.6770833,13.7220644 63.8466698,13.7452652 64.0002367,13.7916667 C64.1538037,13.8380682 64.2907986,13.9049085 64.4112216,13.9921875 C64.5316446,14.0794665 64.6338384,14.1855271 64.717803,14.3103693 C64.8017677,14.4352115 64.8669508,14.5782828 64.9133523,14.7395833 L64.9133523,14.7395833 L66.3716856,14.7395833 C66.3252841,14.4037247 66.2203283,14.0960385 66.0568182,13.8165246 C65.8933081,13.5370107 65.6828441,13.2956124 65.4254261,13.0923295 C65.1680082,12.8890467 64.8735795,12.731613 64.5421402,12.6200284 C64.2107008,12.5084438 63.8527462,12.4526515 63.4682765,12.4526515 C63.0197285,12.4526515 62.6032197,12.5310922 62.21875,12.6879735 C61.8342803,12.8448548 61.4973169,13.073548 61.2078598,13.374053 C60.9184028,13.6745581 60.6935764,14.0407986 60.5333807,14.4727746 C60.373185,14.9047506 60.2930871,15.3958333 60.2930871,15.9460227 C60.2930871,16.6619318 60.4273201,17.2800663 60.695786,17.8004261 C60.9642519,18.320786 61.3393308,18.7218277 61.8210227,19.0035511 C62.3027146,19.2852746 62.8617424,19.4261364 63.4981061,19.4261364 Z M71.8570076,19.3333333 L71.8570076,18.1500947 L68.9469697,18.1500947 L68.9469697,12.5454545 L67.5118371,12.5454545 L67.5118371,19.3333333 L71.8570076,19.3333333 Z M77.3953598,19.3333333 L77.3953598,18.1500947 L74.2433712,18.1500947 L74.2433712,16.5293561 L77.1467803,16.5293561 L77.1467803,15.3461174 L74.2433712,15.3461174 L74.2433712,13.7286932 L77.3821023,13.7286932 L77.3821023,12.5454545 L72.8082386,12.5454545 L72.8082386,19.3333333 L77.3953598,19.3333333 Z M79.9607008,19.3333333 L79.9607008,12.5454545 L78.5255682,12.5454545 L78.5255682,19.3333333 L79.9607008,19.3333333 Z M84.186553,19.4261364 C84.6218434,19.4261364 85.0123895,19.3604009 85.3581913,19.2289299 C85.7039931,19.097459 86.0022885,18.9184817 86.2530777,18.6919981 C86.5038668,18.4655145 86.7038352,18.2080966 86.852983,17.9197443 C87.0021307,17.631392 87.0954861,17.3314394 87.1330492,17.0198864 L87.1330492,17.0198864 L85.6813447,17.0132576 C85.6482008,17.1944444 85.5890941,17.3557449 85.5040246,17.4971591 C85.4189552,17.6385732 85.3123422,17.7584438 85.1841856,17.8567708 C85.056029,17.9550979 84.9096433,18.0296717 84.7450284,18.0804924 C84.5804135,18.1313131 84.4019886,18.1567235 84.2097538,18.1567235 C83.8672664,18.1567235 83.5656566,18.0727588 83.3049242,17.9048295 C83.0441919,17.7369003 82.8414615,17.4883207 82.696733,17.1590909 C82.5520044,16.8298611 82.4796402,16.4232955 82.4796402,15.9393939 C82.4796402,15.46875 82.551452,15.0682607 82.6950758,14.7379261 C82.8386995,14.4075915 83.0408775,14.1556976 83.3016098,13.9822443 C83.5623422,13.808791 83.8683712,13.7220644 84.219697,13.7220644 C84.4141414,13.7220644 84.5947759,13.7496843 84.7616004,13.8049242 C84.9284249,13.8601641 85.0759154,13.9397096 85.204072,14.0435606 C85.3322285,14.1474116 85.4371843,14.2728062 85.5189394,14.4197443 C85.6006944,14.5666824 85.6548295,14.7340593 85.6813447,14.921875 L85.6813447,14.921875 L87.1330492,14.921875 C87.0866477,14.5285669 86.9811395,14.1794508 86.8165246,13.8745265 C86.6519097,13.5696023 86.4392361,13.3116319 86.1785038,13.1006155 C85.9177715,12.8895991 85.6189236,12.728851 85.2819602,12.6183712 C84.9449968,12.5078914 84.5798611,12.4526515 84.186553,12.4526515 C83.5899621,12.4526515 83.0530303,12.5890941 82.5757576,12.8619792 C82.0984848,13.1348643 81.7206439,13.5309343 81.4422348,14.0501894 C81.1638258,14.5694444 81.0246212,15.1991793 81.0246212,15.9393939 C81.0246212,16.677399 81.1621686,17.306029 81.4372633,17.8252841 C81.712358,18.3445391 82.0879893,18.7411616 82.5641572,19.0151515 C83.0403251,19.2891414 83.5811237,19.4261364 84.186553,19.4261364 Z M89.5989583,19.3333333 L89.5989583,16.5293561 L92.5123106,16.5293561 L92.5123106,19.3333333 L93.9441288,19.3333333 L93.9441288,12.5454545 L92.5123106,12.5454545 L92.5123106,15.3461174 L89.5989583,15.3461174 L89.5989583,12.5454545 L88.1638258,12.5454545 L88.1638258,19.3333333 L89.5989583,19.3333333 Z" id="ELEKTROTRANSPORTERVERGLEICH" fill="bg-blue-darker" fill-rule="nonzero"></path>
    </g>
</svg>