<?xml version="1.0" encoding="UTF-8"?>
<svg width="235.5px" height="44px" viewBox="0 0 235.5 44" version="1.1" xmlns="http://www.w3.org/2000/svg" xmlns:xlink="http://www.w3.org/1999/xlink">
    <title>export / logo hell</title>
    <defs>
        <polygon id="path-1" points="0 0 72 0 72 44 0 44"></polygon>
        <linearGradient x1="0%" y1="31.3271605%" x2="100%" y2="68.6728395%" id="linearGradient-3">
            <stop stop-color="#FFFFFF" offset="0%"></stop>
            <stop stop-color="#CCE0F3" offset="100%"></stop>
        </linearGradient>
    </defs>
    <g id="export-/-logo-hell" stroke="none" stroke-width="1" fill="none" fill-rule="evenodd">
        <g id="Group-3">
            <mask id="mask-2" fill="white">
                <use xlink:href="#path-1"></use>
            </mask>
            <g id="Clip-2"></g>
            <path d="M17.2821868,14.0433393 C18.3425112,12.9779015 19.7453111,12.391141 21.2322381,12.391141 L22.374862,12.391141 L22.374862,23.6337925 L21.2322381,23.6337925 C19.7453111,23.6337925 18.3425112,23.046978 17.2821868,21.9815941 C16.2218623,20.9161563 15.6379178,19.5065374 15.6379178,18.0123857 C15.6379178,16.518288 16.2218623,15.1087772 17.2821868,14.0433393 M52.8599563,20.6595329 L50.2500799,17.9278529 C50.1607922,17.8344616 50.0805892,17.7316179 50.0115136,17.6222923 L46.5982095,12.2188344 C45.2049781,10.0132025 43.2642484,8.18210775 40.985935,6.92362173 C38.7075679,5.66524374 36.1290308,5 33.5291528,5 L10.3902659,5 C8.31176117,5 6.26868123,5.71272256 4.63731359,7.00675019 C3.00594594,8.30083182 1.84176612,10.1321966 1.35925802,12.1636315 L0.916475122,14.0280532 C0.623884701,15.259694 0.903950123,16.5360588 1.68480047,17.5299814 C2.46559707,18.5238499 3.63617377,19.0939199 4.89641442,19.0939199 L13.5628535,19.0939199 C14.0883121,22.8747794 17.3270725,25.7943763 21.2322381,25.7943763 L23.4499692,25.7943763 C24.0437509,25.7943763 24.5250764,25.3107296 24.5250764,24.7140844 L24.5250764,22.9480232 L30.1185365,22.9480232 C30.7123182,22.9480232 31.1936437,22.4643766 31.1936437,21.8677314 C31.1936437,21.2711402 30.7123182,20.7874395 30.1185365,20.7874395 L24.5250764,20.7874395 L24.5250764,15.237386 L30.1185365,15.237386 C30.7123182,15.237386 31.1936437,14.7537393 31.1936437,14.1570941 C31.1936437,13.5605029 30.7123182,13.0768022 30.1185365,13.0768022 L24.5250764,13.0768022 L24.5250764,11.3108491 C24.5250764,10.7142039 24.0437509,10.2305572 23.4499692,10.2305572 L21.2322381,10.2305572 C17.3263199,10.2305572 14.087022,13.1513423 13.5625309,16.9333362 L4.89641442,16.9333362 C4.2984398,16.9333362 3.74298567,16.6628311 3.37250374,16.1912837 C3.0020218,15.7196282 2.8690848,15.1140166 3.00793489,14.5295787 L3.45071778,12.665157 C3.8214685,11.1042433 4.71606519,9.69694703 5.96964017,8.70259237 C7.22321515,7.70823772 8.79314042,7.16058375 10.3902659,7.16058375 L33.5291528,7.16058375 C35.7679023,7.16058375 37.9882136,7.73340852 39.9500692,8.81699528 C41.9119786,9.90069008 43.5830714,11.4773761 44.7827836,13.3766372 L48.1960338,18.7799871 C48.3416034,19.0104674 48.5108252,19.2272279 48.6990227,19.4241651 L51.3088454,22.1557912 C51.657664,22.5209298 51.8497856,23.0007955 51.8497856,23.5069122 L51.8497856,28.0950199 C51.8497856,29.1707205 50.9788413,30.0458649 49.9083033,30.0458649 L49.7225248,30.0458649 C49.1287431,30.0458649 48.6474176,30.5295116 48.6474176,31.1261568 C48.6474176,32.3751363 48.1630818,33.5462807 47.2836441,34.4239638 C46.4039914,35.301863 45.2315333,35.7853476 43.9823663,35.7853476 C42.7331455,35.7853476 41.5607411,35.301863 40.6810884,34.4239638 C39.8016507,33.5462807 39.3173687,32.3751363 39.3173687,31.1261568 C39.3173687,30.5295116 38.8359894,30.0458649 38.2422615,30.0458649 L16.1325747,30.0458649 C15.538793,30.0458649 15.0574675,30.5295116 15.0574675,31.1261568 C15.0574675,33.725069 12.9647176,35.8394162 10.3924161,35.8394162 C7.82011466,35.8394162 5.72736476,33.725069 5.72736476,31.1261568 C5.72736476,30.5295116 5.24603928,30.0458649 4.65225758,30.0458649 L4.0918042,30.0458649 C3.02121246,30.0458649 2.15021437,29.1707205 2.15021437,28.0949658 L2.15021437,23.1712655 C2.15021437,22.5746203 1.66888889,22.0909737 1.07510719,22.0909737 C0.481379243,22.0909737 0,22.5746203 0,23.1712655 L0,28.0949658 C0,30.2146605 1.6048125,31.9648954 3.65762216,32.1834385 C4.16340634,35.4735214 6.99093824,38 10.3924161,38 C13.7860995,38 16.6084171,35.4854586 17.1236085,32.2064487 L37.2511202,32.2064487 C37.4739361,33.6235216 38.1345357,34.9276499 39.1658323,35.956898 C40.4510154,37.2395285 42.1615647,37.9459314 43.9823663,37.9459314 C45.8031678,37.9459314 47.5136633,37.2395285 48.7988464,35.956952 C49.8502475,34.9076645 50.5162764,33.5729099 50.7260836,32.1239144 C52.5918246,31.7421933 54,30.0807044 54,28.0950199 L54,23.5069122 C54,22.440232 53.5951146,21.4290248 52.8599563,20.6595329" id="Fill-1" fill="url(#linearGradient-3)" mask="url(#mask-2)"></path>
        </g>
        <text id="ELEKTROTRANSPORTER-V" font-family="Roboto-Medium, Roboto" font-size="14" font-weight="400" letter-spacing="1" fill="#FFFFFF">
            <tspan x="61.5" y="18">ELEKTROTRANSPORTER</tspan>
            <tspan x="61.5" y="34">VERGLEICH</tspan>
        </text>
    </g>
</svg>