<?xml version="1.0" encoding="UTF-8"?>
<svg width="118px" height="136px" viewBox="0 0 118 136" version="1.1" xmlns="http://www.w3.org/2000/svg" xmlns:xlink="http://www.w3.org/1999/xlink" style="background: bg-grey-lighter;">
    <title>etv icon / reichweite</title>
    <g id="etv-icon-/-reichweite" stroke="none" stroke-width="1" fill="none" fill-rule="evenodd">
        <rect fill="bg-grey-lighter" x="0" y="0" width="118" height="136"></rect>
        <g id="rangeLithium" transform="translate(0.000000, 51.000000)" fill-rule="nonzero">
            <polygon id="Path" fill="bg-blue-darker" points="22.497 15.270003 22.503 18.269997 17.503 18.279997 17.497 15.280003"></polygon>
            <path d="M32.8849938,18.2299917 L43.2649364,18.1954343 L43.2549488,15.1954509 L32.8750062,15.2300083 L32.8849938,18.2299917 Z M53.644879,18.1608769 L64.0248216,18.1263196 L64.0148339,15.1263362 L53.6348913,15.1608936 L53.644879,18.1608769 Z M74.4047642,18.0917622 L84.7847068,18.0572048 L84.7747191,15.0572215 L74.3947765,15.0917788 L74.4047642,18.0917622 Z" id="Path" fill="bg-blue-darker"></path>
            <polygon id="Path" fill="bg-blue-darker" points="100.134 15.000012 100.146 17.999988 95.146 18.019988 95.134 15.020012"></polygon>
            <circle id="Oval" fill="#FFFFFF" cx="16.5" cy="16.78" r="15"></circle>
            <path d="M16.5,3.28 C23.9545419,3.28 29.9981566,9.32212744 30,16.7766691 C30.0018351,24.2312108 23.9612027,30.2763178 16.5066617,30.28 C9.05212071,30.2836789 3.00552188,24.2445399 3,16.79 C3.00551503,9.33644147 9.04644147,3.29551503 16.5,3.29 M16.5,0.29 C7.38730163,0.29 0,7.67730163 0,16.79 C0,25.9026984 7.38730163,33.29 16.5,33.29 C25.6126984,33.29 33,25.9026984 33,16.79 C32.9889799,7.68187022 25.6081298,0.301020133 16.5,0.29 L16.5,0.29 Z" id="Shape" fill="bg-blue-darker"></path>
            <circle id="Oval" fill="#FFFFFF" cx="101.14" cy="16.5" r="15"></circle>
            <path d="M101.17,3 C108.625844,3 114.67,9.04415588 114.67,16.5 C114.67,23.9558441 108.625844,30 101.17,30 C93.7141559,30 87.67,23.9558441 87.67,16.5 C87.67,9.04415588 93.7141559,3 101.17,3 M101.17,0 C92.0573016,0 84.67,7.38730163 84.67,16.5 C84.67,25.6126984 92.0573016,33 101.17,33 C110.282698,33 117.67,25.6126984 117.67,16.5 C117.65898,7.39187022 110.27813,0.011020133 101.17,0 Z" id="Shape" fill="bg-blue-darker"></path>
            <circle id="Oval" fill="bg-blue-darker" cx="101.14" cy="16.5" r="8.46"></circle>
            <circle id="Oval" fill="bg-blue-darker" cx="16.14" cy="16.5" r="8.46"></circle>
        </g>
    </g>
</svg>