<?xml version="1.0" encoding="UTF-8"?>
<svg width="118px" height="136px" viewBox="0 0 118 136" version="1.1" xmlns="http://www.w3.org/2000/svg" xmlns:xlink="http://www.w3.org/1999/xlink" style="background: bg-grey-lighter;">
    <title>etv icon / reichweite copy</title>
    <g id="etv-icon-/-reichweite-copy" stroke="none" stroke-width="1" fill="none" fill-rule="evenodd">
        <rect fill="bg-grey-lighter" x="0" y="0" width="118" height="136"></rect>
        <g id="price" transform="translate(6.000000, 15.000000)" fill-rule="nonzero">
            <path d="M52.551532,103.530017 C24.3850098,103.530017 1.55153203,80.6965395 1.55153203,52.5300172 C1.55153203,24.363495 24.3850098,1.53001725 52.551532,1.53001725 C80.7180543,1.53001725 103.551532,24.363495 103.551532,52.5300172 C103.512973,80.6805525 80.7020673,103.491459 52.551532,103.530017 Z" id="Path" fill="#FFFFFF"></path>
            <path d="M52.551532,3.00001623 C72.5823218,2.99597266 90.6428121,15.0596507 98.310132,33.5649138 C105.977452,52.0701769 101.741366,73.3720364 87.5774588,87.535944 C73.4135512,101.699852 52.1116917,105.935937 33.6064286,98.2686172 C15.1011655,90.6012974 3.03748745,72.5408071 3.04153101,52.5100172 C3.04705274,25.1686864 25.2102011,3.00553796 52.551532,3.00001623 M52.551532,8.61650098e-06 C31.3055391,-0.0121183164 12.1450032,12.777354 4.00703767,32.4029974 C-4.13092785,52.0286407 0.356885486,74.624133 15.3772117,89.6501824 C30.397538,104.676232 52.991319,109.172653 72.6200611,101.042164 C92.2488033,92.9116756 105.045574,73.7560132 105.041533,52.5100172 C105.008491,23.5310481 81.5304865,0.0440980672 52.551532,8.61650098e-06 Z" id="Shape" fill="bg-blue-darker"></path>
            <circle id="Oval" fill="bg-blue-darker" cx="52.551532" cy="52.5100172" r="42.39"></circle>
            <path d="M52.551532,11.630016 C69.0918126,11.6259727 84.0054916,21.5870187 90.3370514,36.8674718 C96.6686112,52.1479248 93.170872,69.7378674 81.4751271,81.4336123 C69.7793822,93.1293572 52.1894396,96.6270965 36.9089865,90.2955366 C21.6285335,83.9639768 11.6674875,69.0502978 11.6715308,52.5100172 C11.6715308,29.9326167 29.9741315,11.630016 52.551532,11.630016 M52.551532,8.63001725 C34.7987742,8.63001725 18.7942553,19.3245552 12.0015035,35.7263519 C5.20875178,52.1281486 8.96562708,71.0068045 21.5201527,83.5584696 C34.0746783,96.1101348 52.9541897,99.8627081 69.3544381,93.0662191 C85.7546865,86.2697301 96.4455769,70.2627746 96.4415332,52.5100172 C96.4194712,28.2810022 76.7805515,8.64655708 52.551532,8.63001725 Z" id="Shape" fill="#FFFFFF"></path>
            <path d="M34.301532,46.5200172 L55.721532,46.5200172 L55.721532,50.1300172 L34.301532,50.1300172 L34.301532,46.5200172 Z M34.301532,57.2700172 L55.721532,57.2700172 L55.721532,60.8700172 L34.301532,60.8700172 L34.301532,57.2700172 Z M44.641532,78.4900172 C42.4561641,77.1736874 40.7308288,75.2143492 39.701532,72.8800172 C38.5099499,70.0546026 37.9436666,67.0048595 38.041532,63.9400172 L38.041532,43.4200172 C37.9482465,40.3331694 38.5248029,37.2627512 39.731532,34.4200172 C40.7545681,32.0765073 42.4809093,30.1090374 44.671532,28.7900172 C47.0722639,27.4473361 49.7919936,26.780363 52.541532,26.8600172 C55.1469375,26.8110472 57.72383,27.4088863 60.041532,28.6000172 C62.1638055,29.7384869 63.9030624,31.4777438 65.041532,33.6000172 C66.3290151,36.0594731 67.0499552,38.7758115 67.151532,41.5500172 L61.951532,41.5500172 C61.8242195,39.7130855 61.3096128,37.9238899 60.441532,36.3000172 C59.6857152,34.9161559 58.5560735,33.7726536 57.181532,33.0000172 C55.7444275,32.2382957 54.1378033,31.8529811 52.511532,31.8800172 C50.7465673,31.8363812 49.0077478,32.3128177 47.511532,33.2500172 C46.0821604,34.2123003 44.9743991,35.581326 44.331532,37.1800172 C43.5588058,39.1810642 43.1916875,41.3157893 43.251532,43.4600172 L43.251532,63.9400172 C43.1935443,66.0873658 43.5605783,68.2249989 44.331532,70.2300172 C44.9606426,71.8314499 46.0718871,73.1977915 47.511532,74.1400172 C49.0147007,75.0581171 50.7506958,75.5233638 52.511532,75.4800172 C54.1272283,75.5063876 55.7277072,75.1644049 57.191532,74.4800172 C58.5291993,73.8429819 59.6568466,72.8367736 60.441532,71.5800172 C61.3058079,70.1494948 61.8229568,68.5364012 61.951532,66.8700172 L67.151532,66.8700172 C67.0389985,69.4681424 66.316152,72.0032438 65.041532,74.2700172 C63.857003,76.2514803 62.1190562,77.8434396 60.041532,78.8500172 C57.6930397,79.9463098 55.1225201,80.4836887 52.531532,80.4200172 C49.7752563,80.5033111 47.0481336,79.8362203 44.641532,78.4900172 L44.641532,78.4900172 Z" id="Shape" fill="#FFFFFF"></path>
        </g>
    </g>
</svg>