<svg xmlns="http://www.w3.org/2000/svg" viewBox="0 0 763.79 431.22"><polygon points="200.98 381.69 230.94 381.69 233.23 372 189.76 372 176.25 430.69 219.66 430.69 221.95 420.94 192.05 420.94 196.05 404.02 223.89 404.02 226.18 394.26 198.16 394.26 200.98 381.69"/><polygon points="230.53 430.69 274.01 430.69 276.3 420.94 246.34 420.94 250.39 404.02 278.18 404.02 280.47 394.26 252.68 394.26 255.5 381.69 285.4 381.69 287.69 372 244.28 372 230.53 430.69"/><polygon points="118.32 371.76 63.63 371.76 61.33 381.52 81.9 381.52 70.44 430.69 84.19 430.69 95.41 381.69 116.03 381.69 118.32 371.76"/><polygon points="350.44 371.76 295.74 371.76 293.45 381.52 314.01 381.52 302.79 430.45 316.48 430.45 327.76 381.52 348.32 381.52 350.44 371.76"/><path d="M149.93,371.76h-23.8l-13.51,58.69h13.69l5.17-22.32h8.75l13.16,22.32h17l-16-25.14c9.17-3.82,14.69-9.52,16.39-17.33,1.12-4.94.18-8.93-3.05-11.81S158.5,371.76,149.93,371.76Zm6.46,17.57a13.08,13.08,0,0,1-4.58,7.23c-2.29,1.88-6.46,2.87-12.4,2.87h-6l4.17-18.27h7.23c5.34,0,8.75.77,10.28,2.12S157,386.63,156.39,389.33Z"/><path d="M562.93,372.18c-9.16,0-17,2.64-23.26,7.81S529,392.38,526.92,401.55s-1.12,16.21,2.88,21.33,10.46,7.81,19.62,7.81,17-2.64,23.27-7.81a38,38,0,0,0,12.74-21.33c2.12-9.17,1.12-16.21-2.87-21.56C578.56,374.82,572,372.18,562.93,372.18Zm8.76,29.13c-1.53,6.47-4,11.46-7.64,15a17.09,17.09,0,0,1-12.57,5.35c-4.76,0-8-1.7-10.11-5.35-1.88-3.64-2.29-8.57-.76-15s4-11.63,7.64-15a17.09,17.09,0,0,1,12.57-5.35c4.76,0,8.16,1.7,10.1,5.35S573,394.85,571.69,401.31Z"/><path d="M497.9,372.18c-9.17,0-17,2.64-23.27,7.81s-10.69,12.39-12.74,21.56-1.12,16.21,2.87,21.33,10.46,7.81,19.63,7.81,17-2.64,23.26-7.81a38,38,0,0,0,12.75-21.33c2.11-9.17,1.12-16.21-2.88-21.56C513.53,374.82,507.06,372.18,497.9,372.18Zm8.81,29.13c-1.53,6.47-4,11.46-7.64,15a17,17,0,0,1-12.39,5.35c-4.76,0-8-1.7-10.11-5.35-1.88-3.64-2.29-8.57-.76-15s4-11.63,7.64-15A17.09,17.09,0,0,1,496,380.93c4.58,0,8,1.7,9.93,5.35S508.24,394.85,506.71,401.31Z"/><polygon points="653.82 371.76 599.12 371.76 596.83 381.52 617.39 381.52 606 430.69 619.68 430.69 630.97 381.69 651.53 381.69 653.82 371.76"/><path d="M428,386.28c4-3.65,8.57-4.94,13.92-4.94h18.86l2.47-9.34h-20.8a35.64,35.64,0,0,0-23.27,8,38.28,38.28,0,0,0-13,21.32c-2.11,9.17-1.12,16.4,2.88,21.57s10.69,7.63,19.8,7.63h19.62l2.47-8.93H432.45c-5.34-.17-9.16-1.35-11.45-4.93-2.3-3.41-2.65-8.58-1.36-15C421.29,395,424,389.92,428,386.28Z"/><polygon points="673.26 381.69 703.17 381.69 705.46 372 661.98 372 648.47 430.69 691.95 430.69 694 420.94 664.1 420.94 668.09 404.02 695.94 404.02 698.23 394.26 670.38 394.26 673.26 381.69"/><path d="M362.07,377.11c-5.52,3.23-8.93,7.46-10.1,12.57-.94,4.41-.36,8,1.7,10.69,2.11,2.88,5.7,4.76,10.87,5.94s8.75,1.88,10.87,2.29c2.88.76,4.76,1.53,5.7,2.64.94.94,1.11,2.47.76,4.17-.59,2.3-2.29,3.41-4.94,4.76a27.76,27.76,0,0,1-9.51,1.53H348.21l-2.47,9.52h22.09v-.59c7.81-.35,12.57-1.12,18.27-4.58s9.16-7.82,10.46-13.34a16.18,16.18,0,0,0,.35-5.17,9.71,9.71,0,0,0-1.53-4.17,11.89,11.89,0,0,0-3.82-3.64,24.21,24.21,0,0,0-8-2.88c-3.64-.94-7.05-1.53-10.1-2.12-3.06-.76-4.94-1.52-6.11-2.64a4.06,4.06,0,0,1-.94-4.17c.59-2.11,1.7-3.41,4.17-4.58a23.81,23.81,0,0,1,9.34-1.71h20.21l2.47-9.51h-21A39,39,0,0,0,362.07,377.11Z"/><path d="M16.33,377.11c-5.52,3.23-8.93,7.46-10.1,12.57-.94,4.41-.36,8,1.7,10.69,2.12,2.88,5.7,4.76,10.87,5.94s8.75,1.88,10.87,2.29c2.88.76,4.76,1.53,5.7,2.64.94.94,1.11,2.47.76,4.17-.59,2.3-2.29,3.41-4.93,4.76a27.87,27.87,0,0,1-9.52,1.53H2.47L0,431.22H22.09v-.59c7.81-.35,12.57-1.12,18.27-4.58s9.17-7.82,10.46-13.34a15.9,15.9,0,0,0,.35-5.17,9.58,9.58,0,0,0-1.53-4.17,11.89,11.89,0,0,0-3.82-3.64,24.21,24.21,0,0,0-8-2.88c-3.64-.94-7-1.53-10.1-2.12-3.06-.76-4.94-1.52-6.11-2.64a4.06,4.06,0,0,1-.94-4.17c.59-2.11,1.7-3.41,4.17-4.58a23.81,23.81,0,0,1,9.34-1.71H54.4l2.47-9.51h-21A39.19,39.19,0,0,0,16.33,377.11Z"/><path d="M763.21,388c1.35-4.94.35-8.93-2.88-11.81s-9.16-4.41-17.74-4.41h-8.76l-2.11,9.35h5.7c5.34,0,8.75.76,10.28,2.11,1.53,1.53,1.88,3.41,1.35,6.11a13.08,13.08,0,0,1-4.58,7.23c-2.29,1.88-6.46,2.87-12.4,2.87h-4.76l-2.11,8.93h7.22l13.16,22.33h17l-15.8-25.32C756,401.49,761.51,395.79,763.21,388Z"/><polygon points="715.74 371.76 706.05 413.71 719.38 413.71 729.08 371.76 715.74 371.76"/><polygon points="702.05 430.45 715.39 430.45 718.03 419.06 704.7 419.06 702.05 430.45"/><path d="M220.66,269.07c43.83,28.2,101.75,43.65,163.15,43.65,45.18,0,87.3-8.4,124.43-24h.17s8.58-3.23,3.65-14.1-3.82-10.28-18.86-33.37c-19.27-29.55-54.87-66.91-56.81-69-2.12-2.11-3.82-3.41-6.7-3.41a8,8,0,0,0-8,8,19.28,19.28,0,0,0,.59,3.65,70.1,70.1,0,0,0,3.41,8.75c.58-.18,35.83,60.39-58.11,65.56-114.91,3.82-174.95-29.55-182.35-95.11-2.35-30.14,13.86-55.64,48-85.36a9.89,9.89,0,0,0,3.65-7.64c0-1.53,0-3.64-2.3-7.64L228.3,48.17c-1.7-2.87-4.41-4-7.81-4a10.63,10.63,0,0,0-5.29,1.41h0a11.13,11.13,0,0,0-1.76,1.23c-42.3,29.38-65,72-65,107.87C148.4,198.57,174.13,239.17,220.66,269.07ZM214.9,45.77c-.23.17-.7.52-1.46,1C213.61,46.71,214.43,46.12,214.9,45.77Z"/><path d="M269.25,71.44c19.27,29.55,54.87,66.91,56.81,69,2.11,2.12,3.82,3.41,6.46,3.41a8,8,0,0,0,8-8,19,19,0,0,0-.59-3.64,69.61,69.61,0,0,0-3.41-8.76c.18.18-35.24-60.22,58.87-65.56,114.91-3.82,175,29.55,182.36,95.11,2.29,30.14-13.93,55.64-48,85.36A9.9,9.9,0,0,0,526.1,246c0,1.53,0,3.64,2.29,7.64l6.11,10.87c1.7,2.88,4.41,4,7.81,4a10.8,10.8,0,0,0,5.29-1.41h0a11.6,11.6,0,0,0,1.76-1.23c42.3-29.38,64.8-72,64.8-107.69,0-43.82-25.73-84.42-72.2-114.32C498,15.45,440,0,378.64,0c-45.18,0-87.3,8.4-124.43,24H254s-8.58,3.23-3.64,14.1S254.15,48.35,269.25,71.44ZM548.6,266.37c.17-.12.41-.3.7-.53A3,3,0,0,1,548.6,266.37Zm-.94.7c.06,0,.12-.06.23-.17C547.78,267,547.66,267,547.66,267.07Z"/></svg>