<?xml version="1.0" encoding="UTF-8"?>
<svg width="118px" height="136px" viewBox="0 0 118 136" version="1.1" xmlns="http://www.w3.org/2000/svg" xmlns:xlink="http://www.w3.org/1999/xlink" style="background: bg-grey-lighter;">
    <title>etv icon / zuladung</title>
    <g id="etv-icon-/-zuladung" stroke="none" stroke-width="1" fill="none" fill-rule="evenodd">
        <rect fill="bg-grey-lighter" x="0" y="0" width="118" height="136"></rect>
        <path d="M58.79,134.640022 C18.79,134.640022 1.5,120.990022 1.5,116.640022 C1.5,114.310022 2.5,60.0900218 4.05,51.2700218 L4.18,50.5300218 L49.08,27.8900218 C44.2860007,23.8185354 42.5411827,17.188604 44.7099329,11.2847109 C46.878683,5.38081779 52.5003712,1.45691634 58.79,1.45691634 C65.0796288,1.45691634 70.701317,5.38081779 72.8700671,11.2847109 C75.0388173,17.188604 73.2939993,23.8185354 68.5,27.8900218 L113.4,50.5300218 L113.57,51.3300218 C115.14,60.1500218 116.08,114.330022 116.12,116.670022 C116.08,121.270022 101.98,134.640022 58.79,134.640022 Z" id="Path" fill="#FFFFFF" fill-rule="nonzero"></path>
        <path d="M58.79,3.00001168 C64.882031,2.99477681 70.2216085,7.07318607 71.8193814,12.9519607 C73.4171542,18.8307354 70.8765825,25.0508645 65.62,28.1300218 L112.05,51.5500218 C113.62,60.3300218 114.57,116.660022 114.57,116.660022 C114.57,119.660022 102.36,133.140022 58.78,133.140022 C18.99,133.140022 2.99,119.680022 2.99,116.660022 C2.99,116.660022 3.99,60.3600218 5.52,51.5500218 L51.96,28.1300218 C46.7034175,25.0508645 44.1628458,18.8307354 45.7606186,12.9519607 C47.3583915,7.07318607 52.697969,2.99477681 58.79,3.00001168 M58.79,7.24194476e-06 C52.2849906,0.00971368017 46.3943196,3.84499563 43.7535852,9.78988948 C41.1128508,15.7347834 42.2162104,22.6768285 46.57,27.5100218 L4.18,48.8700218 L2.84,49.5500218 L2.57,51.0300218 C0.99,59.9700218 0.04,114.300022 1.13686838e-13,116.610022 L1.13686838e-13,116.610022 C1.13686838e-13,121.010022 8,125.900022 14.82,128.750022 C22.82,132.100022 36.99,136.090022 58.82,136.090022 C82.56,136.090022 96.64,132.090022 104.27,128.730022 C112.37,125.160022 117.61,120.400022 117.61,116.610022 L117.61,116.610022 C117.61,114.300022 116.61,59.9700218 115.04,51.0300218 L114.77,49.5500218 L113.43,48.8700218 L71.05,27.5100218 C75.4086357,22.67144 76.5091717,15.7199292 73.8582737,9.77162538 C71.2073757,3.82332156 65.3022608,-0.00607804983 58.79,7.24194476e-06 Z" id="Shape" fill="bg-blue-darker" fill-rule="nonzero"></path>
        <circle id="Oval" fill="bg-blue-darker" fill-rule="nonzero" cx="58.51" cy="16.2400218" r="8.46"></circle>
    </g>
</svg>