<?xml version="1.0" encoding="UTF-8"?>
<svg width="23px" height="23px" viewBox="0 0 23 23" version="1.1" xmlns="http://www.w3.org/2000/svg" xmlns:xlink="http://www.w3.org/1999/xlink">
    <title>🎨 Icon Style</title>
    <g id="Symbols" stroke="none" stroke-width="1" fill="none" fill-rule="evenodd">
        <g id="export-/-berater-icon" fill="bg-blue-darker">
            <path d="M7.59814453,7.73144531 C7.84350684,7.73144531 8.04248047,7.93037451 8.04248047,8.17578125 C8.04248047,8.42118799 7.84350684,8.62011719 7.59814453,8.62011719 L7.59814453,8.62011719 L3.11035156,8.62011719 C1.88531738,8.62011719 0.888671875,9.6167627 0.888671875,10.8417969 L0.888671875,10.8417969 L0.888671875,17.6845703 C0.888671875,18.9096045 1.88531738,19.90625 3.11035156,19.90625 L3.11035156,19.90625 L5.99760205,19.90625 C6.17933545,19.90625 6.33645264,20.0156011 6.40510254,20.173207 L6.40510254,20.173207 L7.46564355,21.2337036 L7.46626563,20.3502749 C7.46644336,20.1050015 7.66528369,19.90625 7.91060156,19.90625 L7.91060156,19.90625 L12.7080078,19.90625 C13.933042,19.90625 14.9296875,18.9096045 14.9296875,17.6845703 L14.9296875,17.6845703 L14.9296875,14.6186523 C14.9296875,14.3732456 15.1286611,14.1743164 15.3740234,14.1743164 C15.6193857,14.1743164 15.8183594,14.3732456 15.8183594,14.6186523 L15.8183594,14.6186523 L15.8183594,17.6845703 C15.8183594,19.3996182 14.4230557,20.7949219 12.7080078,20.7949219 L12.7080078,20.7949219 L8.35458203,20.7949219 L8.35351562,22.3059751 C8.35338232,22.4856201 8.24509766,22.6475361 8.07904932,22.7162305 C8.02417383,22.738936 7.96645459,22.75 7.90926855,22.75 C7.79360791,22.75 7.67999121,22.7048555 7.59498975,22.619854 L7.59498975,22.619854 L5.77005762,20.7949219 L3.11035156,20.7949219 C1.39530371,20.7949219 0,19.3996182 0,17.6845703 L0,17.6845703 L0,10.8417969 C0,9.12674902 1.39530371,7.73144531 3.11035156,7.73144531 L3.11035156,7.73144531 Z M12.2192383,16.2626953 C12.3360986,16.2626953 12.4507373,16.3102393 12.5333394,16.3928857 C12.6159858,16.4755322 12.6635742,16.5901709 12.6635742,16.7070312 C12.6635742,16.8243359 12.6160303,16.9385303 12.5333394,17.0211768 C12.4507373,17.1038232 12.3360986,17.1513672 12.2192383,17.1513672 C12.1023779,17.1513672 11.9877393,17.1038232 11.9050928,17.0211768 C11.8224463,16.9385303 11.7749023,16.8238916 11.7749023,16.7070312 C11.7749023,16.5901709 11.8224019,16.4755322 11.9050928,16.3928857 C11.9877393,16.3102393 12.1023779,16.2626953 12.2192383,16.2626953 Z M10.4715317,16.2626953 C10.716894,16.2626953 10.9158677,16.4616245 10.9158677,16.7070312 C10.9158677,16.952438 10.7169385,17.1513672 10.4715317,17.1513672 L10.4715317,17.1513672 L2.84375,17.1513672 C2.5983877,17.1513672 2.39941406,16.952438 2.39941406,16.7070312 C2.39941406,16.4616245 2.5983877,16.2626953 2.84375,16.2626953 L2.84375,16.2626953 Z M12.2192383,13.7744141 C12.4646006,13.7744141 12.6635742,13.9733433 12.6635742,14.21875 C12.6635742,14.4641567 12.464645,14.6630859 12.2192383,14.6630859 L12.2192383,14.6630859 L2.84375,14.6630859 C2.5983877,14.6630859 2.39941406,14.4641567 2.39941406,14.21875 C2.39941406,13.9733433 2.5983877,13.7744141 2.84375,13.7744141 L2.84375,13.7744141 Z M16.2917993,0 C19.8528408,0 22.75,2.89715918 22.75,6.45824512 C22.75,7.48981543 22.5139243,8.47575244 22.0482158,9.38868506 C21.6381826,10.1924888 21.0539253,10.912002 20.3505859,11.4815962 L20.3505859,11.4815962 L20.3505859,14.0523462 C20.3505859,14.2320356 20.2423457,14.3940405 20.0763418,14.4628237 C20.0213774,14.4856182 19.9636138,14.4966821 19.9063389,14.4966821 C19.7907227,14.4966821 19.6771504,14.4515376 19.5921489,14.366625 L19.5921489,14.366625 L17.9309102,12.7063193 C17.397707,12.8458408 16.8475747,12.9164458 16.2917549,12.9164458 L16.2917549,12.9164458 L15.1671851,12.9164458 C11.6061436,12.9164458 8.70898438,10.0193311 8.70898438,6.45824512 C8.70898438,2.89715918 11.6061436,0 15.1672295,0 L15.1672295,0 Z M16.2917993,0.888671875 L15.1672295,0.888671875 C12.0961572,0.888671875 9.59765625,3.38717285 9.59765625,6.45824512 C9.59765625,9.52931738 12.0961128,12.0278184 15.1672295,12.0278184 L15.1672295,12.0278184 L16.2917993,12.0278184 C16.8499297,12.0278184 17.401084,11.9454385 17.9299771,11.7829004 C17.9728999,11.7697036 18.0168892,11.7632607 18.0604341,11.7632607 C18.1764946,11.7632607 18.289978,11.8088052 18.3745796,11.8933179 L18.3745796,11.8933179 L19.4619141,12.9800747 L19.4619141,11.264938 C19.4619141,11.1253721 19.527498,10.9939375 19.6388931,10.9100024 C21.0513037,9.84626221 21.8613281,8.22363623 21.8613281,6.45824512 C21.8613281,3.38717285 19.3628716,0.888671875 16.2917993,0.888671875 L16.2917993,0.888671875 Z M9.33105469,11.2861328 C9.57641699,11.2861328 9.77539062,11.485062 9.77539062,11.7304688 C9.77539062,11.9758755 9.57646143,12.1748047 9.33105469,12.1748047 L9.33105469,12.1748047 L2.84375,12.1748047 C2.5983877,12.1748047 2.39941406,11.9758755 2.39941406,11.7304688 C2.39941406,11.485062 2.5983877,11.2861328 2.84375,11.2861328 L2.84375,11.2861328 Z M15.8539063,9.1679834 C15.9707666,9.1679834 16.0854053,9.21552734 16.1680518,9.29817383 C16.2506538,9.38082031 16.2982422,9.49545898 16.2982422,9.61231934 C16.2982422,9.72962402 16.2506982,9.84381836 16.1680518,9.92690918 C16.0854053,10.0095557 15.9707666,10.0566553 15.8539063,10.0566553 C15.7370459,10.0566553 15.6224072,10.0095557 15.5397607,9.92690918 C15.4571587,9.8442627 15.4095703,9.72962402 15.4095703,9.61231934 C15.4095703,9.49545898 15.4571143,9.38082031 15.5397607,9.29817383 C15.6224072,9.21552734 15.7370459,9.1679834 15.8539063,9.1679834 Z M15.8114711,3.1135854 L15.9862295,3.11777197 C16.9164912,3.18188965 17.6663525,3.93175098 17.7304702,4.86196826 C17.7942324,5.78712012 17.1935347,6.60638672 16.2981978,6.82268945 L16.2981978,6.82268945 L16.2981978,7.8547041 C16.2982422,8.10011084 16.099313,8.29904004 15.8539063,8.29904004 C15.6085439,8.29904004 15.4095703,8.10011084 15.4095703,7.8547041 L15.4095703,7.8547041 L15.4095703,6.78718701 C15.4095703,6.38919531 15.6819482,6.05025586 16.0719863,5.96298828 C16.5533799,5.85528125 16.8780562,5.41796582 16.8439312,4.92310889 C16.8101616,4.43313965 16.4151914,4.03816943 15.9251777,4.0043999 C15.6456904,3.98511572 15.3800664,4.07900391 15.1768271,4.26869092 C14.9734102,4.45855566 14.8613486,4.71631494 14.8613486,4.9944248 C14.8613486,5.23983154 14.662375,5.43876074 14.4170127,5.43876074 C14.1716504,5.43876074 13.9726768,5.23983154 13.9726768,4.9944248 C13.9726768,4.47495166 14.1905347,3.97365186 14.5704419,3.61902734 C14.9556367,3.25942627 15.4588916,3.08155859 15.9862295,3.11777197 Z" id="🎨-Icon-Style"></path>
        </g>
    </g>
</svg>